<svg width="216" height="108" viewBox="0 0 216 108" fill="none" xmlns="http://www.w3.org/2000/svg">
<path d="M47.0494 1.16138C47.0494 1.69088 47.1393 2.23628 47.03 2.7499C46.8167 3.74714 47.4759 4.45844 47.7932 5.258C47.9096 5.55628 48.5565 5.73102 48.9848 5.79633C49.5981 5.86872 50.2173 5.87582 50.8321 5.81751C52.1094 5.71454 53.3919 5.9393 54.5584 6.47057C55.4556 6.88888 56.3986 7.20658 57.3311 7.5437C57.5127 7.58901 57.6711 7.70018 57.7757 7.8557C57.8802 8.01123 57.9234 8.20004 57.8969 8.38562C57.844 9.9459 57.8775 9.79764 59.344 9.79764H74.2087C75.2028 9.79764 75.2663 9.76587 75.224 8.73862C75.1993 8.12439 75.4003 7.82257 76.0101 7.67961C77.378 7.34602 78.7264 6.93477 80.0855 6.56764C80.3007 6.52107 80.5212 6.50268 80.7412 6.51293C83.0538 6.51293 85.3682 6.49351 87.6808 6.51293C88.1632 6.54017 88.6403 6.62672 89.1015 6.77062C90.249 7.07773 91.393 7.4378 92.5352 7.73079C93.0076 7.85081 93.1786 8.06791 93.168 8.55329C93.1451 9.76586 93.168 10.9784 93.168 12.1928C93.168 28.9593 93.1598 45.727 93.1434 62.4959C93.1434 66.5908 92.4224 70.5939 91.2502 74.5193C89.5097 80.3907 86.5999 85.8484 82.696 90.5633C78.8489 95.2404 74.1165 99.11 68.7708 101.949C64.7834 104.085 60.4972 105.607 56.0567 106.463C51.768 107.289 47.3868 107.527 43.034 107.169C39.565 106.902 36.1362 106.251 32.8105 105.227C22.1512 101.878 13.0669 94.7719 7.24286 85.2259C5.4132 82.2501 3.89377 79.1136 2.89962 75.7601C2.19455 73.3632 1.4983 70.9363 1.12108 68.4723C0.763337 65.9622 0.59306 63.4288 0.61167 60.8933C0.571128 43.5308 0.59228 26.1682 0.576416 8.80569C0.576416 8.15616 0.71743 7.81551 1.41016 7.6549C2.76037 7.34425 4.08238 6.91535 5.42025 6.55176C5.6573 6.50321 5.89953 6.48483 6.14118 6.49704C7.92501 6.49704 9.71413 6.57117 11.4944 6.47586C13.1214 6.39291 14.6302 6.81298 16.1532 7.23659C16.7472 7.40426 17.3307 7.61783 17.9335 7.73962C18.4306 7.84022 18.5557 8.09262 18.5504 8.56741C18.5346 9.80293 18.3371 9.78528 19.7473 9.78351H34.8851C35.9181 9.78351 35.9851 9.76057 35.9163 8.7598C35.8634 8.03438 36.1402 7.70079 36.7976 7.46251C37.709 7.14127 38.5956 6.74238 39.4734 6.33466C40.2884 5.94103 41.1891 5.75894 42.0927 5.80515C42.9741 5.85104 43.8554 5.8228 44.7367 5.80515C45.5775 5.79103 45.8173 5.40096 46.2509 4.72672C46.9154 3.68889 46.6704 2.6087 46.7145 1.53909C46.7164 1.45154 46.7247 1.36423 46.7391 1.27787C46.7391 1.2408 46.7903 1.21256 46.8185 1.17903L47.0494 1.16138ZM46.8572 15.8111C33.8804 15.8111 20.9024 15.8111 7.92325 15.8111C6.96083 15.8111 6.92205 15.8446 6.92381 16.6742C6.92381 31.6098 6.93263 46.5454 6.95025 61.481C6.9843 63.5487 7.14974 65.612 7.44557 67.6586C7.77166 70.172 8.47144 72.6007 9.34397 74.9888C10.6298 78.5369 12.4262 81.878 14.6761 84.9064C17.5003 88.7269 20.9834 92.0114 24.9613 94.6052C29.0813 97.3064 33.6765 99.1992 38.5022 100.183C43.6754 101.239 49.0017 101.303 54.1988 100.372C61.0045 99.1696 67.0663 96.3297 72.4002 91.9506C79.5 86.0867 84.348 77.9378 86.1173 68.8941C86.6761 66.0966 86.8224 63.2461 86.8224 60.4079C86.8306 45.9135 86.8306 31.4186 86.8224 16.923C86.8224 15.834 86.8065 15.8164 85.7172 15.8164L46.8572 15.8111Z" fill="white"/>
<path d="M48.2375 71.494C48.7804 71.2168 49.318 70.9274 49.8679 70.6626C52.1894 69.5471 54.6695 68.9311 57.1742 68.4281C62.3918 67.3779 67.6727 66.8961 72.9837 66.7054C74.6565 66.6454 76.3328 66.6119 78.0038 66.5784C78.7864 66.5625 78.8199 66.6119 78.7282 67.475C78.3757 67.505 78.0108 67.5491 77.6424 67.5668C73.5883 67.768 69.5341 67.8527 65.5064 68.1916C61.1385 68.5587 56.8058 69.2506 52.6248 70.6467C51.5019 71.0209 50.432 71.5575 49.3497 72.0464C49.1735 72.1223 49.0783 72.3412 48.9461 72.493C49.1311 72.5689 49.3162 72.7136 49.5013 72.7136C58.954 72.7136 68.4066 72.7071 77.8592 72.6942C78.7564 72.6942 78.7547 72.6942 78.7512 73.6208C78.7512 74.3268 78.73 75.0328 78.7512 75.7388C78.767 76.1819 78.5749 76.3231 78.1659 76.3107C77.2194 76.2807 76.2728 76.2578 75.3245 76.2578C56.0679 76.2578 36.8095 76.2578 17.5493 76.2578C16.8671 76.2578 16.185 76.2683 15.5028 76.2966C15.1168 76.3142 14.9335 76.1907 14.9476 75.7759C14.974 74.9163 14.9881 74.055 14.9758 73.1954C14.9758 72.8071 15.152 72.6924 15.4922 72.6995C16.021 72.7101 16.5498 72.6995 17.0786 72.6995C26.0471 72.6995 35.0156 72.6995 43.9841 72.6995C44.2961 72.6995 44.6099 72.6589 44.9219 72.6359C44.9483 72.5653 44.973 72.493 44.9977 72.4224C44.7847 72.2382 44.5598 72.0683 44.3243 71.914C42.4647 70.855 40.4341 70.2637 38.3788 69.7642C33.3323 68.5393 28.1994 67.9339 23.0171 67.7186C20.5494 67.6162 18.0816 67.5544 15.6244 67.4503C15.3847 67.4397 15.0057 67.3197 14.9458 67.1555C14.803 66.7708 14.8982 66.4195 15.4746 66.4495C16.356 66.4989 17.2373 66.4866 18.1186 66.5431C22.4442 66.8255 26.7839 66.9967 31.0937 67.4485C35.0773 67.8651 39.0257 68.6152 42.789 70.0819C43.3637 70.3061 43.9119 70.592 44.4742 70.8444C44.6222 70.9097 44.7809 70.9556 44.9342 71.0103L45.0488 70.8815C44.8858 70.6472 44.7092 70.4227 44.52 70.209C42.4806 68.1298 39.9934 66.7178 37.3812 65.5176C32.5638 63.3042 27.4643 62.1729 22.2221 61.6893C20.0752 61.4916 17.9142 61.458 15.7584 61.3504L15.0005 61.3115C14.8383 60.392 14.8665 60.3178 15.6667 60.3672C18.5646 60.5473 21.4624 60.7444 24.3603 60.9585C25.3139 61.0291 25.3967 60.9585 25.5219 60.0266C26.0031 56.4471 27.1083 53.0901 29.1741 50.0877C31.5866 46.5151 35.0303 43.7646 39.0451 42.2034C43.6281 40.3995 48.3168 40.1718 53.0302 41.6068C58.5579 43.2889 62.7584 46.6742 65.6263 51.7186C67.1686 54.4297 67.9794 57.3544 68.2809 60.4326C68.3408 61.0415 68.5611 61.1103 69.1269 61.0662C72.1323 60.835 75.1412 60.6602 78.1501 60.4749C78.4744 60.4537 78.8217 60.4078 78.8111 60.9497C78.8005 61.4916 78.492 61.4616 78.106 61.4616C73.2869 61.4616 68.5259 61.9293 63.8283 63.0695C60.0157 63.9961 56.3528 65.3058 53.0196 67.3903C51.4614 68.3646 50.0548 69.586 48.5935 70.7138C48.3873 70.8727 48.2621 71.1374 48.0982 71.3545L48.2375 71.494ZM46.5999 65.7876C47.9625 65.7876 49.3268 65.777 50.6911 65.7876C51.2323 65.7876 51.4226 65.5511 51.4191 65.0234C51.4038 62.9312 51.4038 60.8385 51.4191 58.7452C51.4191 58.1874 51.1741 57.9174 50.6365 57.9174C47.9537 57.9174 45.2709 57.9239 42.5881 57.9368C42.0699 57.9368 41.8354 58.191 41.8372 58.7152C41.8466 60.8085 41.8466 62.9018 41.8372 64.9951C41.8372 65.5599 42.0963 65.7876 42.6427 65.7841C43.9612 65.7806 45.2797 65.7876 46.5999 65.7876ZM46.6317 56.9749V56.9396C47.9308 56.9396 49.2316 56.9078 50.529 56.9537C51.1247 56.9749 51.2781 56.7031 51.234 56.2106C51.1653 55.404 51.1001 54.5956 50.9784 53.7978C50.7493 52.3064 50.4391 50.8273 50.2452 49.3323C50.1553 48.6422 49.8292 48.4286 49.2087 48.4322C47.446 48.4392 45.6834 48.4392 43.9207 48.4322C43.4148 48.4322 43.0746 48.5839 42.9812 49.1382C42.8366 49.9818 42.6286 50.8149 42.5141 51.6622C42.3096 53.2313 42.1615 54.8057 41.9853 56.3783C41.9359 56.8284 42.1298 57.0013 42.5969 56.9925C43.9471 56.959 45.2903 56.9749 46.6317 56.9749ZM41.7914 49.2229C41.8108 48.8787 41.6151 48.681 40.9893 48.8505C39.5105 49.2494 38.0527 49.733 36.5827 50.1354C35.8177 50.3472 35.4228 50.8414 35.2254 51.5757C34.7072 53.496 34.1678 55.4128 33.6531 57.3314C33.5315 57.7797 33.6848 57.9262 34.1607 57.8609C36.1667 57.6032 38.1744 57.3679 40.1838 57.1549C40.702 57.1002 40.9312 56.876 40.9559 56.3712C40.9823 55.7782 41.0052 55.1816 41.0792 54.5939C41.2872 52.8871 41.527 51.1856 41.7914 49.2229ZM59.5944 57.6562C59.5944 57.3385 59.6631 56.9837 59.5821 56.6642C59.2013 55.1604 58.8364 53.6496 58.3482 52.1811C58.1419 51.558 58.1049 50.7214 57.2906 50.4584C55.5855 49.9077 53.8757 49.3747 52.1612 48.8593C51.6324 48.6987 51.4561 48.9193 51.5601 49.4665C51.8139 50.8608 52.0748 52.257 52.2652 53.6602C52.385 54.5427 52.3551 55.4587 52.4503 56.3536C52.4732 56.5672 52.6918 56.8831 52.8733 56.9307C53.4745 57.0448 54.0819 57.1226 54.6924 57.1637C56.2841 57.3279 57.8916 57.4867 59.5785 57.6562H59.5944ZM52.4538 61.7987H52.4626C52.4626 62.8577 52.4626 63.9167 52.4626 64.9669C52.4626 65.597 52.616 65.6729 53.1677 65.4311C55.2829 64.4886 57.3981 63.5337 59.5415 62.6441C59.9751 62.4676 60.1479 62.2452 60.1355 61.8393C60.1109 61.0256 60.0844 60.2102 60.0016 59.4C59.9763 59.2911 59.9249 59.1899 59.8518 59.1054C59.7787 59.0208 59.6861 58.9553 59.5821 58.9146C58.6619 58.7381 57.733 58.5969 56.8023 58.4857C55.6107 58.3445 54.4139 58.2598 53.2241 58.1151C52.6953 58.0498 52.4362 58.1821 52.4485 58.7628C52.4608 59.7742 52.445 60.7873 52.445 61.7987H52.4538ZM40.7108 65.7629C40.7509 65.5351 40.7791 65.3053 40.7955 65.0746C40.7955 62.9848 40.7955 60.895 40.806 58.8052C40.806 58.2616 40.6033 58.0286 40.0622 58.0992C37.9928 58.3657 35.9217 58.6181 33.8576 58.9146C33.7449 58.9558 33.6438 59.0237 33.5631 59.1126C33.4823 59.2014 33.4243 59.3085 33.394 59.4247C33.2935 60.1184 33.3094 60.8279 33.2177 61.5251C33.1278 62.2576 33.4768 62.57 34.1237 62.81C35.4563 63.3042 36.7677 63.8585 38.0686 64.4356C38.9217 64.8151 39.7414 65.2758 40.702 65.7629H40.7108ZM53.4338 42.9941C53.6166 43.2508 53.8207 43.4917 54.0437 43.7142C55.727 45.1399 57.1007 46.8957 58.0803 48.8734C58.4313 49.5598 58.9972 50.1121 59.6913 50.446C62.0375 51.6816 64.0857 53.2701 65.6104 55.4852C65.7535 55.6598 65.9084 55.8243 66.074 55.9776C66.705 52.384 57.4175 42.8194 53.425 42.9924L53.4338 42.9941ZM39.6603 43.2165C36.1103 43.4354 27.8222 51.6604 28.3792 54.2638C28.5094 54.1804 28.6326 54.0866 28.7476 53.9832C30.3134 52.3638 32.1449 51.0254 34.1625 50.026C34.5779 49.7805 34.9177 49.4251 35.1443 48.9987C36.2354 47.066 37.4957 45.2763 39.1773 43.8078C39.3512 43.6216 39.5125 43.4241 39.6603 43.2165V43.2165ZM33.7712 51.5121C33.6363 51.5323 33.504 51.5666 33.3764 51.6145C31.4762 52.7529 29.7117 54.0855 28.4867 55.9476C27.7975 57.0066 27.3621 58.2157 26.8333 59.3682C26.7928 59.5319 26.8122 59.7048 26.8879 59.8554C26.9091 59.9048 27.1453 59.9295 27.2317 59.8783C28.7053 58.9958 30.341 58.5952 31.975 58.1733C32.067 58.1298 32.148 58.0661 32.2121 57.987C32.2762 57.9078 32.3217 57.8153 32.3452 57.7162C32.7964 55.8929 33.2265 54.0643 33.6513 52.2446C33.6989 52.0381 33.7218 51.8298 33.7747 51.5086L33.7712 51.5121ZM59.9258 51.5792L59.6702 51.7557C59.7336 52.0769 59.7883 52.3982 59.8623 52.7159C60.1972 54.1173 60.5551 55.5134 60.867 56.9202C61.1103 58.0127 61.2196 58.0745 62.0198 58.2545C63.2308 58.5281 64.3959 58.9958 65.5857 59.3682C65.7852 59.4104 65.9883 59.4329 66.1921 59.4353C66.2104 59.2475 66.2027 59.058 66.1692 58.8723C65.5935 57.0802 64.557 55.4713 63.1638 54.2073C62.1432 53.2701 61.0133 52.4493 59.9311 51.5757L59.9258 51.5792ZM48.7839 47.3025C49.2158 47.3467 49.7851 47.3343 49.5542 46.7201C49.0536 45.3928 48.5548 44.0337 47.8144 42.837C47.0741 41.6403 46.0694 41.7621 45.2832 42.9818C45.1699 43.1444 45.0714 43.3169 44.9889 43.4972C44.5746 44.4891 44.1604 45.481 43.7656 46.4818C43.4765 47.2125 43.614 47.3943 44.4001 47.3325C45.1422 47.2743 45.8825 47.1349 46.6229 47.1278C47.3632 47.1207 48.063 47.2408 48.7839 47.3025ZM56.6366 48.8769L56.7794 48.7004C56.6365 48.4154 56.477 48.139 56.3017 47.8726C55.7482 47.1349 55.1912 46.3971 54.6007 45.6911C53.3259 44.193 51.6954 43.0398 49.8591 42.3375C49.7023 42.2758 49.4943 42.3375 49.3109 42.3499C49.3003 42.5174 49.3134 42.6855 49.3497 42.8494C49.8926 44.2614 50.4391 45.6734 51.0172 47.0696C51.0702 47.1776 51.1443 47.2739 51.2351 47.3528C51.3259 47.4316 51.4317 47.4913 51.546 47.5285C52.6424 47.8232 53.7529 48.058 54.8528 48.3439C55.4503 48.4904 56.0408 48.6969 56.6366 48.8787V48.8769ZM36.632 48.5469L36.773 48.7234C36.9413 48.7213 37.1093 48.7065 37.2754 48.6793C38.5903 48.3616 39.9 48.0209 41.2185 47.7191C41.9007 47.5638 42.2426 47.2231 42.4524 46.503C42.8049 45.2922 43.3654 44.1414 43.8308 42.9623C43.9015 42.757 43.9603 42.5478 44.007 42.3358C43.7801 42.3315 43.5537 42.3576 43.3337 42.4134C40.9559 43.3648 39.1033 44.9851 37.6262 47.0431C37.2719 47.5285 36.9616 48.0456 36.632 48.5486V48.5469ZM46.5136 70.4244C47.721 69.3989 48.8579 68.4422 49.979 67.4697C50.1077 67.3567 50.1553 67.1449 50.2363 66.979C50.0678 66.9043 49.8899 66.8527 49.7075 66.8255C47.6205 66.8102 45.5335 66.8031 43.4465 66.8043C43.1927 66.8272 42.9407 66.8667 42.6921 66.9225L46.5136 70.4244ZM65.5276 60.8756C65.5276 60.7926 65.5187 60.7097 65.5135 60.6267C64.2796 59.9595 62.9382 59.6083 61.5809 59.3135C61.4593 59.2871 61.1314 59.5977 61.1244 59.7618C61.1175 60.3568 61.1475 60.9516 61.2143 61.5428C61.2495 61.9487 61.4699 62.044 61.8594 61.9258C62.5486 61.7193 63.2555 61.5622 63.9482 61.3662C64.4788 61.218 65.0023 61.0397 65.5276 60.8756ZM32.1337 59.9331C32.2764 59.4883 32.1072 59.2906 31.6577 59.4388C30.6248 59.7777 29.5901 60.1184 28.5642 60.4837C28.4921 60.5182 28.4296 60.5702 28.3825 60.6349C28.3355 60.6996 28.3052 60.775 28.2946 60.8544C28.3139 60.9744 28.5096 61.1138 28.6471 61.1562C29.5707 61.421 30.5014 61.6522 31.4268 61.9116C31.9169 62.0493 32.1319 61.8852 32.1319 61.3821C32.1319 60.8791 32.1337 60.4149 32.1337 59.9331Z" fill="white"/>
<path d="M46.8608 34.4269C46.332 33.239 46.0605 31.8252 45.2197 30.9639C44.3789 30.1026 42.9899 29.8219 41.8936 29.3118C42.9917 28.9588 44.4776 28.9288 45.2268 27.7374C45.9125 26.6484 46.302 25.3741 46.6986 24.4651C47.06 25.3476 47.4284 26.5602 48.0435 27.6421C48.7098 28.8035 50.06 29.0012 51.3062 29.4495C48.4172 29.9331 46.9947 31.6823 46.8608 34.4269Z" fill="white"/>
<path d="M40.1784 88.8161C40.1696 90.0022 39.5086 90.8388 38.3135 91.1318C37.9134 91.2289 37.552 91.2977 37.4516 91.8043C37.4286 91.9207 37.1096 92.0478 36.9228 92.0443C36.7817 92.0443 36.6407 91.8519 36.505 91.7354C36.2935 91.5589 36.1154 91.2642 35.8757 91.2059C34.5149 90.8388 33.8134 90.0692 33.8081 88.8408C33.8081 87.4976 34.418 86.7069 35.8017 86.3433C36.1542 86.2497 36.4733 86.2038 36.579 85.7626C36.609 85.6443 36.8734 85.512 37.0285 85.512C37.1836 85.512 37.4445 85.6602 37.4639 85.7732C37.5326 86.2003 37.8164 86.2533 38.1549 86.3433C39.5509 86.7069 40.189 87.5064 40.1784 88.8161ZM37.5009 88.7578C37.5009 89.1744 37.4886 89.5909 37.5009 90.0075C37.5133 90.3216 37.6507 90.5052 38.0121 90.3887C38.5814 90.2034 38.9939 89.5309 39.0009 88.7525C39.0009 88.0006 38.6167 87.3688 38.0473 87.1746C37.7177 87.0634 37.5185 87.1746 37.5044 87.51C37.485 87.9247 37.5027 88.3413 37.5009 88.7578ZM36.4979 88.7402H36.5103C36.5103 88.3466 36.5209 87.9512 36.5103 87.5576C36.4979 87.2046 36.3481 87.0193 35.9603 87.157C35.3875 87.3599 34.9909 87.983 34.9732 88.7296C34.9556 89.4762 35.3399 90.1081 35.9057 90.3305C36.2494 90.4646 36.4786 90.3816 36.4979 89.9898C36.5173 89.598 36.4979 89.1567 36.4979 88.7402Z" fill="white"/>
<path d="M42.9211 89.6243L45.4769 85.7041C46.3759 85.5276 46.457 85.5894 46.4587 86.6237C46.4587 88.1469 46.4429 89.6702 46.4728 91.1916C46.4728 91.7211 46.2878 91.8676 45.7801 91.8729C45.2266 91.8729 45.1843 91.5976 45.1949 91.1669C45.2161 90.3515 45.2072 89.5343 45.1949 88.7188C45.1949 88.4894 45.1597 88.2599 45.1403 88.0304L44.964 87.981C44.8159 88.2264 44.6696 88.4735 44.518 88.7153C43.8993 89.7002 43.3053 90.7027 42.6373 91.6523C42.5156 91.8288 42.0873 91.8429 41.8106 91.8288C41.6872 91.8182 41.4933 91.5305 41.4915 91.3664C41.4651 89.6243 41.4739 87.8804 41.4651 86.1383C41.4651 85.6936 41.7401 85.6565 42.082 85.6618C42.424 85.6671 42.6884 85.7306 42.6813 86.1666C42.6655 87.0491 42.6655 87.9316 42.6672 88.8141C42.6672 89.0665 42.6954 89.3189 42.7113 89.5713L42.9211 89.6243Z" fill="white"/>
<path d="M47.9871 88.7471C47.9871 87.8875 47.9977 87.028 47.9871 86.1684C47.9871 85.8013 48.1193 85.6548 48.4877 85.6565C49.6757 85.6654 50.8638 85.6671 52.0518 85.6477C52.5119 85.6477 52.674 85.833 52.6705 86.2796C52.6564 87.9528 52.6529 89.6331 52.6705 91.3028C52.6705 91.7494 52.4766 91.8747 52.0712 91.8676C51.6658 91.8606 51.3855 91.8412 51.3961 91.3152C51.419 89.9932 51.3838 88.6677 51.4172 87.3492C51.4331 86.7155 51.1899 86.4473 50.5659 86.5055C50.4583 86.5161 50.3473 86.5055 50.2363 86.5055C49.3038 86.5055 49.2615 86.5532 49.2597 87.4727C49.2597 88.7506 49.2386 90.0285 49.2597 91.3064C49.2597 91.7635 49.0658 91.8729 48.6657 91.8659C48.2656 91.8588 47.9694 91.8659 47.9871 91.3223C48.017 90.4645 47.9959 89.6031 47.9959 88.7453L47.9871 88.7471Z" fill="white"/>
<path d="M58.9844 88.7806C58.9844 89.6172 58.9562 90.4556 58.995 91.2904C59.0161 91.7405 58.8522 91.8729 58.4344 91.8694C58.0167 91.8658 57.7417 91.8235 57.7699 91.3081C57.7946 90.8263 57.7593 90.3409 57.7699 89.8555C57.7805 89.3701 57.5936 89.1707 57.1018 89.176C55.1629 89.1954 55.4943 89.0683 55.4625 90.7257C55.451 90.902 55.451 91.0788 55.4625 91.2552C55.5154 91.7141 55.3233 91.8817 54.865 91.8764C54.4067 91.8711 54.1828 91.7864 54.1917 91.2552C54.2216 89.5819 54.2181 87.9016 54.1917 86.2354C54.1917 85.7359 54.4067 85.6459 54.8262 85.6512C55.2457 85.6565 55.5101 85.7077 55.4731 86.2213C55.4396 86.7032 55.4731 87.1903 55.4731 87.6739C55.4731 88.0605 55.6494 88.2387 56.0284 88.2493C58.0255 88.3005 57.7734 88.274 57.7769 86.6432C57.7769 85.7024 57.8563 85.6089 58.5472 85.6512C58.8839 85.6706 58.995 85.803 58.9861 86.1454C58.9615 87.0279 58.9773 87.9104 58.9773 88.7824L58.9844 88.7806Z" fill="white"/>
<path d="M62.7036 35.4327C61.0572 34.5802 59.5766 34.8273 58.2845 36.3153C58.9896 34.6544 58.8345 33.1894 57.5671 31.8374C59.3298 32.6034 60.7505 32.1251 61.9738 30.7537C61.8469 31.6362 61.5543 32.4551 61.6706 33.2035C61.787 33.9519 62.3193 34.6402 62.7036 35.4327Z" fill="white"/>
<path d="M35.8159 31.5164C34.6102 32.8878 34.4498 34.321 35.1954 35.9625C33.8276 34.5628 32.317 34.118 30.4944 35.1823C31.9944 33.7703 32.1689 32.2135 31.3264 30.4167C32.6255 31.594 33.9669 32.4306 35.8159 31.5164Z" fill="white"/>
<path d="M68.279 40.2883C68.0234 40.8937 67.6779 41.4144 67.6021 41.9704C67.5299 42.4999 67.7414 43.0647 67.8524 43.7566C66.8971 42.7576 65.8518 42.5634 64.625 43.1388C65.427 42.1733 65.4552 41.1726 65.0815 40.02C66.1004 40.8743 67.1738 40.8866 68.279 40.2883Z" fill="white"/>
<path d="M25.5271 43.3367C26.1582 42.1524 25.9872 41.0986 25.0212 40.0379C25.6893 40.1738 26.2146 40.3909 26.7187 40.352C27.2228 40.3132 27.7446 40.0237 28.3633 39.8066C28.0319 40.848 27.9878 41.8664 28.8092 42.8072C27.556 42.1841 26.5266 42.4718 25.5271 43.3367Z" fill="white"/>
<path d="M22.231 49.5478L23.6305 48.0669L24.778 49.3165C24.4096 49.8054 23.9936 50.3614 23.5741 50.9209C23.419 50.2573 23.033 49.6537 22.231 49.5478Z" fill="white"/>
<path d="M68.8291 49.8424L70.0312 48.7022L69.7475 48.3933C70.2375 48.8699 70.7293 49.3447 71.1153 49.7171L69.7633 51.115L68.8291 49.8424Z" fill="white"/>
<path d="M109.776 14.7344V19H109.208L107.061 15.71V19H106.495V14.7344H107.061L109.217 18.0332V14.7344H109.776ZM113.065 18.458V16.8262C113.065 16.7012 113.04 16.5928 112.989 16.501C112.94 16.4072 112.866 16.335 112.767 16.2842C112.667 16.2334 112.544 16.208 112.397 16.208C112.261 16.208 112.141 16.2314 112.037 16.2783C111.936 16.3252 111.855 16.3867 111.797 16.4629C111.74 16.5391 111.712 16.6211 111.712 16.709H111.17C111.17 16.5957 111.199 16.4834 111.258 16.3721C111.316 16.2607 111.4 16.1602 111.51 16.0703C111.621 15.9785 111.754 15.9062 111.908 15.8535C112.064 15.7988 112.238 15.7715 112.43 15.7715C112.66 15.7715 112.863 15.8105 113.039 15.8887C113.217 15.9668 113.355 16.085 113.455 16.2432C113.557 16.3994 113.607 16.5957 113.607 16.832V18.3086C113.607 18.4141 113.616 18.5264 113.634 18.6455C113.653 18.7646 113.682 18.8672 113.719 18.9531V19H113.153C113.126 18.9375 113.104 18.8545 113.089 18.751C113.073 18.6455 113.065 18.5479 113.065 18.458ZM113.159 17.0781L113.165 17.459H112.617C112.463 17.459 112.325 17.4717 112.204 17.4971C112.083 17.5205 111.981 17.5566 111.899 17.6055C111.817 17.6543 111.755 17.7158 111.712 17.79C111.669 17.8623 111.647 17.9473 111.647 18.0449C111.647 18.1445 111.67 18.2354 111.715 18.3174C111.76 18.3994 111.827 18.4648 111.917 18.5137C112.009 18.5605 112.121 18.584 112.254 18.584C112.42 18.584 112.566 18.5488 112.693 18.4785C112.82 18.4082 112.921 18.3223 112.995 18.2207C113.071 18.1191 113.112 18.0205 113.118 17.9248L113.35 18.1855C113.336 18.2676 113.299 18.3584 113.238 18.458C113.178 18.5576 113.097 18.6533 112.995 18.7451C112.896 18.835 112.776 18.9102 112.638 18.9707C112.501 19.0293 112.347 19.0586 112.175 19.0586C111.96 19.0586 111.771 19.0166 111.609 18.9326C111.449 18.8486 111.324 18.7363 111.234 18.5957C111.146 18.4531 111.103 18.2939 111.103 18.1182C111.103 17.9482 111.136 17.7988 111.202 17.6699C111.269 17.5391 111.364 17.4307 111.489 17.3447C111.614 17.2568 111.765 17.1904 111.94 17.1455C112.116 17.1006 112.312 17.0781 112.529 17.0781H113.159ZM116.287 15.8301V16.2461H114.573V15.8301H116.287ZM115.153 15.0596H115.695V18.2148C115.695 18.3223 115.712 18.4033 115.745 18.458C115.778 18.5127 115.821 18.5488 115.874 18.5664C115.927 18.584 115.983 18.5928 116.044 18.5928C116.089 18.5928 116.136 18.5889 116.185 18.5811C116.235 18.5713 116.273 18.5635 116.299 18.5576L116.302 19C116.259 19.0137 116.202 19.0264 116.132 19.0381C116.063 19.0518 115.98 19.0586 115.883 19.0586C115.75 19.0586 115.628 19.0322 115.517 18.9795C115.405 18.9268 115.316 18.8389 115.25 18.7158C115.186 18.5908 115.153 18.4229 115.153 18.2119V15.0596ZM118.012 15.8301V19H117.467V15.8301H118.012ZM117.426 14.9893C117.426 14.9014 117.452 14.8271 117.505 14.7666C117.56 14.7061 117.64 14.6758 117.745 14.6758C117.849 14.6758 117.928 14.7061 117.982 14.7666C118.039 14.8271 118.067 14.9014 118.067 14.9893C118.067 15.0732 118.039 15.1455 117.982 15.2061C117.928 15.2646 117.849 15.2939 117.745 15.2939C117.64 15.2939 117.56 15.2646 117.505 15.2061C117.452 15.1455 117.426 15.0732 117.426 14.9893ZM119.238 17.4502V17.3828C119.238 17.1543 119.271 16.9424 119.338 16.7471C119.404 16.5498 119.5 16.3789 119.625 16.2344C119.75 16.0879 119.901 15.9746 120.079 15.8945C120.257 15.8125 120.456 15.7715 120.677 15.7715C120.899 15.7715 121.1 15.8125 121.277 15.8945C121.457 15.9746 121.609 16.0879 121.734 16.2344C121.861 16.3789 121.958 16.5498 122.024 16.7471C122.091 16.9424 122.124 17.1543 122.124 17.3828V17.4502C122.124 17.6787 122.091 17.8906 122.024 18.0859C121.958 18.2812 121.861 18.4521 121.734 18.5986C121.609 18.7432 121.458 18.8564 121.28 18.9385C121.104 19.0186 120.905 19.0586 120.683 19.0586C120.46 19.0586 120.26 19.0186 120.082 18.9385C119.904 18.8564 119.752 18.7432 119.625 18.5986C119.5 18.4521 119.404 18.2812 119.338 18.0859C119.271 17.8906 119.238 17.6787 119.238 17.4502ZM119.78 17.3828V17.4502C119.78 17.6084 119.799 17.7578 119.836 17.8984C119.873 18.0371 119.929 18.1602 120.003 18.2676C120.079 18.375 120.174 18.46 120.287 18.5225C120.4 18.583 120.532 18.6133 120.683 18.6133C120.831 18.6133 120.961 18.583 121.072 18.5225C121.186 18.46 121.279 18.375 121.354 18.2676C121.428 18.1602 121.483 18.0371 121.521 17.8984C121.56 17.7578 121.579 17.6084 121.579 17.4502V17.3828C121.579 17.2266 121.56 17.0791 121.521 16.9404C121.483 16.7998 121.427 16.6758 121.351 16.5684C121.276 16.459 121.183 16.373 121.069 16.3105C120.958 16.248 120.827 16.2168 120.677 16.2168C120.528 16.2168 120.397 16.248 120.284 16.3105C120.173 16.373 120.079 16.459 120.003 16.5684C119.929 16.6758 119.873 16.7998 119.836 16.9404C119.799 17.0791 119.78 17.2266 119.78 17.3828ZM123.846 16.5068V19H123.304V15.8301H123.816L123.846 16.5068ZM123.717 17.2949L123.491 17.2861C123.493 17.0693 123.525 16.8691 123.588 16.6855C123.65 16.5 123.738 16.3389 123.852 16.2021C123.965 16.0654 124.1 15.96 124.256 15.8857C124.414 15.8096 124.589 15.7715 124.78 15.7715C124.937 15.7715 125.077 15.793 125.202 15.8359C125.327 15.877 125.434 15.9434 125.521 16.0352C125.611 16.127 125.68 16.2461 125.727 16.3926C125.773 16.5371 125.797 16.7139 125.797 16.9229V19H125.252V16.917C125.252 16.751 125.228 16.6182 125.179 16.5186C125.13 16.417 125.059 16.3438 124.965 16.2988C124.871 16.252 124.756 16.2285 124.619 16.2285C124.484 16.2285 124.361 16.2568 124.25 16.3135C124.141 16.3701 124.046 16.4482 123.966 16.5479C123.888 16.6475 123.826 16.7617 123.781 16.8906C123.738 17.0176 123.717 17.1523 123.717 17.2949ZM128.989 18.458V16.8262C128.989 16.7012 128.964 16.5928 128.913 16.501C128.864 16.4072 128.79 16.335 128.69 16.2842C128.591 16.2334 128.468 16.208 128.321 16.208C128.185 16.208 128.064 16.2314 127.961 16.2783C127.859 16.3252 127.779 16.3867 127.721 16.4629C127.664 16.5391 127.636 16.6211 127.636 16.709H127.094C127.094 16.5957 127.123 16.4834 127.182 16.3721C127.24 16.2607 127.324 16.1602 127.434 16.0703C127.545 15.9785 127.678 15.9062 127.832 15.8535C127.988 15.7988 128.162 15.7715 128.354 15.7715C128.584 15.7715 128.787 15.8105 128.963 15.8887C129.141 15.9668 129.279 16.085 129.379 16.2432C129.48 16.3994 129.531 16.5957 129.531 16.832V18.3086C129.531 18.4141 129.54 18.5264 129.558 18.6455C129.577 18.7646 129.605 18.8672 129.643 18.9531V19H129.077C129.05 18.9375 129.028 18.8545 129.013 18.751C128.997 18.6455 128.989 18.5479 128.989 18.458ZM129.083 17.0781L129.089 17.459H128.541C128.387 17.459 128.249 17.4717 128.128 17.4971C128.007 17.5205 127.905 17.5566 127.823 17.6055C127.741 17.6543 127.679 17.7158 127.636 17.79C127.593 17.8623 127.571 17.9473 127.571 18.0449C127.571 18.1445 127.594 18.2354 127.639 18.3174C127.684 18.3994 127.751 18.4648 127.841 18.5137C127.933 18.5605 128.045 18.584 128.178 18.584C128.344 18.584 128.49 18.5488 128.617 18.4785C128.744 18.4082 128.845 18.3223 128.919 18.2207C128.995 18.1191 129.036 18.0205 129.042 17.9248L129.273 18.1855C129.26 18.2676 129.223 18.3584 129.162 18.458C129.102 18.5576 129.021 18.6533 128.919 18.7451C128.819 18.835 128.7 18.9102 128.562 18.9707C128.425 19.0293 128.271 19.0586 128.099 19.0586C127.884 19.0586 127.695 19.0166 127.533 18.9326C127.373 18.8486 127.248 18.7363 127.158 18.5957C127.07 18.4531 127.026 18.2939 127.026 18.1182C127.026 17.9482 127.06 17.7988 127.126 17.6699C127.192 17.5391 127.288 17.4307 127.413 17.3447C127.538 17.2568 127.688 17.1904 127.864 17.1455C128.04 17.1006 128.236 17.0781 128.453 17.0781H129.083ZM131.473 14.5V19H130.928V14.5H131.473ZM106.955 26.3281V29H106.413V25.8301H106.94L106.955 26.3281ZM107.945 25.8125L107.942 26.3164C107.897 26.3066 107.854 26.3008 107.813 26.2988C107.774 26.2949 107.729 26.293 107.679 26.293C107.554 26.293 107.443 26.3125 107.348 26.3516C107.252 26.3906 107.171 26.4453 107.104 26.5156C107.038 26.5859 106.985 26.6699 106.946 26.7676C106.909 26.8633 106.885 26.9688 106.873 27.084L106.721 27.1719C106.721 26.9805 106.739 26.8008 106.776 26.6328C106.815 26.4648 106.875 26.3164 106.955 26.1875C107.035 26.0566 107.137 25.9551 107.26 25.8828C107.385 25.8086 107.533 25.7715 107.705 25.7715C107.744 25.7715 107.789 25.7764 107.84 25.7861C107.891 25.7939 107.926 25.8027 107.945 25.8125ZM110.203 29.0586C109.982 29.0586 109.782 29.0215 109.603 28.9473C109.425 28.8711 109.271 28.7646 109.143 28.6279C109.016 28.4912 108.918 28.3291 108.85 28.1416C108.781 27.9541 108.747 27.749 108.747 27.5264V27.4033C108.747 27.1455 108.785 26.916 108.861 26.7148C108.938 26.5117 109.041 26.3398 109.172 26.1992C109.303 26.0586 109.451 25.9521 109.617 25.8799C109.783 25.8076 109.955 25.7715 110.133 25.7715C110.359 25.7715 110.555 25.8105 110.719 25.8887C110.885 25.9668 111.021 26.0762 111.126 26.2168C111.231 26.3555 111.31 26.5195 111.36 26.709C111.411 26.8965 111.437 27.1016 111.437 27.3242V27.5674H109.069V27.125H110.895V27.084C110.887 26.9434 110.857 26.8066 110.807 26.6738C110.758 26.541 110.68 26.4316 110.572 26.3457C110.465 26.2598 110.318 26.2168 110.133 26.2168C110.01 26.2168 109.896 26.2432 109.793 26.2959C109.689 26.3467 109.601 26.4229 109.526 26.5244C109.452 26.626 109.395 26.75 109.354 26.8965C109.312 27.043 109.292 27.2119 109.292 27.4033V27.5264C109.292 27.6768 109.312 27.8184 109.354 27.9512C109.396 28.082 109.458 28.1973 109.538 28.2969C109.62 28.3965 109.719 28.4746 109.834 28.5312C109.951 28.5879 110.084 28.6162 110.232 28.6162C110.424 28.6162 110.586 28.5771 110.719 28.499C110.852 28.4209 110.968 28.3164 111.067 28.1855L111.396 28.4463C111.327 28.5498 111.24 28.6484 111.135 28.7422C111.029 28.8359 110.899 28.9121 110.745 28.9707C110.593 29.0293 110.412 29.0586 110.203 29.0586ZM114.415 28.1592C114.415 28.0811 114.397 28.0088 114.362 27.9424C114.329 27.874 114.26 27.8125 114.154 27.7578C114.051 27.7012 113.895 27.6523 113.686 27.6113C113.51 27.5742 113.351 27.5303 113.208 27.4795C113.067 27.4287 112.947 27.3672 112.848 27.2949C112.75 27.2227 112.675 27.1377 112.622 27.04C112.569 26.9424 112.543 26.8281 112.543 26.6973C112.543 26.5723 112.57 26.4541 112.625 26.3428C112.682 26.2314 112.761 26.1328 112.862 26.0469C112.966 25.9609 113.09 25.8936 113.234 25.8447C113.379 25.7959 113.54 25.7715 113.718 25.7715C113.972 25.7715 114.188 25.8164 114.368 25.9062C114.548 25.9961 114.686 26.1162 114.781 26.2666C114.877 26.415 114.925 26.5801 114.925 26.7617H114.383C114.383 26.6738 114.356 26.5889 114.304 26.5068C114.253 26.4229 114.178 26.3535 114.078 26.2988C113.98 26.2441 113.86 26.2168 113.718 26.2168C113.567 26.2168 113.445 26.2402 113.352 26.2871C113.26 26.332 113.192 26.3896 113.149 26.46C113.108 26.5303 113.088 26.6045 113.088 26.6826C113.088 26.7412 113.098 26.7939 113.117 26.8408C113.139 26.8857 113.176 26.9277 113.229 26.9668C113.281 27.0039 113.355 27.0391 113.451 27.0723C113.547 27.1055 113.669 27.1387 113.817 27.1719C114.077 27.2305 114.291 27.3008 114.459 27.3828C114.627 27.4648 114.752 27.5654 114.834 27.6846C114.916 27.8037 114.957 27.9482 114.957 28.1182C114.957 28.2568 114.928 28.3838 114.869 28.499C114.812 28.6143 114.729 28.7139 114.62 28.7979C114.513 28.8799 114.384 28.9443 114.233 28.9912C114.085 29.0361 113.918 29.0586 113.732 29.0586C113.453 29.0586 113.217 29.0088 113.023 28.9092C112.83 28.8096 112.684 28.6807 112.584 28.5225C112.484 28.3643 112.435 28.1973 112.435 28.0215H112.979C112.987 28.1699 113.03 28.2881 113.108 28.376C113.187 28.4619 113.282 28.5234 113.396 28.5605C113.509 28.5957 113.621 28.6133 113.732 28.6133C113.881 28.6133 114.005 28.5938 114.104 28.5547C114.206 28.5156 114.283 28.4619 114.336 28.3936C114.389 28.3252 114.415 28.2471 114.415 28.1592ZM117.484 29.0586C117.264 29.0586 117.063 29.0215 116.884 28.9473C116.706 28.8711 116.553 28.7646 116.424 28.6279C116.297 28.4912 116.199 28.3291 116.131 28.1416C116.062 27.9541 116.028 27.749 116.028 27.5264V27.4033C116.028 27.1455 116.066 26.916 116.143 26.7148C116.219 26.5117 116.322 26.3398 116.453 26.1992C116.584 26.0586 116.732 25.9521 116.898 25.8799C117.064 25.8076 117.236 25.7715 117.414 25.7715C117.641 25.7715 117.836 25.8105 118 25.8887C118.166 25.9668 118.302 26.0762 118.407 26.2168C118.513 26.3555 118.591 26.5195 118.642 26.709C118.692 26.8965 118.718 27.1016 118.718 27.3242V27.5674H116.351V27.125H118.176V27.084C118.168 26.9434 118.139 26.8066 118.088 26.6738C118.039 26.541 117.961 26.4316 117.854 26.3457C117.746 26.2598 117.6 26.2168 117.414 26.2168C117.291 26.2168 117.178 26.2432 117.074 26.2959C116.971 26.3467 116.882 26.4229 116.808 26.5244C116.733 26.626 116.676 26.75 116.635 26.8965C116.594 27.043 116.573 27.2119 116.573 27.4033V27.5264C116.573 27.6768 116.594 27.8184 116.635 27.9512C116.678 28.082 116.739 28.1973 116.819 28.2969C116.901 28.3965 117 28.4746 117.115 28.5312C117.232 28.5879 117.365 28.6162 117.514 28.6162C117.705 28.6162 117.867 28.5771 118 28.499C118.133 28.4209 118.249 28.3164 118.349 28.1855L118.677 28.4463C118.608 28.5498 118.521 28.6484 118.416 28.7422C118.311 28.8359 118.181 28.9121 118.026 28.9707C117.874 29.0293 117.693 29.0586 117.484 29.0586ZM121.72 28.458V26.8262C121.72 26.7012 121.694 26.5928 121.644 26.501C121.595 26.4072 121.521 26.335 121.421 26.2842C121.321 26.2334 121.198 26.208 121.052 26.208C120.915 26.208 120.795 26.2314 120.691 26.2783C120.59 26.3252 120.51 26.3867 120.451 26.4629C120.395 26.5391 120.366 26.6211 120.366 26.709H119.824C119.824 26.5957 119.854 26.4834 119.912 26.3721C119.971 26.2607 120.055 26.1602 120.164 26.0703C120.275 25.9785 120.408 25.9062 120.562 25.8535C120.719 25.7988 120.893 25.7715 121.084 25.7715C121.314 25.7715 121.518 25.8105 121.693 25.8887C121.871 25.9668 122.01 26.085 122.109 26.2432C122.211 26.3994 122.262 26.5957 122.262 26.832V28.3086C122.262 28.4141 122.271 28.5264 122.288 28.6455C122.308 28.7646 122.336 28.8672 122.373 28.9531V29H121.808C121.78 28.9375 121.759 28.8545 121.743 28.751C121.728 28.6455 121.72 28.5479 121.72 28.458ZM121.813 27.0781L121.819 27.459H121.271C121.117 27.459 120.979 27.4717 120.858 27.4971C120.737 27.5205 120.636 27.5566 120.554 27.6055C120.472 27.6543 120.409 27.7158 120.366 27.79C120.323 27.8623 120.302 27.9473 120.302 28.0449C120.302 28.1445 120.324 28.2354 120.369 28.3174C120.414 28.3994 120.481 28.4648 120.571 28.5137C120.663 28.5605 120.775 28.584 120.908 28.584C121.074 28.584 121.221 28.5488 121.348 28.4785C121.475 28.4082 121.575 28.3223 121.649 28.2207C121.726 28.1191 121.767 28.0205 121.772 27.9248L122.004 28.1855C121.99 28.2676 121.953 28.3584 121.893 28.458C121.832 28.5576 121.751 28.6533 121.649 28.7451C121.55 28.835 121.431 28.9102 121.292 28.9707C121.155 29.0293 121.001 29.0586 120.829 29.0586C120.614 29.0586 120.426 29.0166 120.264 28.9326C120.104 28.8486 119.979 28.7363 119.889 28.5957C119.801 28.4531 119.757 28.2939 119.757 28.1182C119.757 27.9482 119.79 27.7988 119.856 27.6699C119.923 27.5391 120.019 27.4307 120.144 27.3447C120.269 27.2568 120.419 27.1904 120.595 27.1455C120.771 27.1006 120.967 27.0781 121.184 27.0781H121.813ZM124.156 26.3281V29H123.614V25.8301H124.142L124.156 26.3281ZM125.146 25.8125L125.144 26.3164C125.099 26.3066 125.056 26.3008 125.015 26.2988C124.976 26.2949 124.931 26.293 124.88 26.293C124.755 26.293 124.645 26.3125 124.549 26.3516C124.453 26.3906 124.372 26.4453 124.306 26.5156C124.239 26.5859 124.187 26.6699 124.147 26.7676C124.11 26.8633 124.086 26.9688 124.074 27.084L123.922 27.1719C123.922 26.9805 123.94 26.8008 123.978 26.6328C124.017 26.4648 124.076 26.3164 124.156 26.1875C124.236 26.0566 124.338 25.9551 124.461 25.8828C124.586 25.8086 124.734 25.7715 124.906 25.7715C124.945 25.7715 124.99 25.7764 125.041 25.7861C125.092 25.7939 125.127 25.8027 125.146 25.8125ZM127.357 28.6133C127.486 28.6133 127.605 28.5869 127.715 28.5342C127.824 28.4814 127.914 28.4092 127.984 28.3174C128.055 28.2236 128.095 28.1172 128.104 27.998H128.62C128.61 28.1855 128.547 28.3604 128.43 28.5225C128.314 28.6826 128.163 28.8125 127.976 28.9121C127.788 29.0098 127.582 29.0586 127.357 29.0586C127.119 29.0586 126.911 29.0166 126.733 28.9326C126.558 28.8486 126.411 28.7334 126.294 28.5869C126.179 28.4404 126.092 28.2725 126.033 28.083C125.977 27.8916 125.948 27.6895 125.948 27.4766V27.3535C125.948 27.1406 125.977 26.9395 126.033 26.75C126.092 26.5586 126.179 26.3896 126.294 26.2432C126.411 26.0967 126.558 25.9814 126.733 25.8975C126.911 25.8135 127.119 25.7715 127.357 25.7715C127.605 25.7715 127.822 25.8223 128.008 25.9238C128.193 26.0234 128.339 26.1602 128.444 26.334C128.552 26.5059 128.61 26.7012 128.62 26.9199H128.104C128.095 26.7891 128.058 26.6709 127.993 26.5654C127.931 26.46 127.845 26.376 127.735 26.3135C127.628 26.249 127.502 26.2168 127.357 26.2168C127.191 26.2168 127.052 26.25 126.938 26.3164C126.827 26.3809 126.738 26.4688 126.672 26.5801C126.607 26.6895 126.561 26.8115 126.531 26.9463C126.504 27.0791 126.49 27.2148 126.49 27.3535V27.4766C126.49 27.6152 126.504 27.752 126.531 27.8867C126.559 28.0215 126.604 28.1436 126.669 28.2529C126.735 28.3623 126.824 28.4502 126.936 28.5166C127.049 28.5811 127.189 28.6133 127.357 28.6133ZM130.271 24.5V29H129.729V24.5H130.271ZM130.143 27.2949L129.917 27.2861C129.919 27.0693 129.951 26.8691 130.014 26.6855C130.076 26.5 130.164 26.3389 130.277 26.2021C130.391 26.0654 130.525 25.96 130.682 25.8857C130.84 25.8096 131.015 25.7715 131.206 25.7715C131.362 25.7715 131.503 25.793 131.628 25.8359C131.753 25.877 131.859 25.9434 131.947 26.0352C132.037 26.127 132.105 26.2461 132.152 26.3926C132.199 26.5371 132.223 26.7139 132.223 26.9229V29H131.678V26.917C131.678 26.751 131.653 26.6182 131.604 26.5186C131.556 26.417 131.484 26.3438 131.391 26.2988C131.297 26.252 131.182 26.2285 131.045 26.2285C130.91 26.2285 130.787 26.2568 130.676 26.3135C130.566 26.3701 130.472 26.4482 130.392 26.5479C130.313 26.6475 130.252 26.7617 130.207 26.8906C130.164 27.0176 130.143 27.1523 130.143 27.2949Z" fill="white"/>
<path d="M110.377 44.665V53.1963H108.918V44.665H110.377ZM113.055 44.665V45.8369H106.264V44.665H113.055ZM113.449 50.0967V49.9619C113.449 49.5049 113.516 49.0811 113.648 48.6904C113.781 48.2959 113.973 47.9541 114.223 47.665C114.477 47.3721 114.785 47.1455 115.148 46.9854C115.516 46.8213 115.93 46.7393 116.391 46.7393C116.855 46.7393 117.27 46.8213 117.633 46.9854C118 47.1455 118.311 47.3721 118.564 47.665C118.818 47.9541 119.012 48.2959 119.145 48.6904C119.277 49.0811 119.344 49.5049 119.344 49.9619V50.0967C119.344 50.5537 119.277 50.9775 119.145 51.3682C119.012 51.7588 118.818 52.1006 118.564 52.3936C118.311 52.6826 118.002 52.9092 117.639 53.0732C117.275 53.2334 116.863 53.3135 116.402 53.3135C115.938 53.3135 115.521 53.2334 115.154 53.0732C114.791 52.9092 114.482 52.6826 114.229 52.3936C113.975 52.1006 113.781 51.7588 113.648 51.3682C113.516 50.9775 113.449 50.5537 113.449 50.0967ZM114.861 49.9619V50.0967C114.861 50.3818 114.891 50.6514 114.949 50.9053C115.008 51.1592 115.1 51.3818 115.225 51.5732C115.35 51.7646 115.51 51.915 115.705 52.0244C115.9 52.1338 116.133 52.1885 116.402 52.1885C116.664 52.1885 116.891 52.1338 117.082 52.0244C117.277 51.915 117.438 51.7646 117.562 51.5732C117.688 51.3818 117.779 51.1592 117.838 50.9053C117.9 50.6514 117.932 50.3818 117.932 50.0967V49.9619C117.932 49.6807 117.9 49.415 117.838 49.165C117.779 48.9111 117.686 48.6865 117.557 48.4912C117.432 48.2959 117.271 48.1436 117.076 48.0342C116.885 47.9209 116.656 47.8643 116.391 47.8643C116.125 47.8643 115.895 47.9209 115.699 48.0342C115.508 48.1436 115.35 48.2959 115.225 48.4912C115.1 48.6865 115.008 48.9111 114.949 49.165C114.891 49.415 114.861 49.6807 114.861 49.9619ZM122.439 48.1455V53.1963H121.027V46.8564H122.357L122.439 48.1455ZM122.211 49.792L121.73 49.7861C121.73 49.3486 121.785 48.9443 121.895 48.5732C122.004 48.2021 122.164 47.8799 122.375 47.6064C122.586 47.3291 122.848 47.1162 123.16 46.9678C123.477 46.8154 123.842 46.7393 124.256 46.7393C124.545 46.7393 124.809 46.7822 125.047 46.8682C125.289 46.9502 125.498 47.0811 125.674 47.2607C125.854 47.4404 125.99 47.6709 126.084 47.9521C126.182 48.2334 126.23 48.5732 126.23 48.9717V53.1963H124.818V49.0947C124.818 48.7861 124.771 48.5439 124.678 48.3682C124.588 48.1924 124.457 48.0674 124.285 47.9932C124.117 47.915 123.916 47.876 123.682 47.876C123.416 47.876 123.189 47.9268 123.002 48.0283C122.818 48.1299 122.668 48.2686 122.551 48.4443C122.434 48.6201 122.348 48.8232 122.293 49.0537C122.238 49.2842 122.211 49.5303 122.211 49.792ZM126.143 49.417L125.48 49.5635C125.48 49.1807 125.533 48.8193 125.639 48.4795C125.748 48.1357 125.906 47.835 126.113 47.5771C126.324 47.3154 126.584 47.1104 126.893 46.9619C127.201 46.8135 127.555 46.7393 127.953 46.7393C128.277 46.7393 128.566 46.7842 128.82 46.874C129.078 46.96 129.297 47.0967 129.477 47.2842C129.656 47.4717 129.793 47.7158 129.887 48.0166C129.98 48.3135 130.027 48.6729 130.027 49.0947V53.1963H128.609V49.0889C128.609 48.7686 128.562 48.5205 128.469 48.3447C128.379 48.1689 128.25 48.0479 128.082 47.9814C127.914 47.9111 127.713 47.876 127.479 47.876C127.26 47.876 127.066 47.917 126.898 47.999C126.734 48.0771 126.596 48.1885 126.482 48.333C126.369 48.4736 126.283 48.6357 126.225 48.8193C126.17 49.0029 126.143 49.2021 126.143 49.417ZM135.537 51.4795C135.537 51.3389 135.502 51.2119 135.432 51.0986C135.361 50.9814 135.227 50.876 135.027 50.7822C134.832 50.6885 134.543 50.6025 134.16 50.5244C133.824 50.4502 133.516 50.3623 133.234 50.2607C132.957 50.1553 132.719 50.0283 132.52 49.8799C132.32 49.7314 132.166 49.5557 132.057 49.3525C131.947 49.1494 131.893 48.915 131.893 48.6494C131.893 48.3916 131.949 48.1475 132.062 47.917C132.176 47.6865 132.338 47.4834 132.549 47.3076C132.76 47.1318 133.016 46.9932 133.316 46.8916C133.621 46.79 133.961 46.7393 134.336 46.7393C134.867 46.7393 135.322 46.8291 135.701 47.0088C136.084 47.1846 136.377 47.4248 136.58 47.7295C136.783 48.0303 136.885 48.3701 136.885 48.749H135.473C135.473 48.5811 135.43 48.4248 135.344 48.2803C135.262 48.1318 135.137 48.0127 134.969 47.9229C134.801 47.8291 134.59 47.7822 134.336 47.7822C134.094 47.7822 133.893 47.8213 133.732 47.8994C133.576 47.9736 133.459 48.0713 133.381 48.1924C133.307 48.3135 133.27 48.4463 133.27 48.5908C133.27 48.6963 133.289 48.792 133.328 48.8779C133.371 48.96 133.441 49.0361 133.539 49.1064C133.637 49.1729 133.77 49.2354 133.938 49.2939C134.109 49.3525 134.324 49.4092 134.582 49.4639C135.066 49.5654 135.482 49.6963 135.83 49.8564C136.182 50.0127 136.451 50.2158 136.639 50.4658C136.826 50.7119 136.92 51.0244 136.92 51.4033C136.92 51.6846 136.859 51.9424 136.738 52.1768C136.621 52.4072 136.449 52.6084 136.223 52.7803C135.996 52.9482 135.725 53.0791 135.408 53.1729C135.096 53.2666 134.744 53.3135 134.354 53.3135C133.779 53.3135 133.293 53.2119 132.895 53.0088C132.496 52.8018 132.193 52.5381 131.986 52.2178C131.783 51.8936 131.682 51.5576 131.682 51.21H133.047C133.062 51.4717 133.135 51.6807 133.264 51.8369C133.396 51.9893 133.561 52.1006 133.756 52.1709C133.955 52.2373 134.16 52.2705 134.371 52.2705C134.625 52.2705 134.838 52.2373 135.01 52.1709C135.182 52.1006 135.312 52.0068 135.402 51.8896C135.492 51.7686 135.537 51.6318 135.537 51.4795ZM140.08 44.1963V53.1963H138.662V44.1963H140.08ZM144.018 46.8564L141.258 49.915L139.746 51.4619L139.377 50.2666L140.52 48.8545L142.312 46.8564H144.018ZM142.617 53.1963L140.561 50.2197L141.451 49.2295L144.252 53.1963H142.617ZM110.283 65.4795C110.283 65.3389 110.248 65.2119 110.178 65.0986C110.107 64.9814 109.973 64.876 109.773 64.7822C109.578 64.6885 109.289 64.6025 108.906 64.5244C108.57 64.4502 108.262 64.3623 107.98 64.2607C107.703 64.1553 107.465 64.0283 107.266 63.8799C107.066 63.7314 106.912 63.5557 106.803 63.3525C106.693 63.1494 106.639 62.915 106.639 62.6494C106.639 62.3916 106.695 62.1475 106.809 61.917C106.922 61.6865 107.084 61.4834 107.295 61.3076C107.506 61.1318 107.762 60.9932 108.062 60.8916C108.367 60.79 108.707 60.7393 109.082 60.7393C109.613 60.7393 110.068 60.8291 110.447 61.0088C110.83 61.1846 111.123 61.4248 111.326 61.7295C111.529 62.0303 111.631 62.3701 111.631 62.749H110.219C110.219 62.5811 110.176 62.4248 110.09 62.2803C110.008 62.1318 109.883 62.0127 109.715 61.9229C109.547 61.8291 109.336 61.7822 109.082 61.7822C108.84 61.7822 108.639 61.8213 108.479 61.8994C108.322 61.9736 108.205 62.0713 108.127 62.1924C108.053 62.3135 108.016 62.4463 108.016 62.5908C108.016 62.6963 108.035 62.792 108.074 62.8779C108.117 62.96 108.188 63.0361 108.285 63.1064C108.383 63.1729 108.516 63.2354 108.684 63.2939C108.855 63.3525 109.07 63.4092 109.328 63.4639C109.812 63.5654 110.229 63.6963 110.576 63.8564C110.928 64.0127 111.197 64.2158 111.385 64.4658C111.572 64.7119 111.666 65.0244 111.666 65.4033C111.666 65.6846 111.605 65.9424 111.484 66.1768C111.367 66.4072 111.195 66.6084 110.969 66.7803C110.742 66.9482 110.471 67.0791 110.154 67.1729C109.842 67.2666 109.49 67.3135 109.1 67.3135C108.525 67.3135 108.039 67.2119 107.641 67.0088C107.242 66.8018 106.939 66.5381 106.732 66.2178C106.529 65.8936 106.428 65.5576 106.428 65.21H107.793C107.809 65.4717 107.881 65.6807 108.01 65.8369C108.143 65.9893 108.307 66.1006 108.502 66.1709C108.701 66.2373 108.906 66.2705 109.117 66.2705C109.371 66.2705 109.584 66.2373 109.756 66.1709C109.928 66.1006 110.059 66.0068 110.148 65.8896C110.238 65.7686 110.283 65.6318 110.283 65.4795ZM116.309 60.8564V61.8877H112.734V60.8564H116.309ZM113.766 59.3037H115.178V65.4443C115.178 65.6396 115.205 65.79 115.26 65.8955C115.318 65.9971 115.398 66.0654 115.5 66.1006C115.602 66.1357 115.721 66.1533 115.857 66.1533C115.955 66.1533 116.049 66.1475 116.139 66.1357C116.229 66.124 116.301 66.1123 116.355 66.1006L116.361 67.1787C116.244 67.2139 116.107 67.2451 115.951 67.2725C115.799 67.2998 115.623 67.3135 115.424 67.3135C115.1 67.3135 114.812 67.2568 114.562 67.1436C114.312 67.0264 114.117 66.8369 113.977 66.5752C113.836 66.3135 113.766 65.9658 113.766 65.5322V59.3037ZM121.473 65.9248V62.9014C121.473 62.6748 121.432 62.4795 121.35 62.3154C121.268 62.1514 121.143 62.0244 120.975 61.9346C120.811 61.8447 120.604 61.7998 120.354 61.7998C120.123 61.7998 119.924 61.8389 119.756 61.917C119.588 61.9951 119.457 62.1006 119.363 62.2334C119.27 62.3662 119.223 62.5166 119.223 62.6846H117.816C117.816 62.4346 117.877 62.1924 117.998 61.958C118.119 61.7236 118.295 61.5146 118.525 61.3311C118.756 61.1475 119.031 61.0029 119.352 60.8975C119.672 60.792 120.031 60.7393 120.43 60.7393C120.906 60.7393 121.328 60.8193 121.695 60.9795C122.066 61.1396 122.357 61.3818 122.568 61.7061C122.783 62.0264 122.891 62.4287 122.891 62.9131V65.7314C122.891 66.0205 122.91 66.2803 122.949 66.5107C122.992 66.7373 123.053 66.9346 123.131 67.1025V67.1963H121.684C121.617 67.0439 121.564 66.8506 121.525 66.6162C121.49 66.3779 121.473 66.1475 121.473 65.9248ZM121.678 63.3408L121.689 64.2139H120.676C120.414 64.2139 120.184 64.2393 119.984 64.29C119.785 64.3369 119.619 64.4072 119.486 64.501C119.354 64.5947 119.254 64.708 119.188 64.8408C119.121 64.9736 119.088 65.124 119.088 65.292C119.088 65.46 119.127 65.6143 119.205 65.7549C119.283 65.8916 119.396 65.999 119.545 66.0771C119.697 66.1553 119.881 66.1943 120.096 66.1943C120.385 66.1943 120.637 66.1357 120.852 66.0186C121.07 65.8975 121.242 65.751 121.367 65.5791C121.492 65.4033 121.559 65.2373 121.566 65.0811L122.023 65.708C121.977 65.8682 121.896 66.04 121.783 66.2236C121.67 66.4072 121.521 66.583 121.338 66.751C121.158 66.915 120.941 67.0498 120.688 67.1553C120.438 67.2607 120.148 67.3135 119.82 67.3135C119.406 67.3135 119.037 67.2314 118.713 67.0674C118.389 66.8994 118.135 66.6748 117.951 66.3936C117.768 66.1084 117.676 65.7861 117.676 65.4268C117.676 65.0908 117.738 64.7939 117.863 64.5361C117.992 64.2744 118.18 64.0557 118.426 63.8799C118.676 63.7041 118.98 63.5713 119.34 63.4814C119.699 63.3877 120.109 63.3408 120.57 63.3408H121.678ZM127.773 60.8564V61.8877H124.199V60.8564H127.773ZM125.23 59.3037H126.643V65.4443C126.643 65.6396 126.67 65.79 126.725 65.8955C126.783 65.9971 126.863 66.0654 126.965 66.1006C127.066 66.1357 127.186 66.1533 127.322 66.1533C127.42 66.1533 127.514 66.1475 127.604 66.1357C127.693 66.124 127.766 66.1123 127.82 66.1006L127.826 67.1787C127.709 67.2139 127.572 67.2451 127.416 67.2725C127.264 67.2998 127.088 67.3135 126.889 67.3135C126.564 67.3135 126.277 67.2568 126.027 67.1436C125.777 67.0264 125.582 66.8369 125.441 66.5752C125.301 66.3135 125.23 65.9658 125.23 65.5322V59.3037ZM132.158 67.3135C131.689 67.3135 131.266 67.2373 130.887 67.085C130.512 66.9287 130.191 66.7119 129.926 66.4346C129.664 66.1572 129.463 65.8311 129.322 65.4561C129.182 65.0811 129.111 64.6768 129.111 64.2432V64.0088C129.111 63.5127 129.184 63.0635 129.328 62.6611C129.473 62.2588 129.674 61.915 129.932 61.6299C130.189 61.3408 130.494 61.1201 130.846 60.9678C131.197 60.8154 131.578 60.7393 131.988 60.7393C132.441 60.7393 132.838 60.8154 133.178 60.9678C133.518 61.1201 133.799 61.335 134.021 61.6123C134.248 61.8857 134.416 62.2119 134.525 62.5908C134.639 62.9697 134.695 63.3877 134.695 63.8447V64.4482H129.797V63.4346H133.301V63.3232C133.293 63.0693 133.242 62.8311 133.148 62.6084C133.059 62.3857 132.92 62.2061 132.732 62.0693C132.545 61.9326 132.295 61.8643 131.982 61.8643C131.748 61.8643 131.539 61.915 131.355 62.0166C131.176 62.1143 131.025 62.2568 130.904 62.4443C130.783 62.6318 130.689 62.8584 130.623 63.124C130.561 63.3857 130.529 63.6807 130.529 64.0088V64.2432C130.529 64.5205 130.566 64.7783 130.641 65.0166C130.719 65.251 130.832 65.4561 130.98 65.6318C131.129 65.8076 131.309 65.9463 131.52 66.0479C131.73 66.1455 131.971 66.1943 132.24 66.1943C132.58 66.1943 132.883 66.126 133.148 65.9893C133.414 65.8525 133.645 65.6592 133.84 65.4092L134.584 66.1299C134.447 66.3291 134.27 66.5205 134.051 66.7041C133.832 66.8838 133.564 67.0303 133.248 67.1436C132.936 67.2568 132.572 67.3135 132.158 67.3135ZM110.541 79.7021V74.8564H111.959V81.1963H110.623L110.541 79.7021ZM110.74 78.3838L111.215 78.3721C111.215 78.7979 111.168 79.1904 111.074 79.5498C110.98 79.9053 110.836 80.2158 110.641 80.4814C110.445 80.7432 110.195 80.9482 109.891 81.0967C109.586 81.2412 109.221 81.3135 108.795 81.3135C108.486 81.3135 108.203 81.2686 107.945 81.1787C107.688 81.0889 107.465 80.9502 107.277 80.7627C107.094 80.5752 106.951 80.3311 106.85 80.0303C106.748 79.7295 106.697 79.3701 106.697 78.9521V74.8564H108.109V78.9639C108.109 79.1943 108.137 79.3877 108.191 79.5439C108.246 79.6963 108.32 79.8193 108.414 79.9131C108.508 80.0068 108.617 80.0732 108.742 80.1123C108.867 80.1514 109 80.1709 109.141 80.1709C109.543 80.1709 109.859 80.0928 110.09 79.9365C110.324 79.7764 110.49 79.5615 110.588 79.292C110.689 79.0225 110.74 78.7197 110.74 78.3838ZM115.307 76.21V81.1963H113.895V74.8564H115.225L115.307 76.21ZM115.055 77.792L114.598 77.7861C114.602 77.3369 114.664 76.9248 114.785 76.5498C114.91 76.1748 115.082 75.8525 115.301 75.583C115.523 75.3135 115.789 75.1064 116.098 74.9619C116.406 74.8135 116.75 74.7393 117.129 74.7393C117.434 74.7393 117.709 74.7822 117.955 74.8682C118.205 74.9502 118.418 75.085 118.594 75.2725C118.773 75.46 118.91 75.7041 119.004 76.0049C119.098 76.3018 119.145 76.667 119.145 77.1006V81.1963H117.727V77.0947C117.727 76.79 117.682 76.5498 117.592 76.374C117.506 76.1943 117.379 76.0674 117.211 75.9932C117.047 75.915 116.842 75.876 116.596 75.876C116.354 75.876 116.137 75.9268 115.945 76.0283C115.754 76.1299 115.592 76.2686 115.459 76.4443C115.33 76.6201 115.23 76.8232 115.16 77.0537C115.09 77.2842 115.055 77.5303 115.055 77.792ZM122.598 74.8564V81.1963H121.18V74.8564H122.598ZM121.086 73.1924C121.086 72.9775 121.156 72.7998 121.297 72.6592C121.441 72.5146 121.641 72.4424 121.895 72.4424C122.145 72.4424 122.342 72.5146 122.486 72.6592C122.631 72.7998 122.703 72.9775 122.703 73.1924C122.703 73.4033 122.631 73.5791 122.486 73.7197C122.342 73.8604 122.145 73.9307 121.895 73.9307C121.641 73.9307 121.441 73.8604 121.297 73.7197C121.156 73.5791 121.086 73.4033 121.086 73.1924ZM126.707 80.0771L128.26 74.8564H129.725L127.521 81.1963H126.607L126.707 80.0771ZM125.518 74.8564L127.1 80.1006L127.176 81.1963H126.262L124.047 74.8564H125.518ZM133.811 81.3135C133.342 81.3135 132.918 81.2373 132.539 81.085C132.164 80.9287 131.844 80.7119 131.578 80.4346C131.316 80.1572 131.115 79.8311 130.975 79.4561C130.834 79.0811 130.764 78.6768 130.764 78.2432V78.0088C130.764 77.5127 130.836 77.0635 130.98 76.6611C131.125 76.2588 131.326 75.915 131.584 75.6299C131.842 75.3408 132.146 75.1201 132.498 74.9678C132.85 74.8154 133.23 74.7393 133.641 74.7393C134.094 74.7393 134.49 74.8154 134.83 74.9678C135.17 75.1201 135.451 75.335 135.674 75.6123C135.9 75.8857 136.068 76.2119 136.178 76.5908C136.291 76.9697 136.348 77.3877 136.348 77.8447V78.4482H131.449V77.4346H134.953V77.3232C134.945 77.0693 134.895 76.8311 134.801 76.6084C134.711 76.3857 134.572 76.2061 134.385 76.0693C134.197 75.9326 133.947 75.8643 133.635 75.8643C133.4 75.8643 133.191 75.915 133.008 76.0166C132.828 76.1143 132.678 76.2568 132.557 76.4443C132.436 76.6318 132.342 76.8584 132.275 77.124C132.213 77.3857 132.182 77.6807 132.182 78.0088V78.2432C132.182 78.5205 132.219 78.7783 132.293 79.0166C132.371 79.251 132.484 79.4561 132.633 79.6318C132.781 79.8076 132.961 79.9463 133.172 80.0479C133.383 80.1455 133.623 80.1943 133.893 80.1943C134.232 80.1943 134.535 80.126 134.801 79.9893C135.066 79.8525 135.297 79.6592 135.492 79.4092L136.236 80.1299C136.1 80.3291 135.922 80.5205 135.703 80.7041C135.484 80.8838 135.217 81.0303 134.9 81.1436C134.588 81.2568 134.225 81.3135 133.811 81.3135ZM139.367 76.0635V81.1963H137.955V74.8564H139.303L139.367 76.0635ZM141.307 74.8154L141.295 76.1279C141.209 76.1123 141.115 76.1006 141.014 76.0928C140.916 76.085 140.818 76.0811 140.721 76.0811C140.479 76.0811 140.266 76.1162 140.082 76.1865C139.898 76.2529 139.744 76.3506 139.619 76.4795C139.498 76.6045 139.404 76.7568 139.338 76.9365C139.271 77.1162 139.232 77.3174 139.221 77.54L138.898 77.5635C138.898 77.165 138.938 76.7959 139.016 76.4561C139.094 76.1162 139.211 75.8174 139.367 75.5596C139.527 75.3018 139.727 75.1006 139.965 74.9561C140.207 74.8115 140.486 74.7393 140.803 74.7393C140.889 74.7393 140.98 74.7471 141.078 74.7627C141.18 74.7783 141.256 74.7959 141.307 74.8154ZM146.248 79.4795C146.248 79.3389 146.213 79.2119 146.143 79.0986C146.072 78.9814 145.938 78.876 145.738 78.7822C145.543 78.6885 145.254 78.6025 144.871 78.5244C144.535 78.4502 144.227 78.3623 143.945 78.2607C143.668 78.1553 143.43 78.0283 143.23 77.8799C143.031 77.7314 142.877 77.5557 142.768 77.3525C142.658 77.1494 142.604 76.915 142.604 76.6494C142.604 76.3916 142.66 76.1475 142.773 75.917C142.887 75.6865 143.049 75.4834 143.26 75.3076C143.471 75.1318 143.727 74.9932 144.027 74.8916C144.332 74.79 144.672 74.7393 145.047 74.7393C145.578 74.7393 146.033 74.8291 146.412 75.0088C146.795 75.1846 147.088 75.4248 147.291 75.7295C147.494 76.0303 147.596 76.3701 147.596 76.749H146.184C146.184 76.5811 146.141 76.4248 146.055 76.2803C145.973 76.1318 145.848 76.0127 145.68 75.9229C145.512 75.8291 145.301 75.7822 145.047 75.7822C144.805 75.7822 144.604 75.8213 144.443 75.8994C144.287 75.9736 144.17 76.0713 144.092 76.1924C144.018 76.3135 143.98 76.4463 143.98 76.5908C143.98 76.6963 144 76.792 144.039 76.8779C144.082 76.96 144.152 77.0361 144.25 77.1064C144.348 77.1729 144.48 77.2354 144.648 77.2939C144.82 77.3525 145.035 77.4092 145.293 77.4639C145.777 77.5654 146.193 77.6963 146.541 77.8564C146.893 78.0127 147.162 78.2158 147.35 78.4658C147.537 78.7119 147.631 79.0244 147.631 79.4033C147.631 79.6846 147.57 79.9424 147.449 80.1768C147.332 80.4072 147.16 80.6084 146.934 80.7803C146.707 80.9482 146.436 81.0791 146.119 81.1729C145.807 81.2666 145.455 81.3135 145.064 81.3135C144.49 81.3135 144.004 81.2119 143.605 81.0088C143.207 80.8018 142.904 80.5381 142.697 80.2178C142.494 79.8936 142.393 79.5576 142.393 79.21H143.758C143.773 79.4717 143.846 79.6807 143.975 79.8369C144.107 79.9893 144.271 80.1006 144.467 80.1709C144.666 80.2373 144.871 80.2705 145.082 80.2705C145.336 80.2705 145.549 80.2373 145.721 80.1709C145.893 80.1006 146.023 80.0068 146.113 79.8896C146.203 79.7686 146.248 79.6318 146.248 79.4795ZM150.879 74.8564V81.1963H149.461V74.8564H150.879ZM149.367 73.1924C149.367 72.9775 149.438 72.7998 149.578 72.6592C149.723 72.5146 149.922 72.4424 150.176 72.4424C150.426 72.4424 150.623 72.5146 150.768 72.6592C150.912 72.7998 150.984 72.9775 150.984 73.1924C150.984 73.4033 150.912 73.5791 150.768 73.7197C150.623 73.8604 150.426 73.9307 150.176 73.9307C149.922 73.9307 149.723 73.8604 149.578 73.7197C149.438 73.5791 149.367 73.4033 149.367 73.1924ZM155.832 74.8564V75.8877H152.258V74.8564H155.832ZM153.289 73.3037H154.701V79.4443C154.701 79.6396 154.729 79.79 154.783 79.8955C154.842 79.9971 154.922 80.0654 155.023 80.1006C155.125 80.1357 155.244 80.1533 155.381 80.1533C155.479 80.1533 155.572 80.1475 155.662 80.1357C155.752 80.124 155.824 80.1123 155.879 80.1006L155.885 81.1787C155.768 81.2139 155.631 81.2451 155.475 81.2725C155.322 81.2998 155.146 81.3135 154.947 81.3135C154.623 81.3135 154.336 81.2568 154.086 81.1436C153.836 81.0264 153.641 80.8369 153.5 80.5752C153.359 80.3135 153.289 79.9658 153.289 79.5322V73.3037ZM159.262 80.5049L160.984 74.8564H162.496L159.953 82.1631C159.895 82.3193 159.818 82.4893 159.725 82.6729C159.631 82.8564 159.508 83.0303 159.355 83.1943C159.207 83.3623 159.021 83.4971 158.799 83.5986C158.576 83.7041 158.307 83.7568 157.99 83.7568C157.865 83.7568 157.744 83.7451 157.627 83.7217C157.514 83.7021 157.406 83.6807 157.305 83.6572L157.299 82.5791C157.338 82.583 157.385 82.5869 157.439 82.5908C157.498 82.5947 157.545 82.5967 157.58 82.5967C157.814 82.5967 158.01 82.5674 158.166 82.5088C158.322 82.4541 158.449 82.3643 158.547 82.2393C158.648 82.1143 158.734 81.9463 158.805 81.7354L159.262 80.5049ZM158.289 74.8564L159.795 79.6025L160.047 81.0908L159.068 81.3428L156.766 74.8564H158.289Z" fill="white"/>
</svg>
