<svg width="217" height="108" viewBox="0 0 217 108" fill="none" xmlns="http://www.w3.org/2000/svg">
<g clip-path="url(#clip0_238_16102)">
<path d="M21.147 58.2017V25.3393H37.2997V59.2541C37.2997 64.304 40.606 69.4902 47.1459 69.4902C53.6055 69.4902 56.9156 64.304 56.9156 59.2541V25.3393H73.0654V58.1213C73.0654 71.2212 64.8729 84.1006 47.1459 84.1006C29.4189 84.1006 21.147 71.2212 21.147 58.2017Z" fill="white"/>
<path d="M87.4858 61.2588C87.4858 83.3172 69.5679 101.263 47.5434 101.263H46.6684C24.6448 101.263 6.72699 83.3172 6.72699 61.2588V15.2359H87.4858V61.2588ZM88.9268 5.45972H80.9988L75.7299 6.91337V8.80237H58.4536V6.80644L53.162 4.75656H48.8739L47.9771 4.26727C48.0074 4.17736 48.0348 4.08557 48.0348 3.98525C48.0348 3.6048 47.7967 3.28208 47.4631 3.15053V8.66308e-06H46.7969V3.15242C46.4671 3.28586 46.2328 3.60764 46.2328 3.98525C46.2328 4.08367 46.2602 4.17453 46.2885 4.26254L45.3824 4.75656H40.8939L35.8536 6.8812V8.80237H18.465V6.92L13.196 5.45972H5.268L0 6.92V14.4873V61.2588C0 87.0318 20.935 108 46.6684 108H47.5434C73.2768 108 94.2128 87.0318 94.2128 61.2588V9.78567H94.1958V6.92663L88.9268 5.45972Z" fill="white"/>
<path d="M24.6173 79.5151L27.695 82.6392L26.888 83.436L25.7739 82.3041L22.8163 85.2275L21.9668 84.3654L24.9244 81.4429L23.8104 80.312L24.6173 79.5151Z" fill="white"/>
<path d="M28.3729 88.3812C29.2129 88.9338 30.0388 88.6263 30.5283 87.8805C31.0603 87.0704 30.8467 86.1685 30.1333 85.6991C29.401 85.2164 28.509 85.3906 27.977 86.1997C27.479 86.9587 27.6651 87.9155 28.3729 88.3812ZM30.756 84.7499C32.1006 85.6366 32.5278 87.1773 31.6017 88.5875C30.721 89.9285 29.0948 90.2153 27.7502 89.3294C26.4046 88.4436 25.9775 86.9029 26.9035 85.4928C27.7464 84.2085 29.3471 83.8234 30.756 84.7499" fill="white"/>
<path d="M34.1941 86.9121L35.346 87.3049L36.1718 89.9444L38.349 88.3298L39.429 88.6989L37.7234 93.7129L36.5791 93.3211L37.6658 90.127L35.6058 91.6062L35.4414 91.5504L34.7119 89.1428L33.6319 92.316L32.4875 91.9261L34.1941 86.9121Z" fill="white"/>
<path d="M40.8693 90.3675C40.9713 89.5565 41.7065 88.9318 42.7553 89.0662C43.431 89.1523 43.9422 89.4457 44.2276 89.8404L43.4678 90.6599C43.2628 90.4129 43.1078 90.2558 42.7175 90.2057C42.3878 90.164 42.1742 90.289 42.144 90.5293C42.0325 91.401 44.2493 91.4682 44.0329 93.1811C43.9167 94.0963 43.0492 94.6272 42.0363 94.4985C41.3313 94.4095 40.5527 94.0054 40.3694 93.4092L41.1556 92.6776C41.406 93.0988 41.8416 93.3297 42.2092 93.377C42.5248 93.4168 42.7242 93.2814 42.7553 93.0335C42.8565 92.2451 40.6538 92.0644 40.8693 90.3675Z" fill="white"/>
<path d="M46.1265 89.4628L47.335 89.4354L47.388 91.7427L49.0652 89.3956L50.5166 89.3625L48.5852 91.8515L50.7954 94.6547L49.2618 94.6897L47.3983 92.2121L47.456 94.7314L46.2474 94.7598L46.1265 89.4628Z" fill="white"/>
<path d="M52.061 91.4953L54.0322 91.182L54.1985 92.2287L52.2264 92.542L52.061 91.4953Z" fill="white"/>
<path d="M56.1601 88.2531L56.9444 88.0297L58.3882 93.1242L57.2978 93.4346L56.2943 89.8894L55.8861 90.391L55.064 89.65L56.1601 88.2531Z" fill="white"/>
<path d="M61.5646 89.5724C61.2575 89.7172 61.0402 90.0201 61.2008 90.3627C61.3265 90.6286 61.6137 90.7781 62.0645 90.5661C62.5842 90.321 62.5946 90.0239 62.4651 89.7664C62.2979 89.4276 61.9747 89.3794 61.6468 89.5336L61.5646 89.5724ZM61.1639 88.5068C61.4852 88.3554 61.5192 88.0544 61.42 87.8434C61.2943 87.5765 61.043 87.5017 60.6943 87.6664C60.339 87.8339 60.2823 88.1036 60.3882 88.3298C60.4874 88.5418 60.7406 88.7065 61.0751 88.5484L61.1639 88.5068ZM60.2048 91.0829C59.9015 90.4393 60.0565 89.881 60.3655 89.527L60.357 89.5062C59.962 89.4825 59.4876 89.2554 59.2079 88.6592C58.8545 87.9068 59.3242 87.0588 60.219 86.6358C61.1139 86.2146 62.073 86.3907 62.4264 87.143C62.6456 87.6087 62.605 88.1793 62.2742 88.5948L62.2837 88.6147C62.7524 88.5276 63.3203 88.7443 63.6132 89.3671C64.0375 90.2709 63.5518 91.1188 62.5539 91.5892C61.5561 92.0595 60.5866 91.8977 60.2048 91.0829" fill="white"/>
<path d="M62.9092 85.3357L65.7279 83.2962L66.1796 83.9218L67.3749 88.6423L66.3695 89.3701L65.2951 85.0101L63.5735 86.2565L62.9092 85.3357Z" fill="white"/>
<path d="M70.1797 83.3767C69.9435 83.6218 69.848 83.9824 70.1202 84.2445C70.3318 84.4499 70.6531 84.4868 70.9999 84.1272C71.3987 83.7126 71.3023 83.4316 71.0916 83.2376C70.8138 82.9801 70.4944 83.0492 70.2421 83.3114L70.1797 83.3767ZM69.4275 82.523C69.6742 82.2666 69.5995 81.9741 69.4313 81.8113C69.2187 81.606 68.957 81.6259 68.6896 81.9041C68.4174 82.1871 68.459 82.4587 68.6385 82.6328C68.8067 82.7956 69.1015 82.8599 69.3595 82.5931L69.4275 82.523ZM69.4436 85.2732C68.9324 84.7783 68.8795 84.2019 69.043 83.76L69.0259 83.7448C68.6499 83.8641 68.1245 83.8196 67.652 83.3615C67.0539 82.7833 67.1918 81.8227 67.8797 81.1101C68.5677 80.3974 69.5268 80.2195 70.124 80.7978C70.4934 81.1546 70.6578 81.7035 70.4963 82.2098L70.5123 82.2249C70.9196 81.977 71.5291 81.977 72.0233 82.4549C72.7405 83.1495 72.5865 84.1149 71.8201 84.9098C71.0547 85.7048 70.0899 85.8988 69.4436 85.2732Z" fill="white"/>
</g>
<path d="M109.989 14.7344V19H109.421L107.273 15.71V19H106.708V14.7344H107.273L109.43 18.0332V14.7344H109.989ZM113.278 18.458V16.8262C113.278 16.7012 113.253 16.5928 113.202 16.501C113.153 16.4072 113.079 16.335 112.979 16.2842C112.88 16.2334 112.757 16.208 112.61 16.208C112.474 16.208 112.354 16.2314 112.25 16.2783C112.148 16.3252 112.068 16.3867 112.01 16.4629C111.953 16.5391 111.925 16.6211 111.925 16.709H111.383C111.383 16.5957 111.412 16.4834 111.471 16.3721C111.529 16.2607 111.613 16.1602 111.723 16.0703C111.834 15.9785 111.967 15.9062 112.121 15.8535C112.277 15.7988 112.451 15.7715 112.643 15.7715C112.873 15.7715 113.076 15.8105 113.252 15.8887C113.43 15.9668 113.568 16.085 113.668 16.2432C113.77 16.3994 113.82 16.5957 113.82 16.832V18.3086C113.82 18.4141 113.829 18.5264 113.847 18.6455C113.866 18.7646 113.895 18.8672 113.932 18.9531V19H113.366C113.339 18.9375 113.317 18.8545 113.302 18.751C113.286 18.6455 113.278 18.5479 113.278 18.458ZM113.372 17.0781L113.378 17.459H112.83C112.676 17.459 112.538 17.4717 112.417 17.4971C112.296 17.5205 112.194 17.5566 112.112 17.6055C112.03 17.6543 111.968 17.7158 111.925 17.79C111.882 17.8623 111.86 17.9473 111.86 18.0449C111.86 18.1445 111.883 18.2354 111.928 18.3174C111.973 18.3994 112.04 18.4648 112.13 18.5137C112.222 18.5605 112.334 18.584 112.467 18.584C112.633 18.584 112.779 18.5488 112.906 18.4785C113.033 18.4082 113.134 18.3223 113.208 18.2207C113.284 18.1191 113.325 18.0205 113.331 17.9248L113.562 18.1855C113.549 18.2676 113.512 18.3584 113.451 18.458C113.391 18.5576 113.31 18.6533 113.208 18.7451C113.108 18.835 112.989 18.9102 112.851 18.9707C112.714 19.0293 112.56 19.0586 112.388 19.0586C112.173 19.0586 111.984 19.0166 111.822 18.9326C111.662 18.8486 111.537 18.7363 111.447 18.5957C111.359 18.4531 111.315 18.2939 111.315 18.1182C111.315 17.9482 111.349 17.7988 111.415 17.6699C111.481 17.5391 111.577 17.4307 111.702 17.3447C111.827 17.2568 111.978 17.1904 112.153 17.1455C112.329 17.1006 112.525 17.0781 112.742 17.0781H113.372ZM116.5 15.8301V16.2461H114.786V15.8301H116.5ZM115.366 15.0596H115.908V18.2148C115.908 18.3223 115.925 18.4033 115.958 18.458C115.991 18.5127 116.034 18.5488 116.087 18.5664C116.14 18.584 116.196 18.5928 116.257 18.5928C116.302 18.5928 116.349 18.5889 116.397 18.5811C116.448 18.5713 116.486 18.5635 116.512 18.5576L116.515 19C116.472 19.0137 116.415 19.0264 116.345 19.0381C116.276 19.0518 116.193 19.0586 116.096 19.0586C115.963 19.0586 115.841 19.0322 115.729 18.9795C115.618 18.9268 115.529 18.8389 115.463 18.7158C115.398 18.5908 115.366 18.4229 115.366 18.2119V15.0596ZM118.225 15.8301V19H117.68V15.8301H118.225ZM117.639 14.9893C117.639 14.9014 117.665 14.8271 117.718 14.7666C117.772 14.7061 117.853 14.6758 117.958 14.6758C118.062 14.6758 118.141 14.7061 118.195 14.7666C118.252 14.8271 118.28 14.9014 118.28 14.9893C118.28 15.0732 118.252 15.1455 118.195 15.2061C118.141 15.2646 118.062 15.2939 117.958 15.2939C117.853 15.2939 117.772 15.2646 117.718 15.2061C117.665 15.1455 117.639 15.0732 117.639 14.9893ZM119.451 17.4502V17.3828C119.451 17.1543 119.484 16.9424 119.551 16.7471C119.617 16.5498 119.713 16.3789 119.838 16.2344C119.963 16.0879 120.114 15.9746 120.292 15.8945C120.47 15.8125 120.669 15.7715 120.89 15.7715C121.112 15.7715 121.312 15.8125 121.49 15.8945C121.67 15.9746 121.822 16.0879 121.947 16.2344C122.074 16.3789 122.171 16.5498 122.237 16.7471C122.304 16.9424 122.337 17.1543 122.337 17.3828V17.4502C122.337 17.6787 122.304 17.8906 122.237 18.0859C122.171 18.2812 122.074 18.4521 121.947 18.5986C121.822 18.7432 121.671 18.8564 121.493 18.9385C121.317 19.0186 121.118 19.0586 120.896 19.0586C120.673 19.0586 120.473 19.0186 120.295 18.9385C120.117 18.8564 119.965 18.7432 119.838 18.5986C119.713 18.4521 119.617 18.2812 119.551 18.0859C119.484 17.8906 119.451 17.6787 119.451 17.4502ZM119.993 17.3828V17.4502C119.993 17.6084 120.012 17.7578 120.049 17.8984C120.086 18.0371 120.142 18.1602 120.216 18.2676C120.292 18.375 120.387 18.46 120.5 18.5225C120.613 18.583 120.745 18.6133 120.896 18.6133C121.044 18.6133 121.174 18.583 121.285 18.5225C121.398 18.46 121.492 18.375 121.566 18.2676C121.641 18.1602 121.696 18.0371 121.733 17.8984C121.772 17.7578 121.792 17.6084 121.792 17.4502V17.3828C121.792 17.2266 121.772 17.0791 121.733 16.9404C121.696 16.7998 121.64 16.6758 121.563 16.5684C121.489 16.459 121.396 16.373 121.282 16.3105C121.171 16.248 121.04 16.2168 120.89 16.2168C120.741 16.2168 120.61 16.248 120.497 16.3105C120.386 16.373 120.292 16.459 120.216 16.5684C120.142 16.6758 120.086 16.7998 120.049 16.9404C120.012 17.0791 119.993 17.2266 119.993 17.3828ZM124.059 16.5068V19H123.517V15.8301H124.029L124.059 16.5068ZM123.93 17.2949L123.704 17.2861C123.706 17.0693 123.738 16.8691 123.801 16.6855C123.863 16.5 123.951 16.3389 124.064 16.2021C124.178 16.0654 124.312 15.96 124.469 15.8857C124.627 15.8096 124.802 15.7715 124.993 15.7715C125.149 15.7715 125.29 15.793 125.415 15.8359C125.54 15.877 125.646 15.9434 125.734 16.0352C125.824 16.127 125.893 16.2461 125.939 16.3926C125.986 16.5371 126.01 16.7139 126.01 16.9229V19H125.465V16.917C125.465 16.751 125.44 16.6182 125.392 16.5186C125.343 16.417 125.271 16.3438 125.178 16.2988C125.084 16.252 124.969 16.2285 124.832 16.2285C124.697 16.2285 124.574 16.2568 124.463 16.3135C124.354 16.3701 124.259 16.4482 124.179 16.5479C124.101 16.6475 124.039 16.7617 123.994 16.8906C123.951 17.0176 123.93 17.1523 123.93 17.2949ZM129.202 18.458V16.8262C129.202 16.7012 129.177 16.5928 129.126 16.501C129.077 16.4072 129.003 16.335 128.903 16.2842C128.804 16.2334 128.681 16.208 128.534 16.208C128.397 16.208 128.277 16.2314 128.174 16.2783C128.072 16.3252 127.992 16.3867 127.934 16.4629C127.877 16.5391 127.849 16.6211 127.849 16.709H127.307C127.307 16.5957 127.336 16.4834 127.395 16.3721C127.453 16.2607 127.537 16.1602 127.646 16.0703C127.758 15.9785 127.891 15.9062 128.045 15.8535C128.201 15.7988 128.375 15.7715 128.566 15.7715C128.797 15.7715 129 15.8105 129.176 15.8887C129.354 15.9668 129.492 16.085 129.592 16.2432C129.693 16.3994 129.744 16.5957 129.744 16.832V18.3086C129.744 18.4141 129.753 18.5264 129.771 18.6455C129.79 18.7646 129.818 18.8672 129.855 18.9531V19H129.29C129.263 18.9375 129.241 18.8545 129.226 18.751C129.21 18.6455 129.202 18.5479 129.202 18.458ZM129.296 17.0781L129.302 17.459H128.754C128.6 17.459 128.462 17.4717 128.341 17.4971C128.22 17.5205 128.118 17.5566 128.036 17.6055C127.954 17.6543 127.892 17.7158 127.849 17.79C127.806 17.8623 127.784 17.9473 127.784 18.0449C127.784 18.1445 127.807 18.2354 127.852 18.3174C127.896 18.3994 127.964 18.4648 128.054 18.5137C128.146 18.5605 128.258 18.584 128.391 18.584C128.557 18.584 128.703 18.5488 128.83 18.4785C128.957 18.4082 129.058 18.3223 129.132 18.2207C129.208 18.1191 129.249 18.0205 129.255 17.9248L129.486 18.1855C129.473 18.2676 129.436 18.3584 129.375 18.458C129.314 18.5576 129.233 18.6533 129.132 18.7451C129.032 18.835 128.913 18.9102 128.774 18.9707C128.638 19.0293 128.483 19.0586 128.312 19.0586C128.097 19.0586 127.908 19.0166 127.746 18.9326C127.586 18.8486 127.461 18.7363 127.371 18.5957C127.283 18.4531 127.239 18.2939 127.239 18.1182C127.239 17.9482 127.272 17.7988 127.339 17.6699C127.405 17.5391 127.501 17.4307 127.626 17.3447C127.751 17.2568 127.901 17.1904 128.077 17.1455C128.253 17.1006 128.449 17.0781 128.666 17.0781H129.296ZM131.686 14.5V19H131.141V14.5H131.686ZM107.168 26.3281V29H106.626V25.8301H107.153L107.168 26.3281ZM108.158 25.8125L108.155 26.3164C108.11 26.3066 108.067 26.3008 108.026 26.2988C107.987 26.2949 107.942 26.293 107.892 26.293C107.767 26.293 107.656 26.3125 107.561 26.3516C107.465 26.3906 107.384 26.4453 107.317 26.5156C107.251 26.5859 107.198 26.6699 107.159 26.7676C107.122 26.8633 107.098 26.9688 107.086 27.084L106.934 27.1719C106.934 26.9805 106.952 26.8008 106.989 26.6328C107.028 26.4648 107.088 26.3164 107.168 26.1875C107.248 26.0566 107.35 25.9551 107.473 25.8828C107.598 25.8086 107.746 25.7715 107.918 25.7715C107.957 25.7715 108.002 25.7764 108.053 25.7861C108.104 25.7939 108.139 25.8027 108.158 25.8125ZM110.416 29.0586C110.195 29.0586 109.995 29.0215 109.815 28.9473C109.638 28.8711 109.484 28.7646 109.355 28.6279C109.229 28.4912 109.131 28.3291 109.062 28.1416C108.994 27.9541 108.96 27.749 108.96 27.5264V27.4033C108.96 27.1455 108.998 26.916 109.074 26.7148C109.15 26.5117 109.254 26.3398 109.385 26.1992C109.516 26.0586 109.664 25.9521 109.83 25.8799C109.996 25.8076 110.168 25.7715 110.346 25.7715C110.572 25.7715 110.768 25.8105 110.932 25.8887C111.098 25.9668 111.233 26.0762 111.339 26.2168C111.444 26.3555 111.522 26.5195 111.573 26.709C111.624 26.8965 111.649 27.1016 111.649 27.3242V27.5674H109.282V27.125H111.107V27.084C111.1 26.9434 111.07 26.8066 111.02 26.6738C110.971 26.541 110.893 26.4316 110.785 26.3457C110.678 26.2598 110.531 26.2168 110.346 26.2168C110.223 26.2168 110.109 26.2432 110.006 26.2959C109.902 26.3467 109.813 26.4229 109.739 26.5244C109.665 26.626 109.607 26.75 109.566 26.8965C109.525 27.043 109.505 27.2119 109.505 27.4033V27.5264C109.505 27.6768 109.525 27.8184 109.566 27.9512C109.609 28.082 109.671 28.1973 109.751 28.2969C109.833 28.3965 109.932 28.4746 110.047 28.5312C110.164 28.5879 110.297 28.6162 110.445 28.6162C110.637 28.6162 110.799 28.5771 110.932 28.499C111.064 28.4209 111.181 28.3164 111.28 28.1855L111.608 28.4463C111.54 28.5498 111.453 28.6484 111.348 28.7422C111.242 28.8359 111.112 28.9121 110.958 28.9707C110.806 29.0293 110.625 29.0586 110.416 29.0586ZM114.628 28.1592C114.628 28.0811 114.61 28.0088 114.575 27.9424C114.542 27.874 114.473 27.8125 114.367 27.7578C114.264 27.7012 114.107 27.6523 113.898 27.6113C113.723 27.5742 113.563 27.5303 113.421 27.4795C113.28 27.4287 113.16 27.3672 113.061 27.2949C112.963 27.2227 112.888 27.1377 112.835 27.04C112.782 26.9424 112.756 26.8281 112.756 26.6973C112.756 26.5723 112.783 26.4541 112.838 26.3428C112.895 26.2314 112.974 26.1328 113.075 26.0469C113.179 25.9609 113.303 25.8936 113.447 25.8447C113.592 25.7959 113.753 25.7715 113.931 25.7715C114.185 25.7715 114.401 25.8164 114.581 25.9062C114.761 25.9961 114.898 26.1162 114.994 26.2666C115.09 26.415 115.138 26.5801 115.138 26.7617H114.596C114.596 26.6738 114.569 26.5889 114.517 26.5068C114.466 26.4229 114.391 26.3535 114.291 26.2988C114.193 26.2441 114.073 26.2168 113.931 26.2168C113.78 26.2168 113.658 26.2402 113.564 26.2871C113.473 26.332 113.405 26.3896 113.362 26.46C113.321 26.5303 113.301 26.6045 113.301 26.6826C113.301 26.7412 113.311 26.7939 113.33 26.8408C113.352 26.8857 113.389 26.9277 113.441 26.9668C113.494 27.0039 113.568 27.0391 113.664 27.0723C113.76 27.1055 113.882 27.1387 114.03 27.1719C114.29 27.2305 114.504 27.3008 114.672 27.3828C114.84 27.4648 114.965 27.5654 115.047 27.6846C115.129 27.8037 115.17 27.9482 115.17 28.1182C115.17 28.2568 115.141 28.3838 115.082 28.499C115.025 28.6143 114.942 28.7139 114.833 28.7979C114.726 28.8799 114.597 28.9443 114.446 28.9912C114.298 29.0361 114.131 29.0586 113.945 29.0586C113.666 29.0586 113.43 29.0088 113.236 28.9092C113.043 28.8096 112.896 28.6807 112.797 28.5225C112.697 28.3643 112.647 28.1973 112.647 28.0215H113.192C113.2 28.1699 113.243 28.2881 113.321 28.376C113.399 28.4619 113.495 28.5234 113.608 28.5605C113.722 28.5957 113.834 28.6133 113.945 28.6133C114.094 28.6133 114.218 28.5938 114.317 28.5547C114.419 28.5156 114.496 28.4619 114.549 28.3936C114.602 28.3252 114.628 28.2471 114.628 28.1592ZM117.697 29.0586C117.477 29.0586 117.276 29.0215 117.097 28.9473C116.919 28.8711 116.766 28.7646 116.637 28.6279C116.51 28.4912 116.412 28.3291 116.344 28.1416C116.275 27.9541 116.241 27.749 116.241 27.5264V27.4033C116.241 27.1455 116.279 26.916 116.355 26.7148C116.432 26.5117 116.535 26.3398 116.666 26.1992C116.797 26.0586 116.945 25.9521 117.111 25.8799C117.277 25.8076 117.449 25.7715 117.627 25.7715C117.854 25.7715 118.049 25.8105 118.213 25.8887C118.379 25.9668 118.515 26.0762 118.62 26.2168C118.726 26.3555 118.804 26.5195 118.854 26.709C118.905 26.8965 118.931 27.1016 118.931 27.3242V27.5674H116.563V27.125H118.389V27.084C118.381 26.9434 118.352 26.8066 118.301 26.6738C118.252 26.541 118.174 26.4316 118.066 26.3457C117.959 26.2598 117.812 26.2168 117.627 26.2168C117.504 26.2168 117.391 26.2432 117.287 26.2959C117.184 26.3467 117.095 26.4229 117.021 26.5244C116.946 26.626 116.889 26.75 116.848 26.8965C116.807 27.043 116.786 27.2119 116.786 27.4033V27.5264C116.786 27.6768 116.807 27.8184 116.848 27.9512C116.891 28.082 116.952 28.1973 117.032 28.2969C117.114 28.3965 117.213 28.4746 117.328 28.5312C117.445 28.5879 117.578 28.6162 117.727 28.6162C117.918 28.6162 118.08 28.5771 118.213 28.499C118.346 28.4209 118.462 28.3164 118.562 28.1855L118.89 28.4463C118.821 28.5498 118.734 28.6484 118.629 28.7422C118.523 28.8359 118.394 28.9121 118.239 28.9707C118.087 29.0293 117.906 29.0586 117.697 29.0586ZM121.933 28.458V26.8262C121.933 26.7012 121.907 26.5928 121.856 26.501C121.808 26.4072 121.733 26.335 121.634 26.2842C121.534 26.2334 121.411 26.208 121.265 26.208C121.128 26.208 121.008 26.2314 120.904 26.2783C120.803 26.3252 120.723 26.3867 120.664 26.4629C120.607 26.5391 120.579 26.6211 120.579 26.709H120.037C120.037 26.5957 120.066 26.4834 120.125 26.3721C120.184 26.2607 120.268 26.1602 120.377 26.0703C120.488 25.9785 120.621 25.9062 120.775 25.8535C120.932 25.7988 121.105 25.7715 121.297 25.7715C121.527 25.7715 121.73 25.8105 121.906 25.8887C122.084 25.9668 122.223 26.085 122.322 26.2432C122.424 26.3994 122.475 26.5957 122.475 26.832V28.3086C122.475 28.4141 122.483 28.5264 122.501 28.6455C122.521 28.7646 122.549 28.8672 122.586 28.9531V29H122.021C121.993 28.9375 121.972 28.8545 121.956 28.751C121.94 28.6455 121.933 28.5479 121.933 28.458ZM122.026 27.0781L122.032 27.459H121.484C121.33 27.459 121.192 27.4717 121.071 27.4971C120.95 27.5205 120.849 27.5566 120.767 27.6055C120.685 27.6543 120.622 27.7158 120.579 27.79C120.536 27.8623 120.515 27.9473 120.515 28.0449C120.515 28.1445 120.537 28.2354 120.582 28.3174C120.627 28.3994 120.694 28.4648 120.784 28.5137C120.876 28.5605 120.988 28.584 121.121 28.584C121.287 28.584 121.434 28.5488 121.561 28.4785C121.688 28.4082 121.788 28.3223 121.862 28.2207C121.938 28.1191 121.979 28.0205 121.985 27.9248L122.217 28.1855C122.203 28.2676 122.166 28.3584 122.105 28.458C122.045 28.5576 121.964 28.6533 121.862 28.7451C121.763 28.835 121.644 28.9102 121.505 28.9707C121.368 29.0293 121.214 29.0586 121.042 29.0586C120.827 29.0586 120.639 29.0166 120.477 28.9326C120.316 28.8486 120.191 28.7363 120.102 28.5957C120.014 28.4531 119.97 28.2939 119.97 28.1182C119.97 27.9482 120.003 27.7988 120.069 27.6699C120.136 27.5391 120.231 27.4307 120.356 27.3447C120.481 27.2568 120.632 27.1904 120.808 27.1455C120.983 27.1006 121.18 27.0781 121.396 27.0781H122.026ZM124.369 26.3281V29H123.827V25.8301H124.354L124.369 26.3281ZM125.359 25.8125L125.356 26.3164C125.312 26.3066 125.269 26.3008 125.228 26.2988C125.188 26.2949 125.144 26.293 125.093 26.293C124.968 26.293 124.857 26.3125 124.762 26.3516C124.666 26.3906 124.585 26.4453 124.519 26.5156C124.452 26.5859 124.399 26.6699 124.36 26.7676C124.323 26.8633 124.299 26.9688 124.287 27.084L124.135 27.1719C124.135 26.9805 124.153 26.8008 124.19 26.6328C124.229 26.4648 124.289 26.3164 124.369 26.1875C124.449 26.0566 124.551 25.9551 124.674 25.8828C124.799 25.8086 124.947 25.7715 125.119 25.7715C125.158 25.7715 125.203 25.7764 125.254 25.7861C125.305 25.7939 125.34 25.8027 125.359 25.8125ZM127.57 28.6133C127.699 28.6133 127.818 28.5869 127.928 28.5342C128.037 28.4814 128.127 28.4092 128.197 28.3174C128.268 28.2236 128.308 28.1172 128.317 27.998H128.833C128.823 28.1855 128.76 28.3604 128.643 28.5225C128.527 28.6826 128.376 28.8125 128.188 28.9121C128.001 29.0098 127.795 29.0586 127.57 29.0586C127.332 29.0586 127.124 29.0166 126.946 28.9326C126.771 28.8486 126.624 28.7334 126.507 28.5869C126.392 28.4404 126.305 28.2725 126.246 28.083C126.189 27.8916 126.161 27.6895 126.161 27.4766V27.3535C126.161 27.1406 126.189 26.9395 126.246 26.75C126.305 26.5586 126.392 26.3896 126.507 26.2432C126.624 26.0967 126.771 25.9814 126.946 25.8975C127.124 25.8135 127.332 25.7715 127.57 25.7715C127.818 25.7715 128.035 25.8223 128.221 25.9238C128.406 26.0234 128.552 26.1602 128.657 26.334C128.765 26.5059 128.823 26.7012 128.833 26.9199H128.317C128.308 26.7891 128.271 26.6709 128.206 26.5654C128.144 26.46 128.058 26.376 127.948 26.3135C127.841 26.249 127.715 26.2168 127.57 26.2168C127.404 26.2168 127.265 26.25 127.151 26.3164C127.04 26.3809 126.951 26.4688 126.885 26.5801C126.82 26.6895 126.773 26.8115 126.744 26.9463C126.717 27.0791 126.703 27.2148 126.703 27.3535V27.4766C126.703 27.6152 126.717 27.752 126.744 27.8867C126.771 28.0215 126.817 28.1436 126.882 28.2529C126.948 28.3623 127.037 28.4502 127.148 28.5166C127.262 28.5811 127.402 28.6133 127.57 28.6133ZM130.484 24.5V29H129.942V24.5H130.484ZM130.355 27.2949L130.13 27.2861C130.132 27.0693 130.164 26.8691 130.227 26.6855C130.289 26.5 130.377 26.3389 130.49 26.2021C130.604 26.0654 130.738 25.96 130.895 25.8857C131.053 25.8096 131.228 25.7715 131.419 25.7715C131.575 25.7715 131.716 25.793 131.841 25.8359C131.966 25.877 132.072 25.9434 132.16 26.0352C132.25 26.127 132.318 26.2461 132.365 26.3926C132.412 26.5371 132.436 26.7139 132.436 26.9229V29H131.891V26.917C131.891 26.751 131.866 26.6182 131.817 26.5186C131.769 26.417 131.697 26.3438 131.604 26.2988C131.51 26.252 131.395 26.2285 131.258 26.2285C131.123 26.2285 131 26.2568 130.889 26.3135C130.779 26.3701 130.685 26.4482 130.604 26.5479C130.526 26.6475 130.465 26.7617 130.42 26.8906C130.377 27.0176 130.355 27.1523 130.355 27.2949Z" fill="white"/>
<path d="M110.59 44.665V53.1963H109.131V44.665H110.59ZM113.268 44.665V45.8369H106.477V44.665H113.268ZM113.662 50.0967V49.9619C113.662 49.5049 113.729 49.0811 113.861 48.6904C113.994 48.2959 114.186 47.9541 114.436 47.665C114.689 47.3721 114.998 47.1455 115.361 46.9854C115.729 46.8213 116.143 46.7393 116.604 46.7393C117.068 46.7393 117.482 46.8213 117.846 46.9854C118.213 47.1455 118.523 47.3721 118.777 47.665C119.031 47.9541 119.225 48.2959 119.357 48.6904C119.49 49.0811 119.557 49.5049 119.557 49.9619V50.0967C119.557 50.5537 119.49 50.9775 119.357 51.3682C119.225 51.7588 119.031 52.1006 118.777 52.3936C118.523 52.6826 118.215 52.9092 117.852 53.0732C117.488 53.2334 117.076 53.3135 116.615 53.3135C116.15 53.3135 115.734 53.2334 115.367 53.0732C115.004 52.9092 114.695 52.6826 114.441 52.3936C114.188 52.1006 113.994 51.7588 113.861 51.3682C113.729 50.9775 113.662 50.5537 113.662 50.0967ZM115.074 49.9619V50.0967C115.074 50.3818 115.104 50.6514 115.162 50.9053C115.221 51.1592 115.312 51.3818 115.438 51.5732C115.562 51.7646 115.723 51.915 115.918 52.0244C116.113 52.1338 116.346 52.1885 116.615 52.1885C116.877 52.1885 117.104 52.1338 117.295 52.0244C117.49 51.915 117.65 51.7646 117.775 51.5732C117.9 51.3818 117.992 51.1592 118.051 50.9053C118.113 50.6514 118.145 50.3818 118.145 50.0967V49.9619C118.145 49.6807 118.113 49.415 118.051 49.165C117.992 48.9111 117.898 48.6865 117.77 48.4912C117.645 48.2959 117.484 48.1436 117.289 48.0342C117.098 47.9209 116.869 47.8643 116.604 47.8643C116.338 47.8643 116.107 47.9209 115.912 48.0342C115.721 48.1436 115.562 48.2959 115.438 48.4912C115.312 48.6865 115.221 48.9111 115.162 49.165C115.104 49.415 115.074 49.6807 115.074 49.9619ZM122.652 48.1455V53.1963H121.24V46.8564H122.57L122.652 48.1455ZM122.424 49.792L121.943 49.7861C121.943 49.3486 121.998 48.9443 122.107 48.5732C122.217 48.2021 122.377 47.8799 122.588 47.6064C122.799 47.3291 123.061 47.1162 123.373 46.9678C123.689 46.8154 124.055 46.7393 124.469 46.7393C124.758 46.7393 125.021 46.7822 125.26 46.8682C125.502 46.9502 125.711 47.0811 125.887 47.2607C126.066 47.4404 126.203 47.6709 126.297 47.9521C126.395 48.2334 126.443 48.5732 126.443 48.9717V53.1963H125.031V49.0947C125.031 48.7861 124.984 48.5439 124.891 48.3682C124.801 48.1924 124.67 48.0674 124.498 47.9932C124.33 47.915 124.129 47.876 123.895 47.876C123.629 47.876 123.402 47.9268 123.215 48.0283C123.031 48.1299 122.881 48.2686 122.764 48.4443C122.646 48.6201 122.561 48.8232 122.506 49.0537C122.451 49.2842 122.424 49.5303 122.424 49.792ZM126.355 49.417L125.693 49.5635C125.693 49.1807 125.746 48.8193 125.852 48.4795C125.961 48.1357 126.119 47.835 126.326 47.5771C126.537 47.3154 126.797 47.1104 127.105 46.9619C127.414 46.8135 127.768 46.7393 128.166 46.7393C128.49 46.7393 128.779 46.7842 129.033 46.874C129.291 46.96 129.51 47.0967 129.689 47.2842C129.869 47.4717 130.006 47.7158 130.1 48.0166C130.193 48.3135 130.24 48.6729 130.24 49.0947V53.1963H128.822V49.0889C128.822 48.7686 128.775 48.5205 128.682 48.3447C128.592 48.1689 128.463 48.0479 128.295 47.9814C128.127 47.9111 127.926 47.876 127.691 47.876C127.473 47.876 127.279 47.917 127.111 47.999C126.947 48.0771 126.809 48.1885 126.695 48.333C126.582 48.4736 126.496 48.6357 126.438 48.8193C126.383 49.0029 126.355 49.2021 126.355 49.417ZM135.75 51.4795C135.75 51.3389 135.715 51.2119 135.645 51.0986C135.574 50.9814 135.439 50.876 135.24 50.7822C135.045 50.6885 134.756 50.6025 134.373 50.5244C134.037 50.4502 133.729 50.3623 133.447 50.2607C133.17 50.1553 132.932 50.0283 132.732 49.8799C132.533 49.7314 132.379 49.5557 132.27 49.3525C132.16 49.1494 132.105 48.915 132.105 48.6494C132.105 48.3916 132.162 48.1475 132.275 47.917C132.389 47.6865 132.551 47.4834 132.762 47.3076C132.973 47.1318 133.229 46.9932 133.529 46.8916C133.834 46.79 134.174 46.7393 134.549 46.7393C135.08 46.7393 135.535 46.8291 135.914 47.0088C136.297 47.1846 136.59 47.4248 136.793 47.7295C136.996 48.0303 137.098 48.3701 137.098 48.749H135.686C135.686 48.5811 135.643 48.4248 135.557 48.2803C135.475 48.1318 135.35 48.0127 135.182 47.9229C135.014 47.8291 134.803 47.7822 134.549 47.7822C134.307 47.7822 134.105 47.8213 133.945 47.8994C133.789 47.9736 133.672 48.0713 133.594 48.1924C133.52 48.3135 133.482 48.4463 133.482 48.5908C133.482 48.6963 133.502 48.792 133.541 48.8779C133.584 48.96 133.654 49.0361 133.752 49.1064C133.85 49.1729 133.982 49.2354 134.15 49.2939C134.322 49.3525 134.537 49.4092 134.795 49.4639C135.279 49.5654 135.695 49.6963 136.043 49.8564C136.395 50.0127 136.664 50.2158 136.852 50.4658C137.039 50.7119 137.133 51.0244 137.133 51.4033C137.133 51.6846 137.072 51.9424 136.951 52.1768C136.834 52.4072 136.662 52.6084 136.436 52.7803C136.209 52.9482 135.938 53.0791 135.621 53.1729C135.309 53.2666 134.957 53.3135 134.566 53.3135C133.992 53.3135 133.506 53.2119 133.107 53.0088C132.709 52.8018 132.406 52.5381 132.199 52.2178C131.996 51.8936 131.895 51.5576 131.895 51.21H133.26C133.275 51.4717 133.348 51.6807 133.477 51.8369C133.609 51.9893 133.773 52.1006 133.969 52.1709C134.168 52.2373 134.373 52.2705 134.584 52.2705C134.838 52.2705 135.051 52.2373 135.223 52.1709C135.395 52.1006 135.525 52.0068 135.615 51.8896C135.705 51.7686 135.75 51.6318 135.75 51.4795ZM140.293 44.1963V53.1963H138.875V44.1963H140.293ZM144.23 46.8564L141.471 49.915L139.959 51.4619L139.59 50.2666L140.732 48.8545L142.525 46.8564H144.23ZM142.83 53.1963L140.773 50.2197L141.664 49.2295L144.465 53.1963H142.83ZM110.496 65.4795C110.496 65.3389 110.461 65.2119 110.391 65.0986C110.32 64.9814 110.186 64.876 109.986 64.7822C109.791 64.6885 109.502 64.6025 109.119 64.5244C108.783 64.4502 108.475 64.3623 108.193 64.2607C107.916 64.1553 107.678 64.0283 107.479 63.8799C107.279 63.7314 107.125 63.5557 107.016 63.3525C106.906 63.1494 106.852 62.915 106.852 62.6494C106.852 62.3916 106.908 62.1475 107.021 61.917C107.135 61.6865 107.297 61.4834 107.508 61.3076C107.719 61.1318 107.975 60.9932 108.275 60.8916C108.58 60.79 108.92 60.7393 109.295 60.7393C109.826 60.7393 110.281 60.8291 110.66 61.0088C111.043 61.1846 111.336 61.4248 111.539 61.7295C111.742 62.0303 111.844 62.3701 111.844 62.749H110.432C110.432 62.5811 110.389 62.4248 110.303 62.2803C110.221 62.1318 110.096 62.0127 109.928 61.9229C109.76 61.8291 109.549 61.7822 109.295 61.7822C109.053 61.7822 108.852 61.8213 108.691 61.8994C108.535 61.9736 108.418 62.0713 108.34 62.1924C108.266 62.3135 108.229 62.4463 108.229 62.5908C108.229 62.6963 108.248 62.792 108.287 62.8779C108.33 62.96 108.4 63.0361 108.498 63.1064C108.596 63.1729 108.729 63.2354 108.896 63.2939C109.068 63.3525 109.283 63.4092 109.541 63.4639C110.025 63.5654 110.441 63.6963 110.789 63.8564C111.141 64.0127 111.41 64.2158 111.598 64.4658C111.785 64.7119 111.879 65.0244 111.879 65.4033C111.879 65.6846 111.818 65.9424 111.697 66.1768C111.58 66.4072 111.408 66.6084 111.182 66.7803C110.955 66.9482 110.684 67.0791 110.367 67.1729C110.055 67.2666 109.703 67.3135 109.312 67.3135C108.738 67.3135 108.252 67.2119 107.854 67.0088C107.455 66.8018 107.152 66.5381 106.945 66.2178C106.742 65.8936 106.641 65.5576 106.641 65.21H108.006C108.021 65.4717 108.094 65.6807 108.223 65.8369C108.355 65.9893 108.52 66.1006 108.715 66.1709C108.914 66.2373 109.119 66.2705 109.33 66.2705C109.584 66.2705 109.797 66.2373 109.969 66.1709C110.141 66.1006 110.271 66.0068 110.361 65.8896C110.451 65.7686 110.496 65.6318 110.496 65.4795ZM116.521 60.8564V61.8877H112.947V60.8564H116.521ZM113.979 59.3037H115.391V65.4443C115.391 65.6396 115.418 65.79 115.473 65.8955C115.531 65.9971 115.611 66.0654 115.713 66.1006C115.814 66.1357 115.934 66.1533 116.07 66.1533C116.168 66.1533 116.262 66.1475 116.352 66.1357C116.441 66.124 116.514 66.1123 116.568 66.1006L116.574 67.1787C116.457 67.2139 116.32 67.2451 116.164 67.2725C116.012 67.2998 115.836 67.3135 115.637 67.3135C115.312 67.3135 115.025 67.2568 114.775 67.1436C114.525 67.0264 114.33 66.8369 114.189 66.5752C114.049 66.3135 113.979 65.9658 113.979 65.5322V59.3037ZM121.686 65.9248V62.9014C121.686 62.6748 121.645 62.4795 121.562 62.3154C121.48 62.1514 121.355 62.0244 121.188 61.9346C121.023 61.8447 120.816 61.7998 120.566 61.7998C120.336 61.7998 120.137 61.8389 119.969 61.917C119.801 61.9951 119.67 62.1006 119.576 62.2334C119.482 62.3662 119.436 62.5166 119.436 62.6846H118.029C118.029 62.4346 118.09 62.1924 118.211 61.958C118.332 61.7236 118.508 61.5146 118.738 61.3311C118.969 61.1475 119.244 61.0029 119.564 60.8975C119.885 60.792 120.244 60.7393 120.643 60.7393C121.119 60.7393 121.541 60.8193 121.908 60.9795C122.279 61.1396 122.57 61.3818 122.781 61.7061C122.996 62.0264 123.104 62.4287 123.104 62.9131V65.7314C123.104 66.0205 123.123 66.2803 123.162 66.5107C123.205 66.7373 123.266 66.9346 123.344 67.1025V67.1963H121.896C121.83 67.0439 121.777 66.8506 121.738 66.6162C121.703 66.3779 121.686 66.1475 121.686 65.9248ZM121.891 63.3408L121.902 64.2139H120.889C120.627 64.2139 120.396 64.2393 120.197 64.29C119.998 64.3369 119.832 64.4072 119.699 64.501C119.566 64.5947 119.467 64.708 119.4 64.8408C119.334 64.9736 119.301 65.124 119.301 65.292C119.301 65.46 119.34 65.6143 119.418 65.7549C119.496 65.8916 119.609 65.999 119.758 66.0771C119.91 66.1553 120.094 66.1943 120.309 66.1943C120.598 66.1943 120.85 66.1357 121.064 66.0186C121.283 65.8975 121.455 65.751 121.58 65.5791C121.705 65.4033 121.771 65.2373 121.779 65.0811L122.236 65.708C122.189 65.8682 122.109 66.04 121.996 66.2236C121.883 66.4072 121.734 66.583 121.551 66.751C121.371 66.915 121.154 67.0498 120.9 67.1553C120.65 67.2607 120.361 67.3135 120.033 67.3135C119.619 67.3135 119.25 67.2314 118.926 67.0674C118.602 66.8994 118.348 66.6748 118.164 66.3936C117.98 66.1084 117.889 65.7861 117.889 65.4268C117.889 65.0908 117.951 64.7939 118.076 64.5361C118.205 64.2744 118.393 64.0557 118.639 63.8799C118.889 63.7041 119.193 63.5713 119.553 63.4814C119.912 63.3877 120.322 63.3408 120.783 63.3408H121.891ZM127.986 60.8564V61.8877H124.412V60.8564H127.986ZM125.443 59.3037H126.855V65.4443C126.855 65.6396 126.883 65.79 126.938 65.8955C126.996 65.9971 127.076 66.0654 127.178 66.1006C127.279 66.1357 127.398 66.1533 127.535 66.1533C127.633 66.1533 127.727 66.1475 127.816 66.1357C127.906 66.124 127.979 66.1123 128.033 66.1006L128.039 67.1787C127.922 67.2139 127.785 67.2451 127.629 67.2725C127.477 67.2998 127.301 67.3135 127.102 67.3135C126.777 67.3135 126.49 67.2568 126.24 67.1436C125.99 67.0264 125.795 66.8369 125.654 66.5752C125.514 66.3135 125.443 65.9658 125.443 65.5322V59.3037ZM132.371 67.3135C131.902 67.3135 131.479 67.2373 131.1 67.085C130.725 66.9287 130.404 66.7119 130.139 66.4346C129.877 66.1572 129.676 65.8311 129.535 65.4561C129.395 65.0811 129.324 64.6768 129.324 64.2432V64.0088C129.324 63.5127 129.396 63.0635 129.541 62.6611C129.686 62.2588 129.887 61.915 130.145 61.6299C130.402 61.3408 130.707 61.1201 131.059 60.9678C131.41 60.8154 131.791 60.7393 132.201 60.7393C132.654 60.7393 133.051 60.8154 133.391 60.9678C133.73 61.1201 134.012 61.335 134.234 61.6123C134.461 61.8857 134.629 62.2119 134.738 62.5908C134.852 62.9697 134.908 63.3877 134.908 63.8447V64.4482H130.01V63.4346H133.514V63.3232C133.506 63.0693 133.455 62.8311 133.361 62.6084C133.271 62.3857 133.133 62.2061 132.945 62.0693C132.758 61.9326 132.508 61.8643 132.195 61.8643C131.961 61.8643 131.752 61.915 131.568 62.0166C131.389 62.1143 131.238 62.2568 131.117 62.4443C130.996 62.6318 130.902 62.8584 130.836 63.124C130.773 63.3857 130.742 63.6807 130.742 64.0088V64.2432C130.742 64.5205 130.779 64.7783 130.854 65.0166C130.932 65.251 131.045 65.4561 131.193 65.6318C131.342 65.8076 131.521 65.9463 131.732 66.0479C131.943 66.1455 132.184 66.1943 132.453 66.1943C132.793 66.1943 133.096 66.126 133.361 65.9893C133.627 65.8525 133.857 65.6592 134.053 65.4092L134.797 66.1299C134.66 66.3291 134.482 66.5205 134.264 66.7041C134.045 66.8838 133.777 67.0303 133.461 67.1436C133.148 67.2568 132.785 67.3135 132.371 67.3135ZM110.754 79.7021V74.8564H112.172V81.1963H110.836L110.754 79.7021ZM110.953 78.3838L111.428 78.3721C111.428 78.7979 111.381 79.1904 111.287 79.5498C111.193 79.9053 111.049 80.2158 110.854 80.4814C110.658 80.7432 110.408 80.9482 110.104 81.0967C109.799 81.2412 109.434 81.3135 109.008 81.3135C108.699 81.3135 108.416 81.2686 108.158 81.1787C107.9 81.0889 107.678 80.9502 107.49 80.7627C107.307 80.5752 107.164 80.3311 107.062 80.0303C106.961 79.7295 106.91 79.3701 106.91 78.9521V74.8564H108.322V78.9639C108.322 79.1943 108.35 79.3877 108.404 79.5439C108.459 79.6963 108.533 79.8193 108.627 79.9131C108.721 80.0068 108.83 80.0732 108.955 80.1123C109.08 80.1514 109.213 80.1709 109.354 80.1709C109.756 80.1709 110.072 80.0928 110.303 79.9365C110.537 79.7764 110.703 79.5615 110.801 79.292C110.902 79.0225 110.953 78.7197 110.953 78.3838ZM115.52 76.21V81.1963H114.107V74.8564H115.438L115.52 76.21ZM115.268 77.792L114.811 77.7861C114.814 77.3369 114.877 76.9248 114.998 76.5498C115.123 76.1748 115.295 75.8525 115.514 75.583C115.736 75.3135 116.002 75.1064 116.311 74.9619C116.619 74.8135 116.963 74.7393 117.342 74.7393C117.646 74.7393 117.922 74.7822 118.168 74.8682C118.418 74.9502 118.631 75.085 118.807 75.2725C118.986 75.46 119.123 75.7041 119.217 76.0049C119.311 76.3018 119.357 76.667 119.357 77.1006V81.1963H117.939V77.0947C117.939 76.79 117.895 76.5498 117.805 76.374C117.719 76.1943 117.592 76.0674 117.424 75.9932C117.26 75.915 117.055 75.876 116.809 75.876C116.566 75.876 116.35 75.9268 116.158 76.0283C115.967 76.1299 115.805 76.2686 115.672 76.4443C115.543 76.6201 115.443 76.8232 115.373 77.0537C115.303 77.2842 115.268 77.5303 115.268 77.792ZM122.811 74.8564V81.1963H121.393V74.8564H122.811ZM121.299 73.1924C121.299 72.9775 121.369 72.7998 121.51 72.6592C121.654 72.5146 121.854 72.4424 122.107 72.4424C122.357 72.4424 122.555 72.5146 122.699 72.6592C122.844 72.7998 122.916 72.9775 122.916 73.1924C122.916 73.4033 122.844 73.5791 122.699 73.7197C122.555 73.8604 122.357 73.9307 122.107 73.9307C121.854 73.9307 121.654 73.8604 121.51 73.7197C121.369 73.5791 121.299 73.4033 121.299 73.1924ZM126.92 80.0771L128.473 74.8564H129.938L127.734 81.1963H126.82L126.92 80.0771ZM125.73 74.8564L127.312 80.1006L127.389 81.1963H126.475L124.26 74.8564H125.73ZM134.023 81.3135C133.555 81.3135 133.131 81.2373 132.752 81.085C132.377 80.9287 132.057 80.7119 131.791 80.4346C131.529 80.1572 131.328 79.8311 131.188 79.4561C131.047 79.0811 130.977 78.6768 130.977 78.2432V78.0088C130.977 77.5127 131.049 77.0635 131.193 76.6611C131.338 76.2588 131.539 75.915 131.797 75.6299C132.055 75.3408 132.359 75.1201 132.711 74.9678C133.062 74.8154 133.443 74.7393 133.854 74.7393C134.307 74.7393 134.703 74.8154 135.043 74.9678C135.383 75.1201 135.664 75.335 135.887 75.6123C136.113 75.8857 136.281 76.2119 136.391 76.5908C136.504 76.9697 136.561 77.3877 136.561 77.8447V78.4482H131.662V77.4346H135.166V77.3232C135.158 77.0693 135.107 76.8311 135.014 76.6084C134.924 76.3857 134.785 76.2061 134.598 76.0693C134.41 75.9326 134.16 75.8643 133.848 75.8643C133.613 75.8643 133.404 75.915 133.221 76.0166C133.041 76.1143 132.891 76.2568 132.77 76.4443C132.648 76.6318 132.555 76.8584 132.488 77.124C132.426 77.3857 132.395 77.6807 132.395 78.0088V78.2432C132.395 78.5205 132.432 78.7783 132.506 79.0166C132.584 79.251 132.697 79.4561 132.846 79.6318C132.994 79.8076 133.174 79.9463 133.385 80.0479C133.596 80.1455 133.836 80.1943 134.105 80.1943C134.445 80.1943 134.748 80.126 135.014 79.9893C135.279 79.8525 135.51 79.6592 135.705 79.4092L136.449 80.1299C136.312 80.3291 136.135 80.5205 135.916 80.7041C135.697 80.8838 135.43 81.0303 135.113 81.1436C134.801 81.2568 134.438 81.3135 134.023 81.3135ZM139.58 76.0635V81.1963H138.168V74.8564H139.516L139.58 76.0635ZM141.52 74.8154L141.508 76.1279C141.422 76.1123 141.328 76.1006 141.227 76.0928C141.129 76.085 141.031 76.0811 140.934 76.0811C140.691 76.0811 140.479 76.1162 140.295 76.1865C140.111 76.2529 139.957 76.3506 139.832 76.4795C139.711 76.6045 139.617 76.7568 139.551 76.9365C139.484 77.1162 139.445 77.3174 139.434 77.54L139.111 77.5635C139.111 77.165 139.15 76.7959 139.229 76.4561C139.307 76.1162 139.424 75.8174 139.58 75.5596C139.74 75.3018 139.939 75.1006 140.178 74.9561C140.42 74.8115 140.699 74.7393 141.016 74.7393C141.102 74.7393 141.193 74.7471 141.291 74.7627C141.393 74.7783 141.469 74.7959 141.52 74.8154ZM146.461 79.4795C146.461 79.3389 146.426 79.2119 146.355 79.0986C146.285 78.9814 146.15 78.876 145.951 78.7822C145.756 78.6885 145.467 78.6025 145.084 78.5244C144.748 78.4502 144.439 78.3623 144.158 78.2607C143.881 78.1553 143.643 78.0283 143.443 77.8799C143.244 77.7314 143.09 77.5557 142.98 77.3525C142.871 77.1494 142.816 76.915 142.816 76.6494C142.816 76.3916 142.873 76.1475 142.986 75.917C143.1 75.6865 143.262 75.4834 143.473 75.3076C143.684 75.1318 143.939 74.9932 144.24 74.8916C144.545 74.79 144.885 74.7393 145.26 74.7393C145.791 74.7393 146.246 74.8291 146.625 75.0088C147.008 75.1846 147.301 75.4248 147.504 75.7295C147.707 76.0303 147.809 76.3701 147.809 76.749H146.396C146.396 76.5811 146.354 76.4248 146.268 76.2803C146.186 76.1318 146.061 76.0127 145.893 75.9229C145.725 75.8291 145.514 75.7822 145.26 75.7822C145.018 75.7822 144.816 75.8213 144.656 75.8994C144.5 75.9736 144.383 76.0713 144.305 76.1924C144.23 76.3135 144.193 76.4463 144.193 76.5908C144.193 76.6963 144.213 76.792 144.252 76.8779C144.295 76.96 144.365 77.0361 144.463 77.1064C144.561 77.1729 144.693 77.2354 144.861 77.2939C145.033 77.3525 145.248 77.4092 145.506 77.4639C145.99 77.5654 146.406 77.6963 146.754 77.8564C147.105 78.0127 147.375 78.2158 147.562 78.4658C147.75 78.7119 147.844 79.0244 147.844 79.4033C147.844 79.6846 147.783 79.9424 147.662 80.1768C147.545 80.4072 147.373 80.6084 147.146 80.7803C146.92 80.9482 146.648 81.0791 146.332 81.1729C146.02 81.2666 145.668 81.3135 145.277 81.3135C144.703 81.3135 144.217 81.2119 143.818 81.0088C143.42 80.8018 143.117 80.5381 142.91 80.2178C142.707 79.8936 142.605 79.5576 142.605 79.21H143.971C143.986 79.4717 144.059 79.6807 144.188 79.8369C144.32 79.9893 144.484 80.1006 144.68 80.1709C144.879 80.2373 145.084 80.2705 145.295 80.2705C145.549 80.2705 145.762 80.2373 145.934 80.1709C146.105 80.1006 146.236 80.0068 146.326 79.8896C146.416 79.7686 146.461 79.6318 146.461 79.4795ZM151.092 74.8564V81.1963H149.674V74.8564H151.092ZM149.58 73.1924C149.58 72.9775 149.65 72.7998 149.791 72.6592C149.936 72.5146 150.135 72.4424 150.389 72.4424C150.639 72.4424 150.836 72.5146 150.98 72.6592C151.125 72.7998 151.197 72.9775 151.197 73.1924C151.197 73.4033 151.125 73.5791 150.98 73.7197C150.836 73.8604 150.639 73.9307 150.389 73.9307C150.135 73.9307 149.936 73.8604 149.791 73.7197C149.65 73.5791 149.58 73.4033 149.58 73.1924ZM156.045 74.8564V75.8877H152.471V74.8564H156.045ZM153.502 73.3037H154.914V79.4443C154.914 79.6396 154.941 79.79 154.996 79.8955C155.055 79.9971 155.135 80.0654 155.236 80.1006C155.338 80.1357 155.457 80.1533 155.594 80.1533C155.691 80.1533 155.785 80.1475 155.875 80.1357C155.965 80.124 156.037 80.1123 156.092 80.1006L156.098 81.1787C155.98 81.2139 155.844 81.2451 155.688 81.2725C155.535 81.2998 155.359 81.3135 155.16 81.3135C154.836 81.3135 154.549 81.2568 154.299 81.1436C154.049 81.0264 153.854 80.8369 153.713 80.5752C153.572 80.3135 153.502 79.9658 153.502 79.5322V73.3037ZM159.475 80.5049L161.197 74.8564H162.709L160.166 82.1631C160.107 82.3193 160.031 82.4893 159.938 82.6729C159.844 82.8564 159.721 83.0303 159.568 83.1943C159.42 83.3623 159.234 83.4971 159.012 83.5986C158.789 83.7041 158.52 83.7568 158.203 83.7568C158.078 83.7568 157.957 83.7451 157.84 83.7217C157.727 83.7021 157.619 83.6807 157.518 83.6572L157.512 82.5791C157.551 82.583 157.598 82.5869 157.652 82.5908C157.711 82.5947 157.758 82.5967 157.793 82.5967C158.027 82.5967 158.223 82.5674 158.379 82.5088C158.535 82.4541 158.662 82.3643 158.76 82.2393C158.861 82.1143 158.947 81.9463 159.018 81.7354L159.475 80.5049ZM158.502 74.8564L160.008 79.6025L160.26 81.0908L159.281 81.3428L156.979 74.8564H158.502Z" fill="white"/>
<defs>
<clipPath id="clip0_238_16102">
<rect width="94.2128" height="108" fill="white"/>
</clipPath>
</defs>
</svg>
