<svg width="224" height="116" viewBox="0 0 224 116" fill="none" xmlns="http://www.w3.org/2000/svg">
<g filter="url(#filter0_d_244_16955)">
<path d="M113.281 16.5684V17.0283H110.973V16.5684H113.281ZM111.061 14.7344V19H110.495V14.7344H111.061ZM113.773 14.7344V19H113.211V14.7344H113.773ZM117.065 18.458V16.8262C117.065 16.7012 117.04 16.5928 116.989 16.501C116.94 16.4072 116.866 16.335 116.767 16.2842C116.667 16.2334 116.544 16.208 116.397 16.208C116.261 16.208 116.141 16.2314 116.037 16.2783C115.936 16.3252 115.855 16.3867 115.797 16.4629C115.74 16.5391 115.712 16.6211 115.712 16.709H115.17C115.17 16.5957 115.199 16.4834 115.258 16.3721C115.316 16.2607 115.4 16.1602 115.51 16.0703C115.621 15.9785 115.754 15.9062 115.908 15.8535C116.064 15.7988 116.238 15.7715 116.43 15.7715C116.66 15.7715 116.863 15.8105 117.039 15.8887C117.217 15.9668 117.355 16.085 117.455 16.2432C117.557 16.3994 117.607 16.5957 117.607 16.832V18.3086C117.607 18.4141 117.616 18.5264 117.634 18.6455C117.653 18.7646 117.682 18.8672 117.719 18.9531V19H117.153C117.126 18.9375 117.104 18.8545 117.089 18.751C117.073 18.6455 117.065 18.5479 117.065 18.458ZM117.159 17.0781L117.165 17.459H116.617C116.463 17.459 116.325 17.4717 116.204 17.4971C116.083 17.5205 115.981 17.5566 115.899 17.6055C115.817 17.6543 115.755 17.7158 115.712 17.79C115.669 17.8623 115.647 17.9473 115.647 18.0449C115.647 18.1445 115.67 18.2354 115.715 18.3174C115.76 18.3994 115.827 18.4648 115.917 18.5137C116.009 18.5605 116.121 18.584 116.254 18.584C116.42 18.584 116.566 18.5488 116.693 18.4785C116.82 18.4082 116.921 18.3223 116.995 18.2207C117.071 18.1191 117.112 18.0205 117.118 17.9248L117.35 18.1855C117.336 18.2676 117.299 18.3584 117.238 18.458C117.178 18.5576 117.097 18.6533 116.995 18.7451C116.896 18.835 116.776 18.9102 116.638 18.9707C116.501 19.0293 116.347 19.0586 116.175 19.0586C115.96 19.0586 115.771 19.0166 115.609 18.9326C115.449 18.8486 115.324 18.7363 115.234 18.5957C115.146 18.4531 115.103 18.2939 115.103 18.1182C115.103 17.9482 115.136 17.7988 115.202 17.6699C115.269 17.5391 115.364 17.4307 115.489 17.3447C115.614 17.2568 115.765 17.1904 115.94 17.1455C116.116 17.1006 116.312 17.0781 116.529 17.0781H117.159ZM119.007 19V15.8301H119.549V18.5547H121.008V15.8301H121.553V19H119.007ZM121.928 18.5547L121.875 19.9404H121.392V19H120.979V18.5547H121.928ZM123.603 18.1416L125.064 15.8301H125.609V19H125.064V16.6885L123.603 19H123.063V15.8301H123.603V18.1416ZM126.836 17.4502V17.3828C126.836 17.1543 126.869 16.9424 126.936 16.7471C127.002 16.5498 127.098 16.3789 127.223 16.2344C127.348 16.0879 127.499 15.9746 127.677 15.8945C127.854 15.8125 128.054 15.7715 128.274 15.7715C128.497 15.7715 128.697 15.8125 128.875 15.8945C129.055 15.9746 129.207 16.0879 129.332 16.2344C129.459 16.3789 129.556 16.5498 129.622 16.7471C129.688 16.9424 129.722 17.1543 129.722 17.3828V17.4502C129.722 17.6787 129.688 17.8906 129.622 18.0859C129.556 18.2812 129.459 18.4521 129.332 18.5986C129.207 18.7432 129.056 18.8564 128.878 18.9385C128.702 19.0186 128.503 19.0586 128.28 19.0586C128.058 19.0586 127.857 19.0186 127.68 18.9385C127.502 18.8564 127.35 18.7432 127.223 18.5986C127.098 18.4521 127.002 18.2812 126.936 18.0859C126.869 17.8906 126.836 17.6787 126.836 17.4502ZM127.378 17.3828V17.4502C127.378 17.6084 127.396 17.7578 127.434 17.8984C127.471 18.0371 127.526 18.1602 127.601 18.2676C127.677 18.375 127.771 18.46 127.885 18.5225C127.998 18.583 128.13 18.6133 128.28 18.6133C128.429 18.6133 128.559 18.583 128.67 18.5225C128.783 18.46 128.877 18.375 128.951 18.2676C129.025 18.1602 129.081 18.0371 129.118 17.8984C129.157 17.7578 129.177 17.6084 129.177 17.4502V17.3828C129.177 17.2266 129.157 17.0791 129.118 16.9404C129.081 16.7998 129.024 16.6758 128.948 16.5684C128.874 16.459 128.78 16.373 128.667 16.3105C128.556 16.248 128.425 16.2168 128.274 16.2168C128.126 16.2168 127.995 16.248 127.882 16.3105C127.771 16.373 127.677 16.459 127.601 16.5684C127.526 16.6758 127.471 16.7998 127.434 16.9404C127.396 17.0791 127.378 17.2266 127.378 17.3828ZM133.052 17.2041V17.6436H131.376V17.2041H133.052ZM131.49 15.8301V19H130.948V15.8301H131.49ZM133.491 15.8301V19H132.946V15.8301H133.491ZM136.733 18.458V16.8262C136.733 16.7012 136.708 16.5928 136.657 16.501C136.608 16.4072 136.534 16.335 136.435 16.2842C136.335 16.2334 136.212 16.208 136.065 16.208C135.929 16.208 135.809 16.2314 135.705 16.2783C135.604 16.3252 135.523 16.3867 135.465 16.4629C135.408 16.5391 135.38 16.6211 135.38 16.709H134.838C134.838 16.5957 134.867 16.4834 134.926 16.3721C134.984 16.2607 135.068 16.1602 135.178 16.0703C135.289 15.9785 135.422 15.9062 135.576 15.8535C135.732 15.7988 135.906 15.7715 136.098 15.7715C136.328 15.7715 136.531 15.8105 136.707 15.8887C136.885 15.9668 137.023 16.085 137.123 16.2432C137.225 16.3994 137.275 16.5957 137.275 16.832V18.3086C137.275 18.4141 137.284 18.5264 137.302 18.6455C137.321 18.7646 137.35 18.8672 137.387 18.9531V19H136.821C136.794 18.9375 136.772 18.8545 136.757 18.751C136.741 18.6455 136.733 18.5479 136.733 18.458ZM136.827 17.0781L136.833 17.459H136.285C136.131 17.459 135.993 17.4717 135.872 17.4971C135.751 17.5205 135.649 17.5566 135.567 17.6055C135.485 17.6543 135.423 17.7158 135.38 17.79C135.337 17.8623 135.315 17.9473 135.315 18.0449C135.315 18.1445 135.338 18.2354 135.383 18.3174C135.428 18.3994 135.495 18.4648 135.585 18.5137C135.677 18.5605 135.789 18.584 135.922 18.584C136.088 18.584 136.234 18.5488 136.361 18.4785C136.488 18.4082 136.589 18.3223 136.663 18.2207C136.739 18.1191 136.78 18.0205 136.786 17.9248L137.018 18.1855C137.004 18.2676 136.967 18.3584 136.906 18.458C136.846 18.5576 136.765 18.6533 136.663 18.7451C136.563 18.835 136.444 18.9102 136.306 18.9707C136.169 19.0293 136.015 19.0586 135.843 19.0586C135.628 19.0586 135.439 19.0166 135.277 18.9326C135.117 18.8486 134.992 18.7363 134.902 18.5957C134.814 18.4531 134.771 18.2939 134.771 18.1182C134.771 17.9482 134.804 17.7988 134.87 17.6699C134.937 17.5391 135.032 17.4307 135.157 17.3447C135.282 17.2568 135.433 17.1904 135.608 17.1455C135.784 17.1006 135.98 17.0781 136.197 17.0781H136.827ZM140.746 15.8301V16.2783H139.214V15.8301H140.746ZM141.224 15.8301V19H140.682V15.8301H141.224ZM139.082 15.8301H139.627L139.545 17.3594C139.531 17.5957 139.509 17.8047 139.478 17.9863C139.448 18.166 139.407 18.3203 139.354 18.4492C139.304 18.5781 139.239 18.6836 139.161 18.7656C139.085 18.8457 138.993 18.9053 138.886 18.9443C138.778 18.9814 138.654 19 138.514 19H138.344V18.5225L138.461 18.5137C138.545 18.5078 138.616 18.4883 138.675 18.4551C138.735 18.4219 138.786 18.373 138.827 18.3086C138.868 18.2422 138.901 18.1572 138.927 18.0537C138.954 17.9502 138.975 17.8271 138.988 17.6846C139.004 17.542 139.016 17.376 139.023 17.1865L139.082 15.8301ZM143.042 16.9199H143.994C144.25 16.9199 144.466 16.9648 144.642 17.0547C144.817 17.1426 144.95 17.2646 145.04 17.4209C145.132 17.5752 145.178 17.751 145.178 17.9482C145.178 18.0947 145.152 18.2324 145.102 18.3613C145.051 18.4883 144.975 18.5996 144.873 18.6953C144.773 18.791 144.649 18.8662 144.501 18.9209C144.354 18.9736 144.186 19 143.994 19H142.646V15.8301H143.188V18.5547H143.994C144.15 18.5547 144.275 18.5264 144.369 18.4697C144.463 18.4131 144.53 18.3398 144.571 18.25C144.612 18.1602 144.633 18.0664 144.633 17.9688C144.633 17.873 144.612 17.7793 144.571 17.6875C144.53 17.5957 144.463 17.5195 144.369 17.459C144.275 17.3965 144.15 17.3652 143.994 17.3652H143.042V16.9199ZM148.505 17.2041V17.6436H146.829V17.2041H148.505ZM146.943 15.8301V19H146.401V15.8301H146.943ZM148.944 15.8301V19H148.399V15.8301H148.944ZM150.763 16.9199H151.715C151.971 16.9199 152.187 16.9648 152.362 17.0547C152.538 17.1426 152.671 17.2646 152.761 17.4209C152.853 17.5752 152.898 17.751 152.898 17.9482C152.898 18.0947 152.873 18.2324 152.822 18.3613C152.771 18.4883 152.695 18.5996 152.594 18.6953C152.494 18.791 152.37 18.8662 152.222 18.9209C152.075 18.9736 151.906 19 151.715 19H150.367V15.8301H150.909V18.5547H151.715C151.871 18.5547 151.996 18.5264 152.09 18.4697C152.184 18.4131 152.251 18.3398 152.292 18.25C152.333 18.1602 152.354 18.0664 152.354 17.9688C152.354 17.873 152.333 17.7793 152.292 17.6875C152.251 17.5957 152.184 17.5195 152.09 17.459C151.996 17.3965 151.871 17.3652 151.715 17.3652H150.763V16.9199ZM154.026 15.8301V19H153.484V15.8301H154.026ZM156.062 18.1416L157.523 15.8301H158.068V19H157.523V16.6885L156.062 19H155.522V15.8301H156.062V18.1416ZM157.228 14.6816H157.667C157.667 14.834 157.632 14.9697 157.562 15.0889C157.491 15.2061 157.391 15.2979 157.26 15.3643C157.129 15.4307 156.974 15.4639 156.794 15.4639C156.522 15.4639 156.308 15.3916 156.149 15.2471C155.993 15.1006 155.915 14.9121 155.915 14.6816H156.354C156.354 14.7969 156.388 14.8984 156.454 14.9863C156.521 15.0742 156.634 15.1182 156.794 15.1182C156.95 15.1182 157.062 15.0742 157.128 14.9863C157.194 14.8984 157.228 14.7969 157.228 14.6816ZM110.999 28.1416L112.461 25.8301H113.006V29H112.461V26.6885L110.999 29H110.46V25.8301H110.999V28.1416ZM115.645 28.6133C115.773 28.6133 115.893 28.5869 116.002 28.5342C116.111 28.4814 116.201 28.4092 116.271 28.3174C116.342 28.2236 116.382 28.1172 116.392 27.998H116.907C116.897 28.1855 116.834 28.3604 116.717 28.5225C116.602 28.6826 116.45 28.8125 116.263 28.9121C116.075 29.0098 115.869 29.0586 115.645 29.0586C115.406 29.0586 115.198 29.0166 115.021 28.9326C114.845 28.8486 114.698 28.7334 114.581 28.5869C114.466 28.4404 114.379 28.2725 114.32 28.083C114.264 27.8916 114.235 27.6895 114.235 27.4766V27.3535C114.235 27.1406 114.264 26.9395 114.32 26.75C114.379 26.5586 114.466 26.3896 114.581 26.2432C114.698 26.0967 114.845 25.9814 115.021 25.8975C115.198 25.8135 115.406 25.7715 115.645 25.7715C115.893 25.7715 116.109 25.8223 116.295 25.9238C116.48 26.0234 116.626 26.1602 116.731 26.334C116.839 26.5059 116.897 26.7012 116.907 26.9199H116.392C116.382 26.7891 116.345 26.6709 116.28 26.5654C116.218 26.46 116.132 26.376 116.022 26.3135C115.915 26.249 115.789 26.2168 115.645 26.2168C115.479 26.2168 115.339 26.25 115.226 26.3164C115.114 26.3809 115.025 26.4688 114.959 26.5801C114.895 26.6895 114.848 26.8115 114.818 26.9463C114.791 27.0791 114.777 27.2148 114.777 27.3535V27.4766C114.777 27.6152 114.791 27.752 114.818 27.8867C114.846 28.0215 114.892 28.1436 114.956 28.2529C115.022 28.3623 115.111 28.4502 115.223 28.5166C115.336 28.5811 115.477 28.6133 115.645 28.6133ZM119.285 28.6133C119.414 28.6133 119.533 28.5869 119.643 28.5342C119.752 28.4814 119.842 28.4092 119.912 28.3174C119.982 28.2236 120.022 28.1172 120.032 27.998H120.548C120.538 28.1855 120.475 28.3604 120.357 28.5225C120.242 28.6826 120.091 28.8125 119.903 28.9121C119.716 29.0098 119.51 29.0586 119.285 29.0586C119.047 29.0586 118.839 29.0166 118.661 28.9326C118.485 28.8486 118.339 28.7334 118.222 28.5869C118.106 28.4404 118.02 28.2725 117.961 28.083C117.904 27.8916 117.876 27.6895 117.876 27.4766V27.3535C117.876 27.1406 117.904 26.9395 117.961 26.75C118.02 26.5586 118.106 26.3896 118.222 26.2432C118.339 26.0967 118.485 25.9814 118.661 25.8975C118.839 25.8135 119.047 25.7715 119.285 25.7715C119.533 25.7715 119.75 25.8223 119.936 25.9238C120.121 26.0234 120.267 26.1602 120.372 26.334C120.479 26.5059 120.538 26.7012 120.548 26.9199H120.032C120.022 26.7891 119.985 26.6709 119.921 26.5654C119.858 26.46 119.772 26.376 119.663 26.3135C119.556 26.249 119.43 26.2168 119.285 26.2168C119.119 26.2168 118.979 26.25 118.866 26.3164C118.755 26.3809 118.666 26.4688 118.6 26.5801C118.535 26.6895 118.488 26.8115 118.459 26.9463C118.432 27.0791 118.418 27.2148 118.418 27.3535V27.4766C118.418 27.6152 118.432 27.752 118.459 27.8867C118.486 28.0215 118.532 28.1436 118.597 28.2529C118.663 28.3623 118.752 28.4502 118.863 28.5166C118.977 28.5811 119.117 28.6133 119.285 28.6133ZM123.775 25.8301V26.2783H122.243V25.8301H123.775ZM124.253 25.8301V29H123.711V25.8301H124.253ZM122.111 25.8301H122.656L122.574 27.3594C122.561 27.5957 122.538 27.8047 122.507 27.9863C122.478 28.166 122.437 28.3203 122.384 28.4492C122.333 28.5781 122.269 28.6836 122.19 28.7656C122.114 28.8457 122.022 28.9053 121.915 28.9443C121.808 28.9814 121.684 29 121.543 29H121.373V28.5225L121.49 28.5137C121.574 28.5078 121.646 28.4883 121.704 28.4551C121.765 28.4219 121.815 28.373 121.856 28.3086C121.897 28.2422 121.931 28.1572 121.956 28.0537C121.983 27.9502 122.004 27.8271 122.018 27.6846C122.033 27.542 122.045 27.376 122.053 27.1865L122.111 25.8301ZM126.941 29.0586C126.721 29.0586 126.521 29.0215 126.341 28.9473C126.163 28.8711 126.01 28.7646 125.881 28.6279C125.754 28.4912 125.656 28.3291 125.588 28.1416C125.52 27.9541 125.485 27.749 125.485 27.5264V27.4033C125.485 27.1455 125.523 26.916 125.6 26.7148C125.676 26.5117 125.779 26.3398 125.91 26.1992C126.041 26.0586 126.189 25.9521 126.355 25.8799C126.521 25.8076 126.693 25.7715 126.871 25.7715C127.098 25.7715 127.293 25.8105 127.457 25.8887C127.623 25.9668 127.759 26.0762 127.864 26.2168C127.97 26.3555 128.048 26.5195 128.099 26.709C128.149 26.8965 128.175 27.1016 128.175 27.3242V27.5674H125.808V27.125H127.633V27.084C127.625 26.9434 127.596 26.8066 127.545 26.6738C127.496 26.541 127.418 26.4316 127.311 26.3457C127.203 26.2598 127.057 26.2168 126.871 26.2168C126.748 26.2168 126.635 26.2432 126.531 26.2959C126.428 26.3467 126.339 26.4229 126.265 26.5244C126.19 26.626 126.133 26.75 126.092 26.8965C126.051 27.043 126.03 27.2119 126.03 27.4033V27.5264C126.03 27.6768 126.051 27.8184 126.092 27.9512C126.135 28.082 126.196 28.1973 126.276 28.2969C126.358 28.3965 126.457 28.4746 126.572 28.5312C126.689 28.5879 126.822 28.6162 126.971 28.6162C127.162 28.6162 127.324 28.5771 127.457 28.499C127.59 28.4209 127.706 28.3164 127.806 28.1855L128.134 28.4463C128.065 28.5498 127.979 28.6484 127.873 28.7422C127.768 28.8359 127.638 28.9121 127.483 28.9707C127.331 29.0293 127.15 29.0586 126.941 29.0586ZM129.879 25.8301H130.421L130.374 27.0166C130.362 27.3174 130.328 27.5771 130.271 27.7959C130.215 28.0146 130.143 28.2012 130.055 28.3555C129.967 28.5078 129.868 28.6357 129.759 28.7393C129.651 28.8428 129.54 28.9297 129.425 29H129.155L129.17 28.5576L129.281 28.5547C129.346 28.4785 129.408 28.4004 129.469 28.3203C129.529 28.2383 129.585 28.1416 129.636 28.0303C129.687 27.917 129.729 27.7793 129.762 27.6172C129.797 27.4531 129.819 27.2529 129.829 27.0166L129.879 25.8301ZM130.014 25.8301H131.921V29H131.379V26.3311H130.014V25.8301ZM129.032 28.5547H132.328V29.9346H131.786V29H129.574V29.9346H129.029L129.032 28.5547ZM133.285 27.4502V27.3828C133.285 27.1543 133.318 26.9424 133.385 26.7471C133.451 26.5498 133.547 26.3789 133.672 26.2344C133.797 26.0879 133.948 25.9746 134.126 25.8945C134.304 25.8125 134.503 25.7715 134.724 25.7715C134.946 25.7715 135.146 25.8125 135.324 25.8945C135.504 25.9746 135.656 26.0879 135.781 26.2344C135.908 26.3789 136.005 26.5498 136.071 26.7471C136.138 26.9424 136.171 27.1543 136.171 27.3828V27.4502C136.171 27.6787 136.138 27.8906 136.071 28.0859C136.005 28.2812 135.908 28.4521 135.781 28.5986C135.656 28.7432 135.505 28.8564 135.327 28.9385C135.151 29.0186 134.952 29.0586 134.729 29.0586C134.507 29.0586 134.307 29.0186 134.129 28.9385C133.951 28.8564 133.799 28.7432 133.672 28.5986C133.547 28.4521 133.451 28.2812 133.385 28.0859C133.318 27.8906 133.285 27.6787 133.285 27.4502ZM133.827 27.3828V27.4502C133.827 27.6084 133.846 27.7578 133.883 27.8984C133.92 28.0371 133.976 28.1602 134.05 28.2676C134.126 28.375 134.221 28.46 134.334 28.5225C134.447 28.583 134.579 28.6133 134.729 28.6133C134.878 28.6133 135.008 28.583 135.119 28.5225C135.232 28.46 135.326 28.375 135.4 28.2676C135.475 28.1602 135.53 28.0371 135.567 27.8984C135.606 27.7578 135.626 27.6084 135.626 27.4502V27.3828C135.626 27.2266 135.606 27.0791 135.567 26.9404C135.53 26.7998 135.474 26.6758 135.397 26.5684C135.323 26.459 135.229 26.373 135.116 26.3105C135.005 26.248 134.874 26.2168 134.724 26.2168C134.575 26.2168 134.444 26.248 134.331 26.3105C134.22 26.373 134.126 26.459 134.05 26.5684C133.976 26.6758 133.92 26.7998 133.883 26.9404C133.846 27.0791 133.827 27.2266 133.827 27.3828ZM138.839 27.6055H137.799L137.793 27.1719H138.643C138.811 27.1719 138.95 27.1553 139.062 27.1221C139.175 27.0889 139.26 27.0391 139.316 26.9727C139.373 26.9062 139.401 26.8242 139.401 26.7266C139.401 26.6504 139.385 26.584 139.352 26.5273C139.32 26.4688 139.272 26.4209 139.208 26.3838C139.144 26.3447 139.063 26.3164 138.968 26.2988C138.874 26.2793 138.764 26.2695 138.637 26.2695H137.942V29H137.4V25.8301H138.637C138.838 25.8301 139.019 25.8477 139.179 25.8828C139.341 25.918 139.479 25.9717 139.592 26.0439C139.707 26.1143 139.795 26.2041 139.855 26.3135C139.916 26.4229 139.946 26.5518 139.946 26.7002C139.946 26.7959 139.927 26.8867 139.888 26.9727C139.849 27.0586 139.791 27.1348 139.715 27.2012C139.639 27.2676 139.545 27.3223 139.434 27.3652C139.322 27.4062 139.194 27.4326 139.05 27.4443L138.839 27.6055ZM138.839 29H137.603L137.872 28.5605H138.839C138.989 28.5605 139.114 28.542 139.214 28.5049C139.313 28.4658 139.388 28.4111 139.437 28.3408C139.487 28.2686 139.513 28.1826 139.513 28.083C139.513 27.9834 139.487 27.8984 139.437 27.8281C139.388 27.7559 139.313 27.7012 139.214 27.6641C139.114 27.625 138.989 27.6055 138.839 27.6055H138.016L138.021 27.1719H139.05L139.246 27.3359C139.42 27.3496 139.567 27.3926 139.688 27.4648C139.81 27.5371 139.901 27.6289 139.964 27.7402C140.026 27.8496 140.058 27.9688 140.058 28.0977C140.058 28.2461 140.029 28.377 139.973 28.4902C139.918 28.6035 139.838 28.6982 139.732 28.7744C139.627 28.8486 139.499 28.9053 139.349 28.9443C139.198 28.9814 139.028 29 138.839 29ZM143.153 28.458V26.8262C143.153 26.7012 143.128 26.5928 143.077 26.501C143.028 26.4072 142.954 26.335 142.854 26.2842C142.755 26.2334 142.632 26.208 142.485 26.208C142.349 26.208 142.229 26.2314 142.125 26.2783C142.023 26.3252 141.943 26.3867 141.885 26.4629C141.828 26.5391 141.8 26.6211 141.8 26.709H141.258C141.258 26.5957 141.287 26.4834 141.346 26.3721C141.404 26.2607 141.488 26.1602 141.598 26.0703C141.709 25.9785 141.842 25.9062 141.996 25.8535C142.152 25.7988 142.326 25.7715 142.518 25.7715C142.748 25.7715 142.951 25.8105 143.127 25.8887C143.305 25.9668 143.443 26.085 143.543 26.2432C143.645 26.3994 143.695 26.5957 143.695 26.832V28.3086C143.695 28.4141 143.704 28.5264 143.722 28.6455C143.741 28.7646 143.77 28.8672 143.807 28.9531V29H143.241C143.214 28.9375 143.192 28.8545 143.177 28.751C143.161 28.6455 143.153 28.5479 143.153 28.458ZM143.247 27.0781L143.253 27.459H142.705C142.551 27.459 142.413 27.4717 142.292 27.4971C142.171 27.5205 142.069 27.5566 141.987 27.6055C141.905 27.6543 141.843 27.7158 141.8 27.79C141.757 27.8623 141.735 27.9473 141.735 28.0449C141.735 28.1445 141.758 28.2354 141.803 28.3174C141.848 28.3994 141.915 28.4648 142.005 28.5137C142.097 28.5605 142.209 28.584 142.342 28.584C142.508 28.584 142.654 28.5488 142.781 28.4785C142.908 28.4082 143.009 28.3223 143.083 28.2207C143.159 28.1191 143.2 28.0205 143.206 27.9248L143.438 28.1855C143.424 28.2676 143.387 28.3584 143.326 28.458C143.266 28.5576 143.185 28.6533 143.083 28.7451C142.983 28.835 142.864 28.9102 142.726 28.9707C142.589 29.0293 142.435 29.0586 142.263 29.0586C142.048 29.0586 141.859 29.0166 141.697 28.9326C141.537 28.8486 141.412 28.7363 141.322 28.5957C141.234 28.4531 141.19 28.2939 141.19 28.1182C141.19 27.9482 141.224 27.7988 141.29 27.6699C141.356 27.5391 141.452 27.4307 141.577 27.3447C141.702 27.2568 141.853 27.1904 142.028 27.1455C142.204 27.1006 142.4 27.0781 142.617 27.0781H143.247ZM146.293 25.8301V29H145.748V25.8301H146.293ZM147.356 25.8301V26.2695H144.705V25.8301H147.356ZM149.471 29.0586C149.25 29.0586 149.05 29.0215 148.87 28.9473C148.692 28.8711 148.539 28.7646 148.41 28.6279C148.283 28.4912 148.186 28.3291 148.117 28.1416C148.049 27.9541 148.015 27.749 148.015 27.5264V27.4033C148.015 27.1455 148.053 26.916 148.129 26.7148C148.205 26.5117 148.309 26.3398 148.439 26.1992C148.57 26.0586 148.719 25.9521 148.885 25.8799C149.051 25.8076 149.223 25.7715 149.4 25.7715C149.627 25.7715 149.822 25.8105 149.986 25.8887C150.152 25.9668 150.288 26.0762 150.394 26.2168C150.499 26.3555 150.577 26.5195 150.628 26.709C150.679 26.8965 150.704 27.1016 150.704 27.3242V27.5674H148.337V27.125H150.162V27.084C150.154 26.9434 150.125 26.8066 150.074 26.6738C150.025 26.541 149.947 26.4316 149.84 26.3457C149.732 26.2598 149.586 26.2168 149.4 26.2168C149.277 26.2168 149.164 26.2432 149.061 26.2959C148.957 26.3467 148.868 26.4229 148.794 26.5244C148.72 26.626 148.662 26.75 148.621 26.8965C148.58 27.043 148.56 27.2119 148.56 27.4033V27.5264C148.56 27.6768 148.58 27.8184 148.621 27.9512C148.664 28.082 148.726 28.1973 148.806 28.2969C148.888 28.3965 148.986 28.4746 149.102 28.5312C149.219 28.5879 149.352 28.6162 149.5 28.6162C149.691 28.6162 149.854 28.5771 149.986 28.499C150.119 28.4209 150.235 28.3164 150.335 28.1855L150.663 28.4463C150.595 28.5498 150.508 28.6484 150.402 28.7422C150.297 28.8359 150.167 28.9121 150.013 28.9707C149.86 29.0293 149.68 29.0586 149.471 29.0586ZM153.955 25.8301V26.2783H152.423V25.8301H153.955ZM154.433 25.8301V29H153.891V25.8301H154.433ZM152.291 25.8301H152.836L152.754 27.3594C152.74 27.5957 152.718 27.8047 152.687 27.9863C152.657 28.166 152.616 28.3203 152.563 28.4492C152.513 28.5781 152.448 28.6836 152.37 28.7656C152.294 28.8457 152.202 28.9053 152.095 28.9443C151.987 28.9814 151.863 29 151.723 29H151.553V28.5225L151.67 28.5137C151.754 28.5078 151.825 28.4883 151.884 28.4551C151.944 28.4219 151.995 28.373 152.036 28.3086C152.077 28.2422 152.11 28.1572 152.136 28.0537C152.163 27.9502 152.184 27.8271 152.197 27.6846C152.213 27.542 152.225 27.376 152.232 27.1865L152.291 25.8301ZM156.251 26.9199H157.203C157.459 26.9199 157.675 26.9648 157.851 27.0547C158.026 27.1426 158.159 27.2646 158.249 27.4209C158.341 27.5752 158.387 27.751 158.387 27.9482C158.387 28.0947 158.361 28.2324 158.311 28.3613C158.26 28.4883 158.184 28.5996 158.082 28.6953C157.982 28.791 157.858 28.8662 157.71 28.9209C157.563 28.9736 157.395 29 157.203 29H155.855V25.8301H156.397V28.5547H157.203C157.359 28.5547 157.484 28.5264 157.578 28.4697C157.672 28.4131 157.739 28.3398 157.78 28.25C157.821 28.1602 157.842 28.0664 157.842 27.9688C157.842 27.873 157.821 27.7793 157.78 27.6875C157.739 27.5957 157.672 27.5195 157.578 27.459C157.484 27.3965 157.359 27.3652 157.203 27.3652H156.251V26.9199ZM160.832 28.6133C160.961 28.6133 161.08 28.5869 161.189 28.5342C161.299 28.4814 161.389 28.4092 161.459 28.3174C161.529 28.2236 161.569 28.1172 161.579 27.998H162.095C162.085 28.1855 162.021 28.3604 161.904 28.5225C161.789 28.6826 161.638 28.8125 161.45 28.9121C161.263 29.0098 161.057 29.0586 160.832 29.0586C160.594 29.0586 160.386 29.0166 160.208 28.9326C160.032 28.8486 159.886 28.7334 159.769 28.5869C159.653 28.4404 159.566 28.2725 159.508 28.083C159.451 27.8916 159.423 27.6895 159.423 27.4766V27.3535C159.423 27.1406 159.451 26.9395 159.508 26.75C159.566 26.5586 159.653 26.3896 159.769 26.2432C159.886 26.0967 160.032 25.9814 160.208 25.8975C160.386 25.8135 160.594 25.7715 160.832 25.7715C161.08 25.7715 161.297 25.8223 161.482 25.9238C161.668 26.0234 161.813 26.1602 161.919 26.334C162.026 26.5059 162.085 26.7012 162.095 26.9199H161.579C161.569 26.7891 161.532 26.6709 161.468 26.5654C161.405 26.46 161.319 26.376 161.21 26.3135C161.103 26.249 160.977 26.2168 160.832 26.2168C160.666 26.2168 160.526 26.25 160.413 26.3164C160.302 26.3809 160.213 26.4688 160.146 26.5801C160.082 26.6895 160.035 26.8115 160.006 26.9463C159.979 27.0791 159.965 27.2148 159.965 27.3535V27.4766C159.965 27.6152 159.979 27.752 160.006 27.8867C160.033 28.0215 160.079 28.1436 160.144 28.2529C160.21 28.3623 160.299 28.4502 160.41 28.5166C160.523 28.5811 160.664 28.6133 160.832 28.6133ZM163.793 25.8301V29H163.251V25.8301H163.793ZM165.873 25.8301L164.37 27.6465H163.611L163.529 27.1719H164.15L165.214 25.8301H165.873ZM165.29 29L164.124 27.5645L164.473 27.1719L165.979 29H165.29ZM167.536 28.1416L168.998 25.8301H169.543V29H168.998V26.6885L167.536 29H166.997V25.8301H167.536V28.1416ZM171.499 28.1416L172.961 25.8301H173.506V29H172.961V26.6885L171.499 29H170.96V25.8301H171.499V28.1416ZM172.665 24.6816H173.104C173.104 24.834 173.069 24.9697 172.999 25.0889C172.929 25.2061 172.828 25.2979 172.697 25.3643C172.566 25.4307 172.411 25.4639 172.231 25.4639C171.96 25.4639 171.745 25.3916 171.587 25.2471C171.431 25.1006 171.353 24.9121 171.353 24.6816H171.792C171.792 24.7969 171.825 24.8984 171.892 24.9863C171.958 25.0742 172.071 25.1182 172.231 25.1182C172.388 25.1182 172.499 25.0742 172.565 24.9863C172.632 24.8984 172.665 24.7969 172.665 24.6816Z" fill="white"/>
<path d="M114.377 34.4688V43H112.918V34.4688H114.377ZM117.055 34.4688V35.6406H110.264V34.4688H117.055ZM117.449 39.9004V39.7656C117.449 39.3086 117.516 38.8848 117.648 38.4941C117.781 38.0996 117.973 37.7578 118.223 37.4688C118.477 37.1758 118.785 36.9492 119.148 36.7891C119.516 36.625 119.93 36.543 120.391 36.543C120.855 36.543 121.27 36.625 121.633 36.7891C122 36.9492 122.311 37.1758 122.564 37.4688C122.818 37.7578 123.012 38.0996 123.145 38.4941C123.277 38.8848 123.344 39.3086 123.344 39.7656V39.9004C123.344 40.3574 123.277 40.7812 123.145 41.1719C123.012 41.5625 122.818 41.9043 122.564 42.1973C122.311 42.4863 122.002 42.7129 121.639 42.877C121.275 43.0371 120.863 43.1172 120.402 43.1172C119.938 43.1172 119.521 43.0371 119.154 42.877C118.791 42.7129 118.482 42.4863 118.229 42.1973C117.975 41.9043 117.781 41.5625 117.648 41.1719C117.516 40.7812 117.449 40.3574 117.449 39.9004ZM118.861 39.7656V39.9004C118.861 40.1855 118.891 40.4551 118.949 40.709C119.008 40.9629 119.1 41.1855 119.225 41.377C119.35 41.5684 119.51 41.7188 119.705 41.8281C119.9 41.9375 120.133 41.9922 120.402 41.9922C120.664 41.9922 120.891 41.9375 121.082 41.8281C121.277 41.7188 121.438 41.5684 121.562 41.377C121.688 41.1855 121.779 40.9629 121.838 40.709C121.9 40.4551 121.932 40.1855 121.932 39.9004V39.7656C121.932 39.4844 121.9 39.2188 121.838 38.9688C121.779 38.7148 121.686 38.4902 121.557 38.2949C121.432 38.0996 121.271 37.9473 121.076 37.8379C120.885 37.7246 120.656 37.668 120.391 37.668C120.125 37.668 119.895 37.7246 119.699 37.8379C119.508 37.9473 119.35 38.0996 119.225 38.2949C119.1 38.4902 119.008 38.7148 118.949 38.9688C118.891 39.2188 118.861 39.4844 118.861 39.7656ZM128.795 41.2891L130.682 36.6602H131.906L129.275 43H128.314L125.689 36.6602H126.914L128.795 41.2891ZM126.551 36.6602V43H125.139V36.6602H126.551ZM131.039 43V36.6602H132.457V43H131.039ZM137.129 41.9922C137.359 41.9922 137.566 41.9473 137.75 41.8574C137.938 41.7637 138.088 41.6348 138.201 41.4707C138.318 41.3066 138.383 41.1172 138.395 40.9023H139.725C139.717 41.3125 139.596 41.6855 139.361 42.0215C139.127 42.3574 138.816 42.625 138.43 42.8242C138.043 43.0195 137.615 43.1172 137.146 43.1172C136.662 43.1172 136.24 43.0352 135.881 42.8711C135.521 42.7031 135.223 42.4727 134.984 42.1797C134.746 41.8867 134.566 41.5488 134.445 41.166C134.328 40.7832 134.27 40.373 134.27 39.9355V39.7305C134.27 39.293 134.328 38.8828 134.445 38.5C134.566 38.1133 134.746 37.7734 134.984 37.4805C135.223 37.1875 135.521 36.959 135.881 36.7949C136.24 36.627 136.66 36.543 137.141 36.543C137.648 36.543 138.094 36.6445 138.477 36.8477C138.859 37.0469 139.16 37.3262 139.379 37.6855C139.602 38.041 139.717 38.4551 139.725 38.9277H138.395C138.383 38.6934 138.324 38.4824 138.219 38.2949C138.117 38.1035 137.973 37.9512 137.785 37.8379C137.602 37.7246 137.381 37.668 137.123 37.668C136.838 37.668 136.602 37.7266 136.414 37.8438C136.227 37.957 136.08 38.1133 135.975 38.3125C135.869 38.5078 135.793 38.7285 135.746 38.9746C135.703 39.2168 135.682 39.4688 135.682 39.7305V39.9355C135.682 40.1973 135.703 40.4512 135.746 40.6973C135.789 40.9434 135.863 41.1641 135.969 41.3594C136.078 41.5508 136.227 41.7051 136.414 41.8223C136.602 41.9355 136.84 41.9922 137.129 41.9922ZM142.832 36.6602V43H141.42V36.6602H142.832ZM146.969 36.6602L144.115 40.4746H142.504L142.316 39.1973H143.494L145.205 36.6602H146.969ZM145.316 43L143.406 40.2344L144.52 39.4316L147.174 43H145.316ZM149.9 40.9375L152.391 36.6602H153.803V43H152.391V38.7168L149.9 43H148.488V36.6602H149.9V40.9375ZM157.256 40.9375L159.746 36.6602H161.158V43H159.746V38.7168L157.256 43H155.844V36.6602H157.256V40.9375ZM159.371 34.2227H160.42C160.42 34.5469 160.342 34.834 160.186 35.084C160.033 35.3301 159.814 35.5234 159.529 35.6641C159.248 35.8047 158.912 35.875 158.521 35.875C157.932 35.875 157.465 35.7227 157.121 35.418C156.781 35.1094 156.611 34.7109 156.611 34.2227H157.66C157.66 34.4414 157.725 34.6348 157.854 34.8027C157.986 34.9668 158.209 35.0488 158.521 35.0488C158.83 35.0488 159.049 34.9668 159.178 34.8027C159.307 34.6348 159.371 34.4414 159.371 34.2227ZM114.945 50.6602V51.7852H112.18V57H110.768V50.6602H114.945ZM115.879 53.9004V53.7656C115.879 53.3086 115.945 52.8848 116.078 52.4941C116.211 52.0996 116.402 51.7578 116.652 51.4688C116.906 51.1758 117.215 50.9492 117.578 50.7891C117.945 50.625 118.359 50.543 118.82 50.543C119.285 50.543 119.699 50.625 120.062 50.7891C120.43 50.9492 120.74 51.1758 120.994 51.4688C121.248 51.7578 121.441 52.0996 121.574 52.4941C121.707 52.8848 121.773 53.3086 121.773 53.7656V53.9004C121.773 54.3574 121.707 54.7812 121.574 55.1719C121.441 55.5625 121.248 55.9043 120.994 56.1973C120.74 56.4863 120.432 56.7129 120.068 56.877C119.705 57.0371 119.293 57.1172 118.832 57.1172C118.367 57.1172 117.951 57.0371 117.584 56.877C117.221 56.7129 116.912 56.4863 116.658 56.1973C116.404 55.9043 116.211 55.5625 116.078 55.1719C115.945 54.7812 115.879 54.3574 115.879 53.9004ZM117.291 53.7656V53.9004C117.291 54.1855 117.32 54.4551 117.379 54.709C117.438 54.9629 117.529 55.1855 117.654 55.377C117.779 55.5684 117.939 55.7188 118.135 55.8281C118.33 55.9375 118.562 55.9922 118.832 55.9922C119.094 55.9922 119.32 55.9375 119.512 55.8281C119.707 55.7188 119.867 55.5684 119.992 55.377C120.117 55.1855 120.209 54.9629 120.268 54.709C120.33 54.4551 120.361 54.1855 120.361 53.9004V53.7656C120.361 53.4844 120.33 53.2188 120.268 52.9688C120.209 52.7148 120.115 52.4902 119.986 52.2949C119.861 52.0996 119.701 51.9473 119.506 51.8379C119.314 51.7246 119.086 51.668 118.82 51.668C118.555 51.668 118.324 51.7246 118.129 51.8379C117.938 51.9473 117.779 52.0996 117.654 52.2949C117.529 52.4902 117.438 52.7148 117.379 52.9688C117.32 53.2188 117.291 53.4844 117.291 53.7656ZM126.047 55.9922C126.277 55.9922 126.484 55.9473 126.668 55.8574C126.855 55.7637 127.006 55.6348 127.119 55.4707C127.236 55.3066 127.301 55.1172 127.312 54.9023H128.643C128.635 55.3125 128.514 55.6855 128.279 56.0215C128.045 56.3574 127.734 56.625 127.348 56.8242C126.961 57.0195 126.533 57.1172 126.064 57.1172C125.58 57.1172 125.158 57.0352 124.799 56.8711C124.439 56.7031 124.141 56.4727 123.902 56.1797C123.664 55.8867 123.484 55.5488 123.363 55.166C123.246 54.7832 123.188 54.373 123.188 53.9355V53.7305C123.188 53.293 123.246 52.8828 123.363 52.5C123.484 52.1133 123.664 51.7734 123.902 51.4805C124.141 51.1875 124.439 50.959 124.799 50.7949C125.158 50.627 125.578 50.543 126.059 50.543C126.566 50.543 127.012 50.6445 127.395 50.8477C127.777 51.0469 128.078 51.3262 128.297 51.6855C128.52 52.041 128.635 52.4551 128.643 52.9277H127.312C127.301 52.6934 127.242 52.4824 127.137 52.2949C127.035 52.1035 126.891 51.9512 126.703 51.8379C126.52 51.7246 126.299 51.668 126.041 51.668C125.756 51.668 125.52 51.7266 125.332 51.8438C125.145 51.957 124.998 52.1133 124.893 52.3125C124.787 52.5078 124.711 52.7285 124.664 52.9746C124.621 53.2168 124.6 53.4688 124.6 53.7305V53.9355C124.6 54.1973 124.621 54.4512 124.664 54.6973C124.707 54.9434 124.781 55.1641 124.887 55.3594C124.996 55.5508 125.145 55.7051 125.332 55.8223C125.52 55.9355 125.758 55.9922 126.047 55.9922ZM132.066 56.3086L133.789 50.6602H135.301L132.758 57.9668C132.699 58.123 132.623 58.293 132.529 58.4766C132.436 58.6602 132.312 58.834 132.16 58.998C132.012 59.166 131.826 59.3008 131.604 59.4023C131.381 59.5078 131.111 59.5605 130.795 59.5605C130.67 59.5605 130.549 59.5488 130.432 59.5254C130.318 59.5059 130.211 59.4844 130.109 59.4609L130.104 58.3828C130.143 58.3867 130.189 58.3906 130.244 58.3945C130.303 58.3984 130.35 58.4004 130.385 58.4004C130.619 58.4004 130.814 58.3711 130.971 58.3125C131.127 58.2578 131.254 58.168 131.352 58.043C131.453 57.918 131.539 57.75 131.609 57.5391L132.066 56.3086ZM131.094 50.6602L132.6 55.4062L132.852 56.8945L131.873 57.1465L129.57 50.6602H131.094ZM137.43 50.6602H138.842L138.771 52.8926C138.752 53.541 138.678 54.0977 138.549 54.5625C138.42 55.0273 138.252 55.4199 138.045 55.7402C137.838 56.0566 137.604 56.3164 137.342 56.5195C137.084 56.7227 136.812 56.8828 136.527 57H136.111V55.8867L136.311 55.875C136.479 55.6953 136.623 55.5156 136.744 55.3359C136.869 55.1523 136.975 54.9512 137.061 54.7324C137.146 54.5098 137.213 54.25 137.26 53.9531C137.311 53.6562 137.344 53.3027 137.359 52.8926L137.43 50.6602ZM137.805 50.6602H141.824V57H140.418V51.8555H137.805V50.6602ZM135.789 55.875H142.691V58.8867H141.279V57H137.219V58.8867H135.783L135.789 55.875ZM147.773 55.7285V52.7051C147.773 52.4785 147.732 52.2832 147.65 52.1191C147.568 51.9551 147.443 51.8281 147.275 51.7383C147.111 51.6484 146.904 51.6035 146.654 51.6035C146.424 51.6035 146.225 51.6426 146.057 51.7207C145.889 51.7988 145.758 51.9043 145.664 52.0371C145.57 52.1699 145.523 52.3203 145.523 52.4883H144.117C144.117 52.2383 144.178 51.9961 144.299 51.7617C144.42 51.5273 144.596 51.3184 144.826 51.1348C145.057 50.9512 145.332 50.8066 145.652 50.7012C145.973 50.5957 146.332 50.543 146.73 50.543C147.207 50.543 147.629 50.623 147.996 50.7832C148.367 50.9434 148.658 51.1855 148.869 51.5098C149.084 51.8301 149.191 52.2324 149.191 52.7168V55.5352C149.191 55.8242 149.211 56.084 149.25 56.3145C149.293 56.541 149.354 56.7383 149.432 56.9062V57H147.984C147.918 56.8477 147.865 56.6543 147.826 56.4199C147.791 56.1816 147.773 55.9512 147.773 55.7285ZM147.979 53.1445L147.99 54.0176H146.977C146.715 54.0176 146.484 54.043 146.285 54.0938C146.086 54.1406 145.92 54.2109 145.787 54.3047C145.654 54.3984 145.555 54.5117 145.488 54.6445C145.422 54.7773 145.389 54.9277 145.389 55.0957C145.389 55.2637 145.428 55.418 145.506 55.5586C145.584 55.6953 145.697 55.8027 145.846 55.8809C145.998 55.959 146.182 55.998 146.396 55.998C146.686 55.998 146.938 55.9395 147.152 55.8223C147.371 55.7012 147.543 55.5547 147.668 55.3828C147.793 55.207 147.859 55.041 147.867 54.8848L148.324 55.5117C148.277 55.6719 148.197 55.8438 148.084 56.0273C147.971 56.2109 147.822 56.3867 147.639 56.5547C147.459 56.7188 147.242 56.8535 146.988 56.959C146.738 57.0645 146.449 57.1172 146.121 57.1172C145.707 57.1172 145.338 57.0352 145.014 56.8711C144.689 56.7031 144.436 56.4785 144.252 56.1973C144.068 55.9121 143.977 55.5898 143.977 55.2305C143.977 54.8945 144.039 54.5977 144.164 54.3398C144.293 54.0781 144.48 53.8594 144.727 53.6836C144.977 53.5078 145.281 53.375 145.641 53.2852C146 53.1914 146.41 53.1445 146.871 53.1445H147.979ZM152.586 51.8789V59.4375H151.174V50.6602H152.475L152.586 51.8789ZM156.717 53.7715V53.8945C156.717 54.3555 156.662 54.7832 156.553 55.1777C156.447 55.5684 156.289 55.9102 156.078 56.2031C155.871 56.4922 155.615 56.7168 155.311 56.877C155.006 57.0371 154.654 57.1172 154.256 57.1172C153.861 57.1172 153.516 57.0449 153.219 56.9004C152.926 56.752 152.678 56.543 152.475 56.2734C152.271 56.0039 152.107 55.6875 151.982 55.3242C151.861 54.957 151.775 54.5547 151.725 54.1172V53.6426C151.775 53.1777 151.861 52.7559 151.982 52.377C152.107 51.998 152.271 51.6719 152.475 51.3984C152.678 51.125 152.926 50.9141 153.219 50.7656C153.512 50.6172 153.854 50.543 154.244 50.543C154.643 50.543 154.996 50.6211 155.305 50.7773C155.613 50.9297 155.873 51.1484 156.084 51.4336C156.295 51.7148 156.453 52.0547 156.559 52.4531C156.664 52.8477 156.717 53.2871 156.717 53.7715ZM155.305 53.8945V53.7715C155.305 53.4785 155.277 53.207 155.223 52.957C155.168 52.7031 155.082 52.4805 154.965 52.2891C154.848 52.0977 154.697 51.9492 154.514 51.8438C154.334 51.7344 154.117 51.6797 153.863 51.6797C153.613 51.6797 153.398 51.7227 153.219 51.8086C153.039 51.8906 152.889 52.0059 152.768 52.1543C152.646 52.3027 152.553 52.4766 152.486 52.6758C152.42 52.8711 152.373 53.084 152.346 53.3145V54.4512C152.393 54.7324 152.473 54.9902 152.586 55.2246C152.699 55.459 152.859 55.6465 153.066 55.7871C153.277 55.9238 153.547 55.9922 153.875 55.9922C154.129 55.9922 154.346 55.9375 154.525 55.8281C154.705 55.7188 154.852 55.5684 154.965 55.377C155.082 55.1816 155.168 54.957 155.223 54.7031C155.277 54.4492 155.305 54.1797 155.305 53.8945ZM161.008 55.9922C161.238 55.9922 161.445 55.9473 161.629 55.8574C161.816 55.7637 161.967 55.6348 162.08 55.4707C162.197 55.3066 162.262 55.1172 162.273 54.9023H163.604C163.596 55.3125 163.475 55.6855 163.24 56.0215C163.006 56.3574 162.695 56.625 162.309 56.8242C161.922 57.0195 161.494 57.1172 161.025 57.1172C160.541 57.1172 160.119 57.0352 159.76 56.8711C159.4 56.7031 159.102 56.4727 158.863 56.1797C158.625 55.8867 158.445 55.5488 158.324 55.166C158.207 54.7832 158.148 54.373 158.148 53.9355V53.7305C158.148 53.293 158.207 52.8828 158.324 52.5C158.445 52.1133 158.625 51.7734 158.863 51.4805C159.102 51.1875 159.4 50.959 159.76 50.7949C160.119 50.627 160.539 50.543 161.02 50.543C161.527 50.543 161.973 50.6445 162.355 50.8477C162.738 51.0469 163.039 51.3262 163.258 51.6855C163.48 52.041 163.596 52.4551 163.604 52.9277H162.273C162.262 52.6934 162.203 52.4824 162.098 52.2949C161.996 52.1035 161.852 51.9512 161.664 51.8379C161.48 51.7246 161.26 51.668 161.002 51.668C160.717 51.668 160.48 51.7266 160.293 51.8438C160.105 51.957 159.959 52.1133 159.854 52.3125C159.748 52.5078 159.672 52.7285 159.625 52.9746C159.582 53.2168 159.561 53.4688 159.561 53.7305V53.9355C159.561 54.1973 159.582 54.4512 159.625 54.6973C159.668 54.9434 159.742 55.1641 159.848 55.3594C159.957 55.5508 160.105 55.7051 160.293 55.8223C160.48 55.9355 160.719 55.9922 161.008 55.9922ZM168.129 50.6602V57H166.711V50.6602H168.129ZM170.209 50.6602V51.7734H164.666V50.6602H170.209ZM174.734 54.2871H172.707L172.695 53.291H174.359C174.633 53.291 174.857 53.2637 175.033 53.209C175.213 53.1543 175.346 53.0723 175.432 52.9629C175.518 52.8496 175.561 52.7129 175.561 52.5527C175.561 52.4199 175.535 52.3047 175.484 52.207C175.434 52.1055 175.355 52.0234 175.25 51.9609C175.148 51.8945 175.02 51.8477 174.863 51.8203C174.711 51.7891 174.533 51.7734 174.33 51.7734H173.176V57H171.764V50.6602H174.33C174.736 50.6602 175.102 50.6953 175.426 50.7656C175.754 50.8359 176.033 50.9434 176.264 51.0879C176.494 51.2324 176.67 51.416 176.791 51.6387C176.916 51.8574 176.979 52.1152 176.979 52.4121C176.979 52.6074 176.936 52.791 176.85 52.9629C176.768 53.1348 176.645 53.2871 176.48 53.4199C176.316 53.5527 176.115 53.6621 175.877 53.748C175.639 53.8301 175.365 53.8809 175.057 53.9004L174.734 54.2871ZM174.734 57H172.297L172.859 55.8867H174.734C174.984 55.8867 175.191 55.8555 175.355 55.793C175.52 55.7305 175.641 55.6406 175.719 55.5234C175.801 55.4023 175.842 55.2598 175.842 55.0957C175.842 54.9277 175.803 54.7832 175.725 54.6621C175.646 54.541 175.525 54.4492 175.361 54.3867C175.201 54.3203 174.992 54.2871 174.734 54.2871H173.123L173.135 53.291H175.051L175.455 53.6777C175.857 53.7051 176.191 53.791 176.457 53.9355C176.723 54.0801 176.922 54.2617 177.055 54.4805C177.188 54.6992 177.254 54.9375 177.254 55.1953C177.254 55.4922 177.197 55.7539 177.084 55.9805C176.975 56.207 176.811 56.3965 176.592 56.5488C176.377 56.6973 176.113 56.8105 175.801 56.8887C175.488 56.9629 175.133 57 174.734 57ZM181.768 57.1172C181.299 57.1172 180.875 57.041 180.496 56.8887C180.121 56.7324 179.801 56.5156 179.535 56.2383C179.273 55.9609 179.072 55.6348 178.932 55.2598C178.791 54.8848 178.721 54.4805 178.721 54.0469V53.8125C178.721 53.3164 178.793 52.8672 178.938 52.4648C179.082 52.0625 179.283 51.7188 179.541 51.4336C179.799 51.1445 180.104 50.9238 180.455 50.7715C180.807 50.6191 181.188 50.543 181.598 50.543C182.051 50.543 182.447 50.6191 182.787 50.7715C183.127 50.9238 183.408 51.1387 183.631 51.416C183.857 51.6895 184.025 52.0156 184.135 52.3945C184.248 52.7734 184.305 53.1914 184.305 53.6484V54.252H179.406V53.2383H182.91V53.127C182.902 52.873 182.852 52.6348 182.758 52.4121C182.668 52.1895 182.529 52.0098 182.342 51.873C182.154 51.7363 181.904 51.668 181.592 51.668C181.357 51.668 181.148 51.7188 180.965 51.8203C180.785 51.918 180.635 52.0605 180.514 52.248C180.393 52.4355 180.299 52.6621 180.232 52.9277C180.17 53.1895 180.139 53.4844 180.139 53.8125V54.0469C180.139 54.3242 180.176 54.582 180.25 54.8203C180.328 55.0547 180.441 55.2598 180.59 55.4355C180.738 55.6113 180.918 55.75 181.129 55.8516C181.34 55.9492 181.58 55.998 181.85 55.998C182.189 55.998 182.492 55.9297 182.758 55.793C183.023 55.6562 183.254 55.4629 183.449 55.2129L184.193 55.9336C184.057 56.1328 183.879 56.3242 183.66 56.5078C183.441 56.6875 183.174 56.834 182.857 56.9473C182.545 57.0605 182.182 57.1172 181.768 57.1172ZM190.236 53.3086V54.4219H186.955V53.3086H190.236ZM187.365 50.6602V57H185.953V50.6602H187.365ZM191.256 50.6602V57H189.844V50.6602H191.256ZM197.592 53.3086V54.4219H194.311V53.3086H197.592ZM194.721 50.6602V57H193.309V50.6602H194.721ZM198.611 50.6602V57H197.199V50.6602H198.611ZM201.666 52.6758H203.535C204.082 52.6758 204.547 52.7676 204.93 52.9512C205.312 53.1348 205.604 53.3906 205.803 53.7188C206.006 54.043 206.107 54.4141 206.107 54.832C206.107 55.1406 206.051 55.4277 205.938 55.6934C205.824 55.9551 205.656 56.1836 205.434 56.3789C205.215 56.5742 204.945 56.7266 204.625 56.8359C204.309 56.9453 203.945 57 203.535 57H200.729V50.6602H202.146V55.8809H203.535C203.816 55.8809 204.041 55.832 204.209 55.7344C204.377 55.6367 204.498 55.5098 204.572 55.3535C204.65 55.1973 204.689 55.0312 204.689 54.8555C204.689 54.6758 204.65 54.5059 204.572 54.3457C204.498 54.1855 204.377 54.0547 204.209 53.9531C204.041 53.8516 203.816 53.8008 203.535 53.8008H201.666V52.6758ZM208.604 50.6602V57H207.191V50.6602H208.604ZM212.232 54.9375L214.723 50.6602H216.135V57H214.723V52.7168L212.232 57H210.82V50.6602H212.232V54.9375ZM214.348 48.2227H215.396C215.396 48.5469 215.318 48.834 215.162 49.084C215.01 49.3301 214.791 49.5234 214.506 49.6641C214.225 49.8047 213.889 49.875 213.498 49.875C212.908 49.875 212.441 49.7227 212.098 49.418C211.758 49.1094 211.588 48.7109 211.588 48.2227H212.637C212.637 48.4414 212.701 48.6348 212.83 48.8027C212.963 48.9668 213.186 49.0488 213.498 49.0488C213.807 49.0488 214.025 48.9668 214.154 48.8027C214.283 48.6348 214.348 48.4414 214.348 48.2227ZM112.566 70.3086L114.289 64.6602H115.801L113.258 71.9668C113.199 72.123 113.123 72.293 113.029 72.4766C112.936 72.6602 112.812 72.834 112.66 72.998C112.512 73.166 112.326 73.3008 112.104 73.4023C111.881 73.5078 111.611 73.5605 111.295 73.5605C111.17 73.5605 111.049 73.5488 110.932 73.5254C110.818 73.5059 110.711 73.4844 110.609 73.4609L110.604 72.3828C110.643 72.3867 110.689 72.3906 110.744 72.3945C110.803 72.3984 110.85 72.4004 110.885 72.4004C111.119 72.4004 111.314 72.3711 111.471 72.3125C111.627 72.2578 111.754 72.168 111.852 72.043C111.953 71.918 112.039 71.75 112.109 71.5391L112.566 70.3086ZM111.594 64.6602L113.1 69.4062L113.352 70.8945L112.373 71.1465L110.07 64.6602H111.594ZM121.439 67.3086V68.4219H118.158V67.3086H121.439ZM118.568 64.6602V71H117.156V64.6602H118.568ZM122.459 64.6602V71H121.047V64.6602H122.459ZM125.924 68.9375L128.414 64.6602H129.826V71H128.414V66.7168L125.924 71H124.512V64.6602H125.924V68.9375ZM134.902 68.2871H132.875L132.863 67.291H134.527C134.801 67.291 135.025 67.2637 135.201 67.209C135.381 67.1543 135.514 67.0723 135.6 66.9629C135.686 66.8496 135.729 66.7129 135.729 66.5527C135.729 66.4199 135.703 66.3047 135.652 66.207C135.602 66.1055 135.523 66.0234 135.418 65.9609C135.316 65.8945 135.188 65.8477 135.031 65.8203C134.879 65.7891 134.701 65.7734 134.498 65.7734H133.344V71H131.932V64.6602H134.498C134.904 64.6602 135.27 64.6953 135.594 64.7656C135.922 64.8359 136.201 64.9434 136.432 65.0879C136.662 65.2324 136.838 65.416 136.959 65.6387C137.084 65.8574 137.146 66.1152 137.146 66.4121C137.146 66.6074 137.104 66.791 137.018 66.9629C136.936 67.1348 136.812 67.2871 136.648 67.4199C136.484 67.5527 136.283 67.6621 136.045 67.748C135.807 67.8301 135.533 67.8809 135.225 67.9004L134.902 68.2871ZM134.902 71H132.465L133.027 69.8867H134.902C135.152 69.8867 135.359 69.8555 135.523 69.793C135.688 69.7305 135.809 69.6406 135.887 69.5234C135.969 69.4023 136.01 69.2598 136.01 69.0957C136.01 68.9277 135.971 68.7832 135.893 68.6621C135.814 68.541 135.693 68.4492 135.529 68.3867C135.369 68.3203 135.16 68.2871 134.902 68.2871H133.291L133.303 67.291H135.219L135.623 67.6777C136.025 67.7051 136.359 67.791 136.625 67.9355C136.891 68.0801 137.09 68.2617 137.223 68.4805C137.355 68.6992 137.422 68.9375 137.422 69.1953C137.422 69.4922 137.365 69.7539 137.252 69.9805C137.143 70.207 136.979 70.3965 136.76 70.5488C136.545 70.6973 136.281 70.8105 135.969 70.8887C135.656 70.9629 135.301 71 134.902 71ZM141.936 71.1172C141.467 71.1172 141.043 71.041 140.664 70.8887C140.289 70.7324 139.969 70.5156 139.703 70.2383C139.441 69.9609 139.24 69.6348 139.1 69.2598C138.959 68.8848 138.889 68.4805 138.889 68.0469V67.8125C138.889 67.3164 138.961 66.8672 139.105 66.4648C139.25 66.0625 139.451 65.7188 139.709 65.4336C139.967 65.1445 140.271 64.9238 140.623 64.7715C140.975 64.6191 141.355 64.543 141.766 64.543C142.219 64.543 142.615 64.6191 142.955 64.7715C143.295 64.9238 143.576 65.1387 143.799 65.416C144.025 65.6895 144.193 66.0156 144.303 66.3945C144.416 66.7734 144.473 67.1914 144.473 67.6484V68.252H139.574V67.2383H143.078V67.127C143.07 66.873 143.02 66.6348 142.926 66.4121C142.836 66.1895 142.697 66.0098 142.51 65.873C142.322 65.7363 142.072 65.668 141.76 65.668C141.525 65.668 141.316 65.7188 141.133 65.8203C140.953 65.918 140.803 66.0605 140.682 66.248C140.561 66.4355 140.467 66.6621 140.4 66.9277C140.338 67.1895 140.307 67.4844 140.307 67.8125V68.0469C140.307 68.3242 140.344 68.582 140.418 68.8203C140.496 69.0547 140.609 69.2598 140.758 69.4355C140.906 69.6113 141.086 69.75 141.297 69.8516C141.508 69.9492 141.748 69.998 142.018 69.998C142.357 69.998 142.66 69.9297 142.926 69.793C143.191 69.6562 143.422 69.4629 143.617 69.2129L144.361 69.9336C144.225 70.1328 144.047 70.3242 143.828 70.5078C143.609 70.6875 143.342 70.834 143.025 70.9473C142.713 71.0605 142.35 71.1172 141.936 71.1172ZM147.492 65.8789V73.4375H146.08V64.6602H147.381L147.492 65.8789ZM151.623 67.7715V67.8945C151.623 68.3555 151.568 68.7832 151.459 69.1777C151.354 69.5684 151.195 69.9102 150.984 70.2031C150.777 70.4922 150.521 70.7168 150.217 70.877C149.912 71.0371 149.561 71.1172 149.162 71.1172C148.768 71.1172 148.422 71.0449 148.125 70.9004C147.832 70.752 147.584 70.543 147.381 70.2734C147.178 70.0039 147.014 69.6875 146.889 69.3242C146.768 68.957 146.682 68.5547 146.631 68.1172V67.6426C146.682 67.1777 146.768 66.7559 146.889 66.377C147.014 65.998 147.178 65.6719 147.381 65.3984C147.584 65.125 147.832 64.9141 148.125 64.7656C148.418 64.6172 148.76 64.543 149.15 64.543C149.549 64.543 149.902 64.6211 150.211 64.7773C150.52 64.9297 150.779 65.1484 150.99 65.4336C151.201 65.7148 151.359 66.0547 151.465 66.4531C151.57 66.8477 151.623 67.2871 151.623 67.7715ZM150.211 67.8945V67.7715C150.211 67.4785 150.184 67.207 150.129 66.957C150.074 66.7031 149.988 66.4805 149.871 66.2891C149.754 66.0977 149.604 65.9492 149.42 65.8438C149.24 65.7344 149.023 65.6797 148.77 65.6797C148.52 65.6797 148.305 65.7227 148.125 65.8086C147.945 65.8906 147.795 66.0059 147.674 66.1543C147.553 66.3027 147.459 66.4766 147.393 66.6758C147.326 66.8711 147.279 67.084 147.252 67.3145V68.4512C147.299 68.7324 147.379 68.9902 147.492 69.2246C147.605 69.459 147.766 69.6465 147.973 69.7871C148.184 69.9238 148.453 69.9922 148.781 69.9922C149.035 69.9922 149.252 69.9375 149.432 69.8281C149.611 69.7188 149.758 69.5684 149.871 69.377C149.988 69.1816 150.074 68.957 150.129 68.7031C150.184 68.4492 150.211 68.1797 150.211 67.8945ZM155.914 69.9922C156.145 69.9922 156.352 69.9473 156.535 69.8574C156.723 69.7637 156.873 69.6348 156.986 69.4707C157.104 69.3066 157.168 69.1172 157.18 68.9023H158.51C158.502 69.3125 158.381 69.6855 158.146 70.0215C157.912 70.3574 157.602 70.625 157.215 70.8242C156.828 71.0195 156.4 71.1172 155.932 71.1172C155.447 71.1172 155.025 71.0352 154.666 70.8711C154.307 70.7031 154.008 70.4727 153.77 70.1797C153.531 69.8867 153.352 69.5488 153.23 69.166C153.113 68.7832 153.055 68.373 153.055 67.9355V67.7305C153.055 67.293 153.113 66.8828 153.23 66.5C153.352 66.1133 153.531 65.7734 153.77 65.4805C154.008 65.1875 154.307 64.959 154.666 64.7949C155.025 64.627 155.445 64.543 155.926 64.543C156.434 64.543 156.879 64.6445 157.262 64.8477C157.645 65.0469 157.945 65.3262 158.164 65.6855C158.387 66.041 158.502 66.4551 158.51 66.9277H157.18C157.168 66.6934 157.109 66.4824 157.004 66.2949C156.902 66.1035 156.758 65.9512 156.57 65.8379C156.387 65.7246 156.166 65.668 155.908 65.668C155.623 65.668 155.387 65.7266 155.199 65.8438C155.012 65.957 154.865 66.1133 154.76 66.3125C154.654 66.5078 154.578 66.7285 154.531 66.9746C154.488 67.2168 154.467 67.4688 154.467 67.7305V67.9355C154.467 68.1973 154.488 68.4512 154.531 68.6973C154.574 68.9434 154.648 69.1641 154.754 69.3594C154.863 69.5508 155.012 69.7051 155.199 69.8223C155.387 69.9355 155.625 69.9922 155.914 69.9922ZM161.553 68.9375L164.043 64.6602H165.455V71H164.043V66.7168L161.553 71H160.141V64.6602H161.553V68.9375ZM170.391 64.6602V71H168.973V64.6602H170.391ZM172.471 64.6602V65.7734H166.928V64.6602H172.471ZM176.275 71.1172C175.807 71.1172 175.383 71.041 175.004 70.8887C174.629 70.7324 174.309 70.5156 174.043 70.2383C173.781 69.9609 173.58 69.6348 173.439 69.2598C173.299 68.8848 173.229 68.4805 173.229 68.0469V67.8125C173.229 67.3164 173.301 66.8672 173.445 66.4648C173.59 66.0625 173.791 65.7188 174.049 65.4336C174.307 65.1445 174.611 64.9238 174.963 64.7715C175.314 64.6191 175.695 64.543 176.105 64.543C176.559 64.543 176.955 64.6191 177.295 64.7715C177.635 64.9238 177.916 65.1387 178.139 65.416C178.365 65.6895 178.533 66.0156 178.643 66.3945C178.756 66.7734 178.812 67.1914 178.812 67.6484V68.252H173.914V67.2383H177.418V67.127C177.41 66.873 177.359 66.6348 177.266 66.4121C177.176 66.1895 177.037 66.0098 176.85 65.873C176.662 65.7363 176.412 65.668 176.1 65.668C175.865 65.668 175.656 65.7188 175.473 65.8203C175.293 65.918 175.143 66.0605 175.021 66.248C174.9 66.4355 174.807 66.6621 174.74 66.9277C174.678 67.1895 174.646 67.4844 174.646 67.8125V68.0469C174.646 68.3242 174.684 68.582 174.758 68.8203C174.836 69.0547 174.949 69.2598 175.098 69.4355C175.246 69.6113 175.426 69.75 175.637 69.8516C175.848 69.9492 176.088 69.998 176.357 69.998C176.697 69.998 177 69.9297 177.266 69.793C177.531 69.6562 177.762 69.4629 177.957 69.2129L178.701 69.9336C178.564 70.1328 178.387 70.3242 178.168 70.5078C177.949 70.6875 177.682 70.834 177.365 70.9473C177.053 71.0605 176.689 71.1172 176.275 71.1172ZM183.285 64.6602V71H181.867V64.6602H183.285ZM185.365 64.6602V65.7734H179.822V64.6602H185.365Z" fill="white"/>
<path d="M51.0494 1.16138C51.0494 1.69088 51.1393 2.23628 51.03 2.7499C50.8167 3.74714 51.4759 4.45844 51.7932 5.258C51.9096 5.55628 52.5565 5.73102 52.9848 5.79633C53.5981 5.86872 54.2173 5.87582 54.8321 5.81751C56.1094 5.71454 57.3919 5.9393 58.5584 6.47057C59.4556 6.88888 60.3986 7.20658 61.3311 7.5437C61.5127 7.58901 61.6711 7.70018 61.7757 7.8557C61.8802 8.01123 61.9234 8.20004 61.8969 8.38562C61.844 9.9459 61.8775 9.79764 63.344 9.79764H78.2087C79.2028 9.79764 79.2663 9.76587 79.224 8.73862C79.1993 8.12439 79.4003 7.82257 80.0101 7.67961C81.378 7.34602 82.7264 6.93477 84.0855 6.56764C84.3007 6.52107 84.5212 6.50268 84.7412 6.51293C87.0538 6.51293 89.3682 6.49351 91.6808 6.51293C92.1632 6.54017 92.6403 6.62672 93.1015 6.77062C94.249 7.07773 95.393 7.4378 96.5352 7.73079C97.0076 7.85081 97.1786 8.06791 97.168 8.55329C97.1451 9.76586 97.168 10.9784 97.168 12.1928C97.168 28.9593 97.1598 45.727 97.1434 62.4959C97.1434 66.5908 96.4224 70.5939 95.2502 74.5193C93.5097 80.3907 90.5999 85.8484 86.696 90.5633C82.8489 95.2404 78.1165 99.11 72.7708 101.949C68.7834 104.085 64.4972 105.607 60.0567 106.463C55.768 107.289 51.3868 107.527 47.034 107.169C43.565 106.902 40.1362 106.251 36.8105 105.227C26.1512 101.878 17.0669 94.7719 11.2429 85.2259C9.4132 82.2501 7.89377 79.1136 6.89962 75.7601C6.19455 73.3632 5.4983 70.9363 5.12108 68.4723C4.76334 65.9622 4.59306 63.4288 4.61167 60.8933C4.57113 43.5308 4.59228 26.1682 4.57642 8.80569C4.57642 8.15616 4.71743 7.81551 5.41016 7.6549C6.76037 7.34425 8.08238 6.91535 9.42025 6.55176C9.6573 6.50321 9.89953 6.48483 10.1412 6.49704C11.925 6.49704 13.7141 6.57117 15.4944 6.47586C17.1214 6.39291 18.6302 6.81298 20.1532 7.23659C20.7472 7.40426 21.3307 7.61783 21.9335 7.73962C22.4306 7.84022 22.5557 8.09262 22.5504 8.56741C22.5346 9.80293 22.3371 9.78528 23.7473 9.78351H38.8851C39.9181 9.78351 39.9851 9.76057 39.9163 8.7598C39.8634 8.03438 40.1402 7.70079 40.7976 7.46251C41.709 7.14127 42.5956 6.74238 43.4734 6.33466C44.2884 5.94103 45.1891 5.75894 46.0927 5.80515C46.9741 5.85104 47.8554 5.8228 48.7367 5.80515C49.5775 5.79103 49.8173 5.40096 50.2509 4.72672C50.9154 3.68889 50.6704 2.6087 50.7145 1.53909C50.7164 1.45154 50.7247 1.36423 50.7391 1.27787C50.7391 1.2408 50.7903 1.21256 50.8185 1.17903L51.0494 1.16138ZM50.8572 15.8111C37.8804 15.8111 24.9024 15.8111 11.9233 15.8111C10.9608 15.8111 10.9221 15.8446 10.9238 16.6742C10.9238 31.6098 10.9326 46.5454 10.9503 61.481C10.9843 63.5487 11.1497 65.612 11.4456 67.6586C11.7717 70.172 12.4714 72.6007 13.344 74.9888C14.6298 78.5369 16.4262 81.878 18.6761 84.9064C21.5003 88.7269 24.9834 92.0114 28.9613 94.6052C33.0813 97.3064 37.6765 99.1992 42.5022 100.183C47.6754 101.239 53.0017 101.303 58.1988 100.372C65.0045 99.1696 71.0663 96.3297 76.4002 91.9506C83.5 86.0867 88.348 77.9378 90.1173 68.8941C90.6761 66.0966 90.8224 63.2461 90.8224 60.4079C90.8306 45.9135 90.8306 31.4186 90.8224 16.923C90.8224 15.834 90.8065 15.8164 89.7172 15.8164L50.8572 15.8111Z" fill="white"/>
<path d="M52.2375 71.494C52.7804 71.2168 53.318 70.9274 53.8679 70.6626C56.1894 69.5471 58.6695 68.9311 61.1742 68.4281C66.3918 67.3779 71.6727 66.8961 76.9837 66.7054C78.6565 66.6454 80.3328 66.6119 82.0038 66.5784C82.7864 66.5625 82.8199 66.6119 82.7282 67.475C82.3757 67.505 82.0108 67.5491 81.6424 67.5668C77.5883 67.768 73.5341 67.8527 69.5064 68.1916C65.1385 68.5587 60.8058 69.2506 56.6248 70.6467C55.5019 71.0209 54.432 71.5575 53.3497 72.0464C53.1735 72.1223 53.0783 72.3412 52.9461 72.493C53.1311 72.5689 53.3162 72.7136 53.5013 72.7136C62.954 72.7136 72.4066 72.7071 81.8592 72.6942C82.7564 72.6942 82.7547 72.6942 82.7512 73.6208C82.7512 74.3268 82.73 75.0328 82.7512 75.7388C82.767 76.1819 82.5749 76.3231 82.1659 76.3107C81.2194 76.2807 80.2728 76.2578 79.3245 76.2578C60.0679 76.2578 40.8095 76.2578 21.5493 76.2578C20.8671 76.2578 20.185 76.2683 19.5028 76.2966C19.1168 76.3142 18.9335 76.1907 18.9476 75.7759C18.974 74.9163 18.9881 74.055 18.9758 73.1954C18.9758 72.8071 19.152 72.6924 19.4922 72.6995C20.021 72.7101 20.5498 72.6995 21.0786 72.6995C30.0471 72.6995 39.0156 72.6995 47.9841 72.6995C48.2961 72.6995 48.6099 72.6589 48.9219 72.6359C48.9483 72.5653 48.973 72.493 48.9977 72.4224C48.7847 72.2382 48.5598 72.0683 48.3243 71.914C46.4647 70.855 44.4341 70.2637 42.3788 69.7642C37.3323 68.5393 32.1994 67.9339 27.0171 67.7186C24.5494 67.6162 22.0816 67.5544 19.6244 67.4503C19.3847 67.4397 19.0057 67.3197 18.9458 67.1555C18.803 66.7708 18.8982 66.4195 19.4746 66.4495C20.356 66.4989 21.2373 66.4866 22.1186 66.5431C26.4442 66.8255 30.7839 66.9967 35.0937 67.4485C39.0773 67.8651 43.0257 68.6152 46.789 70.0819C47.3637 70.3061 47.9119 70.592 48.4742 70.8444C48.6222 70.9097 48.7809 70.9556 48.9342 71.0103L49.0488 70.8815C48.8858 70.6472 48.7092 70.4227 48.52 70.209C46.4806 68.1298 43.9934 66.7178 41.3812 65.5176C36.5638 63.3042 31.4643 62.1729 26.2221 61.6893C24.0752 61.4916 21.9142 61.458 19.7584 61.3504L19.0005 61.3115C18.8383 60.392 18.8665 60.3178 19.6667 60.3672C22.5646 60.5473 25.4624 60.7444 28.3603 60.9585C29.3139 61.0291 29.3967 60.9585 29.5219 60.0266C30.0031 56.4471 31.1083 53.0901 33.1741 50.0877C35.5866 46.5151 39.0303 43.7646 43.0451 42.2034C47.6281 40.3995 52.3168 40.1718 57.0302 41.6068C62.5579 43.2889 66.7584 46.6742 69.6263 51.7186C71.1686 54.4297 71.9794 57.3544 72.2809 60.4326C72.3408 61.0415 72.5611 61.1103 73.1269 61.0662C76.1323 60.835 79.1412 60.6602 82.1501 60.4749C82.4744 60.4537 82.8217 60.4078 82.8111 60.9497C82.8005 61.4916 82.492 61.4616 82.106 61.4616C77.2869 61.4616 72.5259 61.9293 67.8283 63.0695C64.0157 63.9961 60.3528 65.3058 57.0196 67.3903C55.4614 68.3646 54.0548 69.586 52.5935 70.7138C52.3873 70.8727 52.2621 71.1374 52.0982 71.3545L52.2375 71.494ZM50.5999 65.7876C51.9625 65.7876 53.3268 65.777 54.6911 65.7876C55.2323 65.7876 55.4226 65.5511 55.4191 65.0234C55.4038 62.9312 55.4038 60.8385 55.4191 58.7452C55.4191 58.1874 55.1741 57.9174 54.6365 57.9174C51.9537 57.9174 49.2709 57.9239 46.5881 57.9368C46.0699 57.9368 45.8354 58.191 45.8372 58.7152C45.8466 60.8085 45.8466 62.9018 45.8372 64.9951C45.8372 65.5599 46.0963 65.7876 46.6427 65.7841C47.9612 65.7806 49.2797 65.7876 50.5999 65.7876ZM50.6317 56.9749V56.9396C51.9308 56.9396 53.2316 56.9078 54.529 56.9537C55.1247 56.9749 55.2781 56.7031 55.234 56.2106C55.1653 55.404 55.1001 54.5956 54.9784 53.7978C54.7493 52.3064 54.4391 50.8273 54.2452 49.3323C54.1553 48.6422 53.8292 48.4286 53.2087 48.4322C51.446 48.4392 49.6834 48.4392 47.9207 48.4322C47.4148 48.4322 47.0746 48.5839 46.9812 49.1382C46.8366 49.9818 46.6286 50.8149 46.5141 51.6622C46.3096 53.2313 46.1615 54.8057 45.9853 56.3783C45.9359 56.8284 46.1298 57.0013 46.5969 56.9925C47.9471 56.959 49.2903 56.9749 50.6317 56.9749ZM45.7914 49.2229C45.8108 48.8787 45.6151 48.681 44.9893 48.8505C43.5105 49.2494 42.0527 49.733 40.5827 50.1354C39.8177 50.3472 39.4228 50.8414 39.2254 51.5757C38.7072 53.496 38.1678 55.4128 37.6531 57.3314C37.5315 57.7797 37.6848 57.9262 38.1607 57.8609C40.1667 57.6032 42.1744 57.3679 44.1838 57.1549C44.702 57.1002 44.9312 56.876 44.9559 56.3712C44.9823 55.7782 45.0052 55.1816 45.0792 54.5939C45.2872 52.8871 45.527 51.1856 45.7914 49.2229ZM63.5944 57.6562C63.5944 57.3385 63.6631 56.9837 63.5821 56.6642C63.2013 55.1604 62.8364 53.6496 62.3482 52.1811C62.1419 51.558 62.1049 50.7214 61.2906 50.4584C59.5855 49.9077 57.8757 49.3747 56.1612 48.8593C55.6324 48.6987 55.4561 48.9193 55.5601 49.4665C55.8139 50.8608 56.0748 52.257 56.2652 53.6602C56.385 54.5427 56.3551 55.4587 56.4503 56.3536C56.4732 56.5672 56.6918 56.8831 56.8733 56.9307C57.4745 57.0448 58.0819 57.1226 58.6924 57.1637C60.2841 57.3279 61.8916 57.4867 63.5785 57.6562H63.5944ZM56.4538 61.7987H56.4626C56.4626 62.8577 56.4626 63.9167 56.4626 64.9669C56.4626 65.597 56.616 65.6729 57.1677 65.4311C59.2829 64.4886 61.3981 63.5337 63.5415 62.6441C63.9751 62.4676 64.1479 62.2452 64.1355 61.8393C64.1109 61.0256 64.0844 60.2102 64.0016 59.4C63.9763 59.2911 63.9249 59.1899 63.8518 59.1054C63.7787 59.0208 63.6861 58.9553 63.5821 58.9146C62.6619 58.7381 61.733 58.5969 60.8023 58.4857C59.6107 58.3445 58.4139 58.2598 57.2241 58.1151C56.6953 58.0498 56.4362 58.1821 56.4485 58.7628C56.4608 59.7742 56.445 60.7873 56.445 61.7987H56.4538ZM44.7108 65.7629C44.7509 65.5351 44.7791 65.3053 44.7955 65.0746C44.7955 62.9848 44.7955 60.895 44.806 58.8052C44.806 58.2616 44.6033 58.0286 44.0622 58.0992C41.9928 58.3657 39.9217 58.6181 37.8576 58.9146C37.7449 58.9558 37.6438 59.0237 37.5631 59.1126C37.4823 59.2014 37.4243 59.3085 37.394 59.4247C37.2935 60.1184 37.3094 60.8279 37.2177 61.5251C37.1278 62.2576 37.4768 62.57 38.1237 62.81C39.4563 63.3042 40.7677 63.8585 42.0686 64.4356C42.9217 64.8151 43.7414 65.2758 44.702 65.7629H44.7108ZM57.4338 42.9941C57.6166 43.2508 57.8207 43.4917 58.0437 43.7142C59.727 45.1399 61.1007 46.8957 62.0803 48.8734C62.4313 49.5598 62.9972 50.1121 63.6913 50.446C66.0375 51.6816 68.0857 53.2701 69.6104 55.4852C69.7535 55.6598 69.9084 55.8243 70.074 55.9776C70.705 52.384 61.4175 42.8194 57.425 42.9924L57.4338 42.9941ZM43.6603 43.2165C40.1103 43.4354 31.8222 51.6604 32.3792 54.2638C32.5094 54.1804 32.6326 54.0866 32.7476 53.9832C34.3134 52.3638 36.1449 51.0254 38.1625 50.026C38.5779 49.7805 38.9177 49.4251 39.1443 48.9987C40.2354 47.066 41.4957 45.2763 43.1773 43.8078C43.3512 43.6216 43.5125 43.4241 43.6603 43.2165V43.2165ZM37.7712 51.5121C37.6363 51.5323 37.504 51.5666 37.3764 51.6145C35.4762 52.7529 33.7117 54.0855 32.4867 55.9476C31.7975 57.0066 31.3621 58.2157 30.8333 59.3682C30.7928 59.5319 30.8122 59.7048 30.8879 59.8554C30.9091 59.9048 31.1453 59.9295 31.2317 59.8783C32.7053 58.9958 34.341 58.5952 35.975 58.1733C36.067 58.1298 36.148 58.0661 36.2121 57.987C36.2762 57.9078 36.3217 57.8153 36.3452 57.7162C36.7964 55.8929 37.2265 54.0643 37.6513 52.2446C37.6989 52.0381 37.7218 51.8298 37.7747 51.5086L37.7712 51.5121ZM63.9258 51.5792L63.6702 51.7557C63.7336 52.0769 63.7883 52.3982 63.8623 52.7159C64.1972 54.1173 64.5551 55.5134 64.867 56.9202C65.1103 58.0127 65.2196 58.0745 66.0198 58.2545C67.2308 58.5281 68.3959 58.9958 69.5857 59.3682C69.7852 59.4104 69.9883 59.4329 70.1921 59.4353C70.2104 59.2475 70.2027 59.058 70.1692 58.8723C69.5935 57.0802 68.557 55.4713 67.1638 54.2073C66.1432 53.2701 65.0133 52.4493 63.9311 51.5757L63.9258 51.5792ZM52.7839 47.3025C53.2158 47.3467 53.7851 47.3343 53.5542 46.7201C53.0536 45.3928 52.5548 44.0337 51.8144 42.837C51.0741 41.6403 50.0694 41.7621 49.2832 42.9818C49.1699 43.1444 49.0714 43.3169 48.9889 43.4972C48.5746 44.4891 48.1604 45.481 47.7656 46.4818C47.4765 47.2125 47.614 47.3943 48.4001 47.3325C49.1422 47.2743 49.8825 47.1349 50.6229 47.1278C51.3632 47.1207 52.063 47.2408 52.7839 47.3025ZM60.6366 48.8769L60.7794 48.7004C60.6365 48.4154 60.477 48.139 60.3017 47.8726C59.7482 47.1349 59.1912 46.3971 58.6007 45.6911C57.3259 44.193 55.6954 43.0398 53.8591 42.3375C53.7023 42.2758 53.4943 42.3375 53.3109 42.3499C53.3003 42.5174 53.3134 42.6855 53.3497 42.8494C53.8926 44.2614 54.4391 45.6734 55.0172 47.0696C55.0702 47.1776 55.1443 47.2739 55.2351 47.3528C55.3259 47.4316 55.4317 47.4913 55.546 47.5285C56.6424 47.8232 57.7529 48.058 58.8528 48.3439C59.4503 48.4904 60.0408 48.6969 60.6366 48.8787V48.8769ZM40.632 48.5469L40.773 48.7234C40.9413 48.7213 41.1093 48.7065 41.2754 48.6793C42.5903 48.3616 43.9 48.0209 45.2185 47.7191C45.9007 47.5638 46.2426 47.2231 46.4524 46.503C46.8049 45.2922 47.3654 44.1414 47.8308 42.9623C47.9015 42.757 47.9603 42.5478 48.007 42.3358C47.7801 42.3315 47.5537 42.3576 47.3337 42.4134C44.9559 43.3648 43.1033 44.9851 41.6262 47.0431C41.2719 47.5285 40.9616 48.0456 40.632 48.5486V48.5469ZM50.5136 70.4244C51.721 69.3989 52.8579 68.4422 53.979 67.4697C54.1077 67.3567 54.1553 67.1449 54.2363 66.979C54.0678 66.9043 53.8899 66.8527 53.7075 66.8255C51.6205 66.8102 49.5335 66.8031 47.4465 66.8043C47.1927 66.8272 46.9407 66.8667 46.6921 66.9225L50.5136 70.4244ZM69.5276 60.8756C69.5276 60.7926 69.5187 60.7097 69.5135 60.6267C68.2796 59.9595 66.9382 59.6083 65.5809 59.3135C65.4593 59.2871 65.1314 59.5977 65.1244 59.7618C65.1175 60.3568 65.1475 60.9516 65.2143 61.5428C65.2495 61.9487 65.4699 62.044 65.8594 61.9258C66.5486 61.7193 67.2555 61.5622 67.9482 61.3662C68.4788 61.218 69.0023 61.0397 69.5276 60.8756ZM36.1337 59.9331C36.2764 59.4883 36.1072 59.2906 35.6577 59.4388C34.6248 59.7777 33.5901 60.1184 32.5642 60.4837C32.4921 60.5182 32.4296 60.5702 32.3825 60.6349C32.3355 60.6996 32.3052 60.775 32.2946 60.8544C32.3139 60.9744 32.5096 61.1138 32.6471 61.1562C33.5707 61.421 34.5014 61.6522 35.4268 61.9116C35.9169 62.0493 36.1319 61.8852 36.1319 61.3821C36.1319 60.8791 36.1337 60.4149 36.1337 59.9331Z" fill="white"/>
<path d="M50.8608 34.4269C50.332 33.239 50.0605 31.8252 49.2197 30.9639C48.3789 30.1026 46.9899 29.8219 45.8936 29.3118C46.9917 28.9588 48.4776 28.9288 49.2268 27.7374C49.9125 26.6484 50.302 25.3741 50.6986 24.4651C51.06 25.3476 51.4284 26.5602 52.0435 27.6421C52.7098 28.8035 54.06 29.0012 55.3062 29.4495C52.4172 29.9331 50.9947 31.6823 50.8608 34.4269Z" fill="white"/>
<path d="M44.1784 88.8161C44.1696 90.0022 43.5086 90.8388 42.3135 91.1318C41.9134 91.2289 41.552 91.2977 41.4516 91.8043C41.4286 91.9207 41.1096 92.0478 40.9228 92.0443C40.7817 92.0443 40.6407 91.8519 40.505 91.7354C40.2935 91.5589 40.1154 91.2642 39.8757 91.2059C38.5149 90.8388 37.8134 90.0692 37.8081 88.8408C37.8081 87.4976 38.418 86.7069 39.8017 86.3433C40.1542 86.2497 40.4733 86.2038 40.579 85.7626C40.609 85.6443 40.8734 85.512 41.0285 85.512C41.1836 85.512 41.4445 85.6602 41.4639 85.7732C41.5326 86.2003 41.8164 86.2533 42.1549 86.3433C43.5509 86.7069 44.189 87.5064 44.1784 88.8161ZM41.5009 88.7578C41.5009 89.1744 41.4886 89.5909 41.5009 90.0075C41.5133 90.3216 41.6507 90.5052 42.0121 90.3887C42.5814 90.2034 42.9939 89.5309 43.0009 88.7525C43.0009 88.0006 42.6167 87.3688 42.0473 87.1746C41.7177 87.0634 41.5185 87.1746 41.5044 87.51C41.485 87.9247 41.5027 88.3413 41.5009 88.7578ZM40.4979 88.7402H40.5103C40.5103 88.3466 40.5209 87.9512 40.5103 87.5576C40.4979 87.2046 40.3481 87.0193 39.9603 87.157C39.3875 87.3599 38.9909 87.983 38.9732 88.7296C38.9556 89.4762 39.3399 90.1081 39.9057 90.3305C40.2494 90.4646 40.4786 90.3816 40.4979 89.9898C40.5173 89.598 40.4979 89.1567 40.4979 88.7402Z" fill="white"/>
<path d="M46.9211 89.6243L49.4769 85.7041C50.3759 85.5276 50.457 85.5894 50.4587 86.6237C50.4587 88.1469 50.4429 89.6702 50.4728 91.1916C50.4728 91.7211 50.2878 91.8676 49.7801 91.8729C49.2266 91.8729 49.1843 91.5976 49.1949 91.1669C49.2161 90.3515 49.2072 89.5343 49.1949 88.7188C49.1949 88.4894 49.1597 88.2599 49.1403 88.0304L48.964 87.981C48.8159 88.2264 48.6696 88.4735 48.518 88.7153C47.8993 89.7002 47.3053 90.7027 46.6373 91.6523C46.5156 91.8288 46.0873 91.8429 45.8106 91.8288C45.6872 91.8182 45.4933 91.5305 45.4915 91.3664C45.4651 89.6243 45.4739 87.8804 45.4651 86.1383C45.4651 85.6936 45.7401 85.6565 46.082 85.6618C46.424 85.6671 46.6884 85.7306 46.6813 86.1666C46.6655 87.0491 46.6655 87.9316 46.6672 88.8141C46.6672 89.0665 46.6954 89.3189 46.7113 89.5713L46.9211 89.6243Z" fill="white"/>
<path d="M51.9871 88.7471C51.9871 87.8875 51.9977 87.028 51.9871 86.1684C51.9871 85.8013 52.1193 85.6548 52.4877 85.6565C53.6757 85.6654 54.8638 85.6671 56.0518 85.6477C56.5119 85.6477 56.674 85.833 56.6705 86.2796C56.6564 87.9528 56.6529 89.6331 56.6705 91.3028C56.6705 91.7494 56.4766 91.8747 56.0712 91.8676C55.6658 91.8606 55.3855 91.8412 55.3961 91.3152C55.419 89.9932 55.3838 88.6677 55.4172 87.3492C55.4331 86.7155 55.1899 86.4473 54.5659 86.5055C54.4583 86.5161 54.3473 86.5055 54.2363 86.5055C53.3038 86.5055 53.2615 86.5532 53.2597 87.4727C53.2597 88.7506 53.2386 90.0285 53.2597 91.3064C53.2597 91.7635 53.0658 91.8729 52.6657 91.8659C52.2656 91.8588 51.9694 91.8659 51.9871 91.3223C52.017 90.4645 51.9959 89.6031 51.9959 88.7453L51.9871 88.7471Z" fill="white"/>
<path d="M62.9844 88.7806C62.9844 89.6172 62.9562 90.4556 62.995 91.2904C63.0161 91.7405 62.8522 91.8729 62.4344 91.8694C62.0167 91.8658 61.7417 91.8235 61.7699 91.3081C61.7946 90.8263 61.7593 90.3409 61.7699 89.8555C61.7805 89.3701 61.5936 89.1707 61.1018 89.176C59.1629 89.1954 59.4943 89.0683 59.4625 90.7257C59.451 90.902 59.451 91.0788 59.4625 91.2552C59.5154 91.7141 59.3233 91.8817 58.865 91.8764C58.4067 91.8711 58.1828 91.7864 58.1917 91.2552C58.2216 89.5819 58.2181 87.9016 58.1917 86.2354C58.1917 85.7359 58.4067 85.6459 58.8262 85.6512C59.2457 85.6565 59.5101 85.7077 59.4731 86.2213C59.4396 86.7032 59.4731 87.1903 59.4731 87.6739C59.4731 88.0605 59.6494 88.2387 60.0284 88.2493C62.0255 88.3005 61.7734 88.274 61.7769 86.6432C61.7769 85.7024 61.8563 85.6089 62.5472 85.6512C62.8839 85.6706 62.995 85.803 62.9861 86.1454C62.9615 87.0279 62.9773 87.9104 62.9773 88.7824L62.9844 88.7806Z" fill="white"/>
<path d="M66.7036 35.4327C65.0572 34.5802 63.5766 34.8273 62.2845 36.3153C62.9896 34.6544 62.8345 33.1894 61.5671 31.8374C63.3298 32.6034 64.7505 32.1251 65.9738 30.7537C65.8469 31.6362 65.5543 32.4551 65.6706 33.2035C65.787 33.9519 66.3193 34.6402 66.7036 35.4327Z" fill="white"/>
<path d="M39.8159 31.5164C38.6102 32.8878 38.4498 34.321 39.1954 35.9625C37.8276 34.5628 36.317 34.118 34.4944 35.1823C35.9944 33.7703 36.1689 32.2135 35.3264 30.4167C36.6255 31.594 37.9669 32.4306 39.8159 31.5164Z" fill="white"/>
<path d="M72.279 40.2883C72.0234 40.8937 71.6779 41.4144 71.6021 41.9704C71.5299 42.4999 71.7414 43.0647 71.8524 43.7566C70.8971 42.7576 69.8518 42.5634 68.625 43.1388C69.427 42.1733 69.4552 41.1726 69.0815 40.02C70.1004 40.8743 71.1738 40.8866 72.279 40.2883Z" fill="white"/>
<path d="M29.5271 43.3367C30.1582 42.1524 29.9872 41.0986 29.0212 40.0379C29.6893 40.1738 30.2146 40.3909 30.7187 40.352C31.2228 40.3132 31.7446 40.0237 32.3633 39.8066C32.0319 40.848 31.9878 41.8664 32.8092 42.8072C31.556 42.1841 30.5266 42.4718 29.5271 43.3367Z" fill="white"/>
<path d="M26.231 49.5478L27.6305 48.0669L28.778 49.3165C28.4096 49.8054 27.9936 50.3614 27.5741 50.9209C27.419 50.2573 27.033 49.6537 26.231 49.5478Z" fill="white"/>
<path d="M72.8291 49.8424L74.0312 48.7022L73.7475 48.3933C74.2375 48.8699 74.7293 49.3447 75.1153 49.7171L73.7633 51.115L72.8291 49.8424Z" fill="white"/>
</g>
<defs>
<filter id="filter0_d_244_16955" x="0" y="0" width="224" height="116" filterUnits="userSpaceOnUse" color-interpolation-filters="sRGB">
<feFlood flood-opacity="0" result="BackgroundImageFix"/>
<feColorMatrix in="SourceAlpha" type="matrix" values="0 0 0 0 0 0 0 0 0 0 0 0 0 0 0 0 0 0 127 0" result="hardAlpha"/>
<feOffset dy="4"/>
<feGaussianBlur stdDeviation="2"/>
<feComposite in2="hardAlpha" operator="out"/>
<feColorMatrix type="matrix" values="0 0 0 0 0 0 0 0 0 0 0 0 0 0 0 0 0 0 0.25 0"/>
<feBlend mode="normal" in2="BackgroundImageFix" result="effect1_dropShadow_244_16955"/>
<feBlend mode="normal" in="SourceGraphic" in2="effect1_dropShadow_244_16955" result="shape"/>
</filter>
</defs>
</svg>
