<svg viewBox="0 0 188 82" fill="none" xmlns="http://www.w3.org/2000/svg">
<path d="M85.2812 13.5684V14.0283H82.9727V13.5684H85.2812ZM83.0605 11.7344V16H82.4951V11.7344H83.0605ZM85.7734 11.7344V16H85.2109V11.7344H85.7734ZM89.0654 15.458V13.8262C89.0654 13.7012 89.04 13.5928 88.9893 13.501C88.9404 13.4072 88.8662 13.335 88.7666 13.2842C88.667 13.2334 88.5439 13.208 88.3975 13.208C88.2607 13.208 88.1406 13.2314 88.0371 13.2783C87.9355 13.3252 87.8555 13.3867 87.7969 13.4629C87.7402 13.5391 87.7119 13.6211 87.7119 13.709H87.1699C87.1699 13.5957 87.1992 13.4834 87.2578 13.3721C87.3164 13.2607 87.4004 13.1602 87.5098 13.0703C87.6211 12.9785 87.7539 12.9062 87.9082 12.8535C88.0645 12.7988 88.2383 12.7715 88.4297 12.7715C88.6602 12.7715 88.8633 12.8105 89.0391 12.8887C89.2168 12.9668 89.3555 13.085 89.4551 13.2432C89.5566 13.3994 89.6074 13.5957 89.6074 13.832V15.3086C89.6074 15.4141 89.6162 15.5264 89.6338 15.6455C89.6533 15.7646 89.6816 15.8672 89.7188 15.9531V16H89.1533C89.126 15.9375 89.1045 15.8545 89.0889 15.751C89.0732 15.6455 89.0654 15.5479 89.0654 15.458ZM89.1592 14.0781L89.165 14.459H88.6172C88.4629 14.459 88.3252 14.4717 88.2041 14.4971C88.083 14.5205 87.9814 14.5566 87.8994 14.6055C87.8174 14.6543 87.7549 14.7158 87.7119 14.79C87.6689 14.8623 87.6475 14.9473 87.6475 15.0449C87.6475 15.1445 87.6699 15.2354 87.7148 15.3174C87.7598 15.3994 87.8271 15.4648 87.917 15.5137C88.0088 15.5605 88.1211 15.584 88.2539 15.584C88.4199 15.584 88.5664 15.5488 88.6934 15.4785C88.8203 15.4082 88.9209 15.3223 88.9951 15.2207C89.0713 15.1191 89.1123 15.0205 89.1182 14.9248L89.3496 15.1855C89.3359 15.2676 89.2988 15.3584 89.2383 15.458C89.1777 15.5576 89.0967 15.6533 88.9951 15.7451C88.8955 15.835 88.7764 15.9102 88.6377 15.9707C88.501 16.0293 88.3467 16.0586 88.1748 16.0586C87.96 16.0586 87.7715 16.0166 87.6094 15.9326C87.4492 15.8486 87.3242 15.7363 87.2344 15.5957C87.1465 15.4531 87.1025 15.2939 87.1025 15.1182C87.1025 14.9482 87.1357 14.7988 87.2021 14.6699C87.2686 14.5391 87.3643 14.4307 87.4893 14.3447C87.6143 14.2568 87.7646 14.1904 87.9404 14.1455C88.1162 14.1006 88.3125 14.0781 88.5293 14.0781H89.1592ZM91.0068 16V12.8301H91.5488V15.5547H93.0078V12.8301H93.5527V16H91.0068ZM93.9277 15.5547L93.875 16.9404H93.3916V16H92.9785V15.5547H93.9277ZM95.6025 15.1416L97.0645 12.8301H97.6094V16H97.0645V13.6885L95.6025 16H95.0635V12.8301H95.6025V15.1416ZM98.8359 14.4502V14.3828C98.8359 14.1543 98.8691 13.9424 98.9355 13.7471C99.002 13.5498 99.0977 13.3789 99.2227 13.2344C99.3477 13.0879 99.499 12.9746 99.6768 12.8945C99.8545 12.8125 100.054 12.7715 100.274 12.7715C100.497 12.7715 100.697 12.8125 100.875 12.8945C101.055 12.9746 101.207 13.0879 101.332 13.2344C101.459 13.3789 101.556 13.5498 101.622 13.7471C101.688 13.9424 101.722 14.1543 101.722 14.3828V14.4502C101.722 14.6787 101.688 14.8906 101.622 15.0859C101.556 15.2812 101.459 15.4521 101.332 15.5986C101.207 15.7432 101.056 15.8564 100.878 15.9385C100.702 16.0186 100.503 16.0586 100.28 16.0586C100.058 16.0586 99.8574 16.0186 99.6797 15.9385C99.502 15.8564 99.3496 15.7432 99.2227 15.5986C99.0977 15.4521 99.002 15.2812 98.9355 15.0859C98.8691 14.8906 98.8359 14.6787 98.8359 14.4502ZM99.3779 14.3828V14.4502C99.3779 14.6084 99.3965 14.7578 99.4336 14.8984C99.4707 15.0371 99.5264 15.1602 99.6006 15.2676C99.6768 15.375 99.7715 15.46 99.8848 15.5225C99.998 15.583 100.13 15.6133 100.28 15.6133C100.429 15.6133 100.559 15.583 100.67 15.5225C100.783 15.46 100.877 15.375 100.951 15.2676C101.025 15.1602 101.081 15.0371 101.118 14.8984C101.157 14.7578 101.177 14.6084 101.177 14.4502V14.3828C101.177 14.2266 101.157 14.0791 101.118 13.9404C101.081 13.7998 101.024 13.6758 100.948 13.5684C100.874 13.459 100.78 13.373 100.667 13.3105C100.556 13.248 100.425 13.2168 100.274 13.2168C100.126 13.2168 99.9951 13.248 99.8818 13.3105C99.7705 13.373 99.6768 13.459 99.6006 13.5684C99.5264 13.6758 99.4707 13.7998 99.4336 13.9404C99.3965 14.0791 99.3779 14.2266 99.3779 14.3828ZM105.052 14.2041V14.6436H103.376V14.2041H105.052ZM103.49 12.8301V16H102.948V12.8301H103.49ZM105.491 12.8301V16H104.946V12.8301H105.491ZM108.733 15.458V13.8262C108.733 13.7012 108.708 13.5928 108.657 13.501C108.608 13.4072 108.534 13.335 108.435 13.2842C108.335 13.2334 108.212 13.208 108.065 13.208C107.929 13.208 107.809 13.2314 107.705 13.2783C107.604 13.3252 107.523 13.3867 107.465 13.4629C107.408 13.5391 107.38 13.6211 107.38 13.709H106.838C106.838 13.5957 106.867 13.4834 106.926 13.3721C106.984 13.2607 107.068 13.1602 107.178 13.0703C107.289 12.9785 107.422 12.9062 107.576 12.8535C107.732 12.7988 107.906 12.7715 108.098 12.7715C108.328 12.7715 108.531 12.8105 108.707 12.8887C108.885 12.9668 109.023 13.085 109.123 13.2432C109.225 13.3994 109.275 13.5957 109.275 13.832V15.3086C109.275 15.4141 109.284 15.5264 109.302 15.6455C109.321 15.7646 109.35 15.8672 109.387 15.9531V16H108.821C108.794 15.9375 108.772 15.8545 108.757 15.751C108.741 15.6455 108.733 15.5479 108.733 15.458ZM108.827 14.0781L108.833 14.459H108.285C108.131 14.459 107.993 14.4717 107.872 14.4971C107.751 14.5205 107.649 14.5566 107.567 14.6055C107.485 14.6543 107.423 14.7158 107.38 14.79C107.337 14.8623 107.315 14.9473 107.315 15.0449C107.315 15.1445 107.338 15.2354 107.383 15.3174C107.428 15.3994 107.495 15.4648 107.585 15.5137C107.677 15.5605 107.789 15.584 107.922 15.584C108.088 15.584 108.234 15.5488 108.361 15.4785C108.488 15.4082 108.589 15.3223 108.663 15.2207C108.739 15.1191 108.78 15.0205 108.786 14.9248L109.018 15.1855C109.004 15.2676 108.967 15.3584 108.906 15.458C108.846 15.5576 108.765 15.6533 108.663 15.7451C108.563 15.835 108.444 15.9102 108.306 15.9707C108.169 16.0293 108.015 16.0586 107.843 16.0586C107.628 16.0586 107.439 16.0166 107.277 15.9326C107.117 15.8486 106.992 15.7363 106.902 15.5957C106.814 15.4531 106.771 15.2939 106.771 15.1182C106.771 14.9482 106.804 14.7988 106.87 14.6699C106.937 14.5391 107.032 14.4307 107.157 14.3447C107.282 14.2568 107.433 14.1904 107.608 14.1455C107.784 14.1006 107.98 14.0781 108.197 14.0781H108.827ZM112.746 12.8301V13.2783H111.214V12.8301H112.746ZM113.224 12.8301V16H112.682V12.8301H113.224ZM111.082 12.8301H111.627L111.545 14.3594C111.531 14.5957 111.509 14.8047 111.478 14.9863C111.448 15.166 111.407 15.3203 111.354 15.4492C111.304 15.5781 111.239 15.6836 111.161 15.7656C111.085 15.8457 110.993 15.9053 110.886 15.9443C110.778 15.9814 110.654 16 110.514 16H110.344V15.5225L110.461 15.5137C110.545 15.5078 110.616 15.4883 110.675 15.4551C110.735 15.4219 110.786 15.373 110.827 15.3086C110.868 15.2422 110.901 15.1572 110.927 15.0537C110.954 14.9502 110.975 14.8271 110.988 14.6846C111.004 14.542 111.016 14.376 111.023 14.1865L111.082 12.8301ZM115.042 13.9199H115.994C116.25 13.9199 116.466 13.9648 116.642 14.0547C116.817 14.1426 116.95 14.2646 117.04 14.4209C117.132 14.5752 117.178 14.751 117.178 14.9482C117.178 15.0947 117.152 15.2324 117.102 15.3613C117.051 15.4883 116.975 15.5996 116.873 15.6953C116.773 15.791 116.649 15.8662 116.501 15.9209C116.354 15.9736 116.186 16 115.994 16H114.646V12.8301H115.188V15.5547H115.994C116.15 15.5547 116.275 15.5264 116.369 15.4697C116.463 15.4131 116.53 15.3398 116.571 15.25C116.612 15.1602 116.633 15.0664 116.633 14.9688C116.633 14.873 116.612 14.7793 116.571 14.6875C116.53 14.5957 116.463 14.5195 116.369 14.459C116.275 14.3965 116.15 14.3652 115.994 14.3652H115.042V13.9199ZM120.505 14.2041V14.6436H118.829V14.2041H120.505ZM118.943 12.8301V16H118.401V12.8301H118.943ZM120.944 12.8301V16H120.399V12.8301H120.944ZM122.763 13.9199H123.715C123.971 13.9199 124.187 13.9648 124.362 14.0547C124.538 14.1426 124.671 14.2646 124.761 14.4209C124.853 14.5752 124.898 14.751 124.898 14.9482C124.898 15.0947 124.873 15.2324 124.822 15.3613C124.771 15.4883 124.695 15.5996 124.594 15.6953C124.494 15.791 124.37 15.8662 124.222 15.9209C124.075 15.9736 123.906 16 123.715 16H122.367V12.8301H122.909V15.5547H123.715C123.871 15.5547 123.996 15.5264 124.09 15.4697C124.184 15.4131 124.251 15.3398 124.292 15.25C124.333 15.1602 124.354 15.0664 124.354 14.9688C124.354 14.873 124.333 14.7793 124.292 14.6875C124.251 14.5957 124.184 14.5195 124.09 14.459C123.996 14.3965 123.871 14.3652 123.715 14.3652H122.763V13.9199ZM126.026 12.8301V16H125.484V12.8301H126.026ZM128.062 15.1416L129.523 12.8301H130.068V16H129.523V13.6885L128.062 16H127.522V12.8301H128.062V15.1416ZM129.228 11.6816H129.667C129.667 11.834 129.632 11.9697 129.562 12.0889C129.491 12.2061 129.391 12.2979 129.26 12.3643C129.129 12.4307 128.974 12.4639 128.794 12.4639C128.522 12.4639 128.308 12.3916 128.149 12.2471C127.993 12.1006 127.915 11.9121 127.915 11.6816H128.354C128.354 11.7969 128.388 11.8984 128.454 11.9863C128.521 12.0742 128.634 12.1182 128.794 12.1182C128.95 12.1182 129.062 12.0742 129.128 11.9863C129.194 11.8984 129.228 11.7969 129.228 11.6816ZM82.999 25.1416L84.4609 22.8301H85.0059V26H84.4609V23.6885L82.999 26H82.46V22.8301H82.999V25.1416ZM87.6445 25.6133C87.7734 25.6133 87.8926 25.5869 88.002 25.5342C88.1113 25.4814 88.2012 25.4092 88.2715 25.3174C88.3418 25.2236 88.3818 25.1172 88.3916 24.998H88.9072C88.8975 25.1855 88.834 25.3604 88.7168 25.5225C88.6016 25.6826 88.4502 25.8125 88.2627 25.9121C88.0752 26.0098 87.8691 26.0586 87.6445 26.0586C87.4062 26.0586 87.1982 26.0166 87.0205 25.9326C86.8447 25.8486 86.6982 25.7334 86.5811 25.5869C86.4658 25.4404 86.3789 25.2725 86.3203 25.083C86.2637 24.8916 86.2354 24.6895 86.2354 24.4766V24.3535C86.2354 24.1406 86.2637 23.9395 86.3203 23.75C86.3789 23.5586 86.4658 23.3896 86.5811 23.2432C86.6982 23.0967 86.8447 22.9814 87.0205 22.8975C87.1982 22.8135 87.4062 22.7715 87.6445 22.7715C87.8926 22.7715 88.1094 22.8223 88.2949 22.9238C88.4805 23.0234 88.626 23.1602 88.7314 23.334C88.8389 23.5059 88.8975 23.7012 88.9072 23.9199H88.3916C88.3818 23.7891 88.3447 23.6709 88.2803 23.5654C88.2178 23.46 88.1318 23.376 88.0225 23.3135C87.915 23.249 87.7891 23.2168 87.6445 23.2168C87.4785 23.2168 87.3389 23.25 87.2256 23.3164C87.1143 23.3809 87.0254 23.4688 86.959 23.5801C86.8945 23.6895 86.8477 23.8115 86.8184 23.9463C86.791 24.0791 86.7773 24.2148 86.7773 24.3535V24.4766C86.7773 24.6152 86.791 24.752 86.8184 24.8867C86.8457 25.0215 86.8916 25.1436 86.9561 25.2529C87.0225 25.3623 87.1113 25.4502 87.2227 25.5166C87.3359 25.5811 87.4766 25.6133 87.6445 25.6133ZM91.2852 25.6133C91.4141 25.6133 91.5332 25.5869 91.6426 25.5342C91.752 25.4814 91.8418 25.4092 91.9121 25.3174C91.9824 25.2236 92.0225 25.1172 92.0322 24.998H92.5479C92.5381 25.1855 92.4746 25.3604 92.3574 25.5225C92.2422 25.6826 92.0908 25.8125 91.9033 25.9121C91.7158 26.0098 91.5098 26.0586 91.2852 26.0586C91.0469 26.0586 90.8389 26.0166 90.6611 25.9326C90.4854 25.8486 90.3389 25.7334 90.2217 25.5869C90.1064 25.4404 90.0195 25.2725 89.9609 25.083C89.9043 24.8916 89.876 24.6895 89.876 24.4766V24.3535C89.876 24.1406 89.9043 23.9395 89.9609 23.75C90.0195 23.5586 90.1064 23.3896 90.2217 23.2432C90.3389 23.0967 90.4854 22.9814 90.6611 22.8975C90.8389 22.8135 91.0469 22.7715 91.2852 22.7715C91.5332 22.7715 91.75 22.8223 91.9355 22.9238C92.1211 23.0234 92.2666 23.1602 92.3721 23.334C92.4795 23.5059 92.5381 23.7012 92.5479 23.9199H92.0322C92.0225 23.7891 91.9854 23.6709 91.9209 23.5654C91.8584 23.46 91.7725 23.376 91.6631 23.3135C91.5557 23.249 91.4297 23.2168 91.2852 23.2168C91.1191 23.2168 90.9795 23.25 90.8662 23.3164C90.7549 23.3809 90.666 23.4688 90.5996 23.5801C90.5352 23.6895 90.4883 23.8115 90.459 23.9463C90.4316 24.0791 90.418 24.2148 90.418 24.3535V24.4766C90.418 24.6152 90.4316 24.752 90.459 24.8867C90.4863 25.0215 90.5322 25.1436 90.5967 25.2529C90.6631 25.3623 90.752 25.4502 90.8633 25.5166C90.9766 25.5811 91.1172 25.6133 91.2852 25.6133ZM95.7754 22.8301V23.2783H94.2432V22.8301H95.7754ZM96.2529 22.8301V26H95.7109V22.8301H96.2529ZM94.1113 22.8301H94.6562L94.5742 24.3594C94.5605 24.5957 94.5381 24.8047 94.5068 24.9863C94.4775 25.166 94.4365 25.3203 94.3838 25.4492C94.333 25.5781 94.2686 25.6836 94.1904 25.7656C94.1143 25.8457 94.0225 25.9053 93.915 25.9443C93.8076 25.9814 93.6836 26 93.543 26H93.373V25.5225L93.4902 25.5137C93.5742 25.5078 93.6455 25.4883 93.7041 25.4551C93.7646 25.4219 93.8154 25.373 93.8564 25.3086C93.8975 25.2422 93.9307 25.1572 93.9561 25.0537C93.9834 24.9502 94.0039 24.8271 94.0176 24.6846C94.0332 24.542 94.0449 24.376 94.0527 24.1865L94.1113 22.8301ZM98.9414 26.0586C98.7207 26.0586 98.5205 26.0215 98.3408 25.9473C98.1631 25.8711 98.0098 25.7646 97.8809 25.6279C97.7539 25.4912 97.6562 25.3291 97.5879 25.1416C97.5195 24.9541 97.4854 24.749 97.4854 24.5264V24.4033C97.4854 24.1455 97.5234 23.916 97.5996 23.7148C97.6758 23.5117 97.7793 23.3398 97.9102 23.1992C98.041 23.0586 98.1895 22.9521 98.3555 22.8799C98.5215 22.8076 98.6934 22.7715 98.8711 22.7715C99.0977 22.7715 99.293 22.8105 99.457 22.8887C99.623 22.9668 99.7588 23.0762 99.8643 23.2168C99.9697 23.3555 100.048 23.5195 100.099 23.709C100.149 23.8965 100.175 24.1016 100.175 24.3242V24.5674H97.8076V24.125H99.6328V24.084C99.625 23.9434 99.5957 23.8066 99.5449 23.6738C99.4961 23.541 99.418 23.4316 99.3105 23.3457C99.2031 23.2598 99.0566 23.2168 98.8711 23.2168C98.748 23.2168 98.6348 23.2432 98.5312 23.2959C98.4277 23.3467 98.3389 23.4229 98.2646 23.5244C98.1904 23.626 98.1328 23.75 98.0918 23.8965C98.0508 24.043 98.0303 24.2119 98.0303 24.4033V24.5264C98.0303 24.6768 98.0508 24.8184 98.0918 24.9512C98.1348 25.082 98.1963 25.1973 98.2764 25.2969C98.3584 25.3965 98.457 25.4746 98.5723 25.5312C98.6895 25.5879 98.8223 25.6162 98.9707 25.6162C99.1621 25.6162 99.3242 25.5771 99.457 25.499C99.5898 25.4209 99.7061 25.3164 99.8057 25.1855L100.134 25.4463C100.065 25.5498 99.9785 25.6484 99.873 25.7422C99.7676 25.8359 99.6377 25.9121 99.4834 25.9707C99.3311 26.0293 99.1504 26.0586 98.9414 26.0586ZM101.879 22.8301H102.421L102.374 24.0166C102.362 24.3174 102.328 24.5771 102.271 24.7959C102.215 25.0146 102.143 25.2012 102.055 25.3555C101.967 25.5078 101.868 25.6357 101.759 25.7393C101.651 25.8428 101.54 25.9297 101.425 26H101.155L101.17 25.5576L101.281 25.5547C101.346 25.4785 101.408 25.4004 101.469 25.3203C101.529 25.2383 101.585 25.1416 101.636 25.0303C101.687 24.917 101.729 24.7793 101.762 24.6172C101.797 24.4531 101.819 24.2529 101.829 24.0166L101.879 22.8301ZM102.014 22.8301H103.921V26H103.379V23.3311H102.014V22.8301ZM101.032 25.5547H104.328V26.9346H103.786V26H101.574V26.9346H101.029L101.032 25.5547ZM105.285 24.4502V24.3828C105.285 24.1543 105.318 23.9424 105.385 23.7471C105.451 23.5498 105.547 23.3789 105.672 23.2344C105.797 23.0879 105.948 22.9746 106.126 22.8945C106.304 22.8125 106.503 22.7715 106.724 22.7715C106.946 22.7715 107.146 22.8125 107.324 22.8945C107.504 22.9746 107.656 23.0879 107.781 23.2344C107.908 23.3789 108.005 23.5498 108.071 23.7471C108.138 23.9424 108.171 24.1543 108.171 24.3828V24.4502C108.171 24.6787 108.138 24.8906 108.071 25.0859C108.005 25.2812 107.908 25.4521 107.781 25.5986C107.656 25.7432 107.505 25.8564 107.327 25.9385C107.151 26.0186 106.952 26.0586 106.729 26.0586C106.507 26.0586 106.307 26.0186 106.129 25.9385C105.951 25.8564 105.799 25.7432 105.672 25.5986C105.547 25.4521 105.451 25.2812 105.385 25.0859C105.318 24.8906 105.285 24.6787 105.285 24.4502ZM105.827 24.3828V24.4502C105.827 24.6084 105.846 24.7578 105.883 24.8984C105.92 25.0371 105.976 25.1602 106.05 25.2676C106.126 25.375 106.221 25.46 106.334 25.5225C106.447 25.583 106.579 25.6133 106.729 25.6133C106.878 25.6133 107.008 25.583 107.119 25.5225C107.232 25.46 107.326 25.375 107.4 25.2676C107.475 25.1602 107.53 25.0371 107.567 24.8984C107.606 24.7578 107.626 24.6084 107.626 24.4502V24.3828C107.626 24.2266 107.606 24.0791 107.567 23.9404C107.53 23.7998 107.474 23.6758 107.397 23.5684C107.323 23.459 107.229 23.373 107.116 23.3105C107.005 23.248 106.874 23.2168 106.724 23.2168C106.575 23.2168 106.444 23.248 106.331 23.3105C106.22 23.373 106.126 23.459 106.05 23.5684C105.976 23.6758 105.92 23.7998 105.883 23.9404C105.846 24.0791 105.827 24.2266 105.827 24.3828ZM110.839 24.6055H109.799L109.793 24.1719H110.643C110.811 24.1719 110.95 24.1553 111.062 24.1221C111.175 24.0889 111.26 24.0391 111.316 23.9727C111.373 23.9062 111.401 23.8242 111.401 23.7266C111.401 23.6504 111.385 23.584 111.352 23.5273C111.32 23.4688 111.272 23.4209 111.208 23.3838C111.144 23.3447 111.063 23.3164 110.968 23.2988C110.874 23.2793 110.764 23.2695 110.637 23.2695H109.942V26H109.4V22.8301H110.637C110.838 22.8301 111.019 22.8477 111.179 22.8828C111.341 22.918 111.479 22.9717 111.592 23.0439C111.707 23.1143 111.795 23.2041 111.855 23.3135C111.916 23.4229 111.946 23.5518 111.946 23.7002C111.946 23.7959 111.927 23.8867 111.888 23.9727C111.849 24.0586 111.791 24.1348 111.715 24.2012C111.639 24.2676 111.545 24.3223 111.434 24.3652C111.322 24.4062 111.194 24.4326 111.05 24.4443L110.839 24.6055ZM110.839 26H109.603L109.872 25.5605H110.839C110.989 25.5605 111.114 25.542 111.214 25.5049C111.313 25.4658 111.388 25.4111 111.437 25.3408C111.487 25.2686 111.513 25.1826 111.513 25.083C111.513 24.9834 111.487 24.8984 111.437 24.8281C111.388 24.7559 111.313 24.7012 111.214 24.6641C111.114 24.625 110.989 24.6055 110.839 24.6055H110.016L110.021 24.1719H111.05L111.246 24.3359C111.42 24.3496 111.567 24.3926 111.688 24.4648C111.81 24.5371 111.901 24.6289 111.964 24.7402C112.026 24.8496 112.058 24.9688 112.058 25.0977C112.058 25.2461 112.029 25.377 111.973 25.4902C111.918 25.6035 111.838 25.6982 111.732 25.7744C111.627 25.8486 111.499 25.9053 111.349 25.9443C111.198 25.9814 111.028 26 110.839 26ZM115.153 25.458V23.8262C115.153 23.7012 115.128 23.5928 115.077 23.501C115.028 23.4072 114.954 23.335 114.854 23.2842C114.755 23.2334 114.632 23.208 114.485 23.208C114.349 23.208 114.229 23.2314 114.125 23.2783C114.023 23.3252 113.943 23.3867 113.885 23.4629C113.828 23.5391 113.8 23.6211 113.8 23.709H113.258C113.258 23.5957 113.287 23.4834 113.346 23.3721C113.404 23.2607 113.488 23.1602 113.598 23.0703C113.709 22.9785 113.842 22.9062 113.996 22.8535C114.152 22.7988 114.326 22.7715 114.518 22.7715C114.748 22.7715 114.951 22.8105 115.127 22.8887C115.305 22.9668 115.443 23.085 115.543 23.2432C115.645 23.3994 115.695 23.5957 115.695 23.832V25.3086C115.695 25.4141 115.704 25.5264 115.722 25.6455C115.741 25.7646 115.77 25.8672 115.807 25.9531V26H115.241C115.214 25.9375 115.192 25.8545 115.177 25.751C115.161 25.6455 115.153 25.5479 115.153 25.458ZM115.247 24.0781L115.253 24.459H114.705C114.551 24.459 114.413 24.4717 114.292 24.4971C114.171 24.5205 114.069 24.5566 113.987 24.6055C113.905 24.6543 113.843 24.7158 113.8 24.79C113.757 24.8623 113.735 24.9473 113.735 25.0449C113.735 25.1445 113.758 25.2354 113.803 25.3174C113.848 25.3994 113.915 25.4648 114.005 25.5137C114.097 25.5605 114.209 25.584 114.342 25.584C114.508 25.584 114.654 25.5488 114.781 25.4785C114.908 25.4082 115.009 25.3223 115.083 25.2207C115.159 25.1191 115.2 25.0205 115.206 24.9248L115.438 25.1855C115.424 25.2676 115.387 25.3584 115.326 25.458C115.266 25.5576 115.185 25.6533 115.083 25.7451C114.983 25.835 114.864 25.9102 114.726 25.9707C114.589 26.0293 114.435 26.0586 114.263 26.0586C114.048 26.0586 113.859 26.0166 113.697 25.9326C113.537 25.8486 113.412 25.7363 113.322 25.5957C113.234 25.4531 113.19 25.2939 113.19 25.1182C113.19 24.9482 113.224 24.7988 113.29 24.6699C113.356 24.5391 113.452 24.4307 113.577 24.3447C113.702 24.2568 113.853 24.1904 114.028 24.1455C114.204 24.1006 114.4 24.0781 114.617 24.0781H115.247ZM118.293 22.8301V26H117.748V22.8301H118.293ZM119.356 22.8301V23.2695H116.705V22.8301H119.356ZM121.471 26.0586C121.25 26.0586 121.05 26.0215 120.87 25.9473C120.692 25.8711 120.539 25.7646 120.41 25.6279C120.283 25.4912 120.186 25.3291 120.117 25.1416C120.049 24.9541 120.015 24.749 120.015 24.5264V24.4033C120.015 24.1455 120.053 23.916 120.129 23.7148C120.205 23.5117 120.309 23.3398 120.439 23.1992C120.57 23.0586 120.719 22.9521 120.885 22.8799C121.051 22.8076 121.223 22.7715 121.4 22.7715C121.627 22.7715 121.822 22.8105 121.986 22.8887C122.152 22.9668 122.288 23.0762 122.394 23.2168C122.499 23.3555 122.577 23.5195 122.628 23.709C122.679 23.8965 122.704 24.1016 122.704 24.3242V24.5674H120.337V24.125H122.162V24.084C122.154 23.9434 122.125 23.8066 122.074 23.6738C122.025 23.541 121.947 23.4316 121.84 23.3457C121.732 23.2598 121.586 23.2168 121.4 23.2168C121.277 23.2168 121.164 23.2432 121.061 23.2959C120.957 23.3467 120.868 23.4229 120.794 23.5244C120.72 23.626 120.662 23.75 120.621 23.8965C120.58 24.043 120.56 24.2119 120.56 24.4033V24.5264C120.56 24.6768 120.58 24.8184 120.621 24.9512C120.664 25.082 120.726 25.1973 120.806 25.2969C120.888 25.3965 120.986 25.4746 121.102 25.5312C121.219 25.5879 121.352 25.6162 121.5 25.6162C121.691 25.6162 121.854 25.5771 121.986 25.499C122.119 25.4209 122.235 25.3164 122.335 25.1855L122.663 25.4463C122.595 25.5498 122.508 25.6484 122.402 25.7422C122.297 25.8359 122.167 25.9121 122.013 25.9707C121.86 26.0293 121.68 26.0586 121.471 26.0586ZM125.955 22.8301V23.2783H124.423V22.8301H125.955ZM126.433 22.8301V26H125.891V22.8301H126.433ZM124.291 22.8301H124.836L124.754 24.3594C124.74 24.5957 124.718 24.8047 124.687 24.9863C124.657 25.166 124.616 25.3203 124.563 25.4492C124.513 25.5781 124.448 25.6836 124.37 25.7656C124.294 25.8457 124.202 25.9053 124.095 25.9443C123.987 25.9814 123.863 26 123.723 26H123.553V25.5225L123.67 25.5137C123.754 25.5078 123.825 25.4883 123.884 25.4551C123.944 25.4219 123.995 25.373 124.036 25.3086C124.077 25.2422 124.11 25.1572 124.136 25.0537C124.163 24.9502 124.184 24.8271 124.197 24.6846C124.213 24.542 124.225 24.376 124.232 24.1865L124.291 22.8301ZM128.251 23.9199H129.203C129.459 23.9199 129.675 23.9648 129.851 24.0547C130.026 24.1426 130.159 24.2646 130.249 24.4209C130.341 24.5752 130.387 24.751 130.387 24.9482C130.387 25.0947 130.361 25.2324 130.311 25.3613C130.26 25.4883 130.184 25.5996 130.082 25.6953C129.982 25.791 129.858 25.8662 129.71 25.9209C129.563 25.9736 129.395 26 129.203 26H127.855V22.8301H128.397V25.5547H129.203C129.359 25.5547 129.484 25.5264 129.578 25.4697C129.672 25.4131 129.739 25.3398 129.78 25.25C129.821 25.1602 129.842 25.0664 129.842 24.9688C129.842 24.873 129.821 24.7793 129.78 24.6875C129.739 24.5957 129.672 24.5195 129.578 24.459C129.484 24.3965 129.359 24.3652 129.203 24.3652H128.251V23.9199ZM132.832 25.6133C132.961 25.6133 133.08 25.5869 133.189 25.5342C133.299 25.4814 133.389 25.4092 133.459 25.3174C133.529 25.2236 133.569 25.1172 133.579 24.998H134.095C134.085 25.1855 134.021 25.3604 133.904 25.5225C133.789 25.6826 133.638 25.8125 133.45 25.9121C133.263 26.0098 133.057 26.0586 132.832 26.0586C132.594 26.0586 132.386 26.0166 132.208 25.9326C132.032 25.8486 131.886 25.7334 131.769 25.5869C131.653 25.4404 131.566 25.2725 131.508 25.083C131.451 24.8916 131.423 24.6895 131.423 24.4766V24.3535C131.423 24.1406 131.451 23.9395 131.508 23.75C131.566 23.5586 131.653 23.3896 131.769 23.2432C131.886 23.0967 132.032 22.9814 132.208 22.8975C132.386 22.8135 132.594 22.7715 132.832 22.7715C133.08 22.7715 133.297 22.8223 133.482 22.9238C133.668 23.0234 133.813 23.1602 133.919 23.334C134.026 23.5059 134.085 23.7012 134.095 23.9199H133.579C133.569 23.7891 133.532 23.6709 133.468 23.5654C133.405 23.46 133.319 23.376 133.21 23.3135C133.103 23.249 132.977 23.2168 132.832 23.2168C132.666 23.2168 132.526 23.25 132.413 23.3164C132.302 23.3809 132.213 23.4688 132.146 23.5801C132.082 23.6895 132.035 23.8115 132.006 23.9463C131.979 24.0791 131.965 24.2148 131.965 24.3535V24.4766C131.965 24.6152 131.979 24.752 132.006 24.8867C132.033 25.0215 132.079 25.1436 132.144 25.2529C132.21 25.3623 132.299 25.4502 132.41 25.5166C132.523 25.5811 132.664 25.6133 132.832 25.6133ZM135.793 22.8301V26H135.251V22.8301H135.793ZM137.873 22.8301L136.37 24.6465H135.611L135.529 24.1719H136.15L137.214 22.8301H137.873ZM137.29 26L136.124 24.5645L136.473 24.1719L137.979 26H137.29ZM139.536 25.1416L140.998 22.8301H141.543V26H140.998V23.6885L139.536 26H138.997V22.8301H139.536V25.1416ZM143.499 25.1416L144.961 22.8301H145.506V26H144.961V23.6885L143.499 26H142.96V22.8301H143.499V25.1416ZM144.665 21.6816H145.104C145.104 21.834 145.069 21.9697 144.999 22.0889C144.929 22.2061 144.828 22.2979 144.697 22.3643C144.566 22.4307 144.411 22.4639 144.231 22.4639C143.96 22.4639 143.745 22.3916 143.587 22.2471C143.431 22.1006 143.353 21.9121 143.353 21.6816H143.792C143.792 21.7969 143.825 21.8984 143.892 21.9863C143.958 22.0742 144.071 22.1182 144.231 22.1182C144.388 22.1182 144.499 22.0742 144.565 21.9863C144.632 21.8984 144.665 21.7969 144.665 21.6816Z" fill="white"/>
<path d="M85.377 34.4688V43H83.918V34.4688H85.377ZM88.0547 34.4688V35.6406H81.2637V34.4688H88.0547ZM88.4492 39.9004V39.7656C88.4492 39.3086 88.5156 38.8848 88.6484 38.4941C88.7812 38.0996 88.9727 37.7578 89.2227 37.4688C89.4766 37.1758 89.7852 36.9492 90.1484 36.7891C90.5156 36.625 90.9297 36.543 91.3906 36.543C91.8555 36.543 92.2695 36.625 92.6328 36.7891C93 36.9492 93.3105 37.1758 93.5645 37.4688C93.8184 37.7578 94.0117 38.0996 94.1445 38.4941C94.2773 38.8848 94.3438 39.3086 94.3438 39.7656V39.9004C94.3438 40.3574 94.2773 40.7812 94.1445 41.1719C94.0117 41.5625 93.8184 41.9043 93.5645 42.1973C93.3105 42.4863 93.002 42.7129 92.6387 42.877C92.2754 43.0371 91.8633 43.1172 91.4023 43.1172C90.9375 43.1172 90.5215 43.0371 90.1543 42.877C89.791 42.7129 89.4824 42.4863 89.2285 42.1973C88.9746 41.9043 88.7812 41.5625 88.6484 41.1719C88.5156 40.7812 88.4492 40.3574 88.4492 39.9004ZM89.8613 39.7656V39.9004C89.8613 40.1855 89.8906 40.4551 89.9492 40.709C90.0078 40.9629 90.0996 41.1855 90.2246 41.377C90.3496 41.5684 90.5098 41.7188 90.7051 41.8281C90.9004 41.9375 91.1328 41.9922 91.4023 41.9922C91.6641 41.9922 91.8906 41.9375 92.082 41.8281C92.2773 41.7188 92.4375 41.5684 92.5625 41.377C92.6875 41.1855 92.7793 40.9629 92.8379 40.709C92.9004 40.4551 92.9316 40.1855 92.9316 39.9004V39.7656C92.9316 39.4844 92.9004 39.2188 92.8379 38.9688C92.7793 38.7148 92.6855 38.4902 92.5566 38.2949C92.4316 38.0996 92.2715 37.9473 92.0762 37.8379C91.8848 37.7246 91.6562 37.668 91.3906 37.668C91.125 37.668 90.8945 37.7246 90.6992 37.8379C90.5078 37.9473 90.3496 38.0996 90.2246 38.2949C90.0996 38.4902 90.0078 38.7148 89.9492 38.9688C89.8906 39.2188 89.8613 39.4844 89.8613 39.7656ZM99.7949 41.2891L101.682 36.6602H102.906L100.275 43H99.3145L96.6895 36.6602H97.9141L99.7949 41.2891ZM97.5508 36.6602V43H96.1387V36.6602H97.5508ZM102.039 43V36.6602H103.457V43H102.039ZM108.129 41.9922C108.359 41.9922 108.566 41.9473 108.75 41.8574C108.938 41.7637 109.088 41.6348 109.201 41.4707C109.318 41.3066 109.383 41.1172 109.395 40.9023H110.725C110.717 41.3125 110.596 41.6855 110.361 42.0215C110.127 42.3574 109.816 42.625 109.43 42.8242C109.043 43.0195 108.615 43.1172 108.146 43.1172C107.662 43.1172 107.24 43.0352 106.881 42.8711C106.521 42.7031 106.223 42.4727 105.984 42.1797C105.746 41.8867 105.566 41.5488 105.445 41.166C105.328 40.7832 105.27 40.373 105.27 39.9355V39.7305C105.27 39.293 105.328 38.8828 105.445 38.5C105.566 38.1133 105.746 37.7734 105.984 37.4805C106.223 37.1875 106.521 36.959 106.881 36.7949C107.24 36.627 107.66 36.543 108.141 36.543C108.648 36.543 109.094 36.6445 109.477 36.8477C109.859 37.0469 110.16 37.3262 110.379 37.6855C110.602 38.041 110.717 38.4551 110.725 38.9277H109.395C109.383 38.6934 109.324 38.4824 109.219 38.2949C109.117 38.1035 108.973 37.9512 108.785 37.8379C108.602 37.7246 108.381 37.668 108.123 37.668C107.838 37.668 107.602 37.7266 107.414 37.8438C107.227 37.957 107.08 38.1133 106.975 38.3125C106.869 38.5078 106.793 38.7285 106.746 38.9746C106.703 39.2168 106.682 39.4688 106.682 39.7305V39.9355C106.682 40.1973 106.703 40.4512 106.746 40.6973C106.789 40.9434 106.863 41.1641 106.969 41.3594C107.078 41.5508 107.227 41.7051 107.414 41.8223C107.602 41.9355 107.84 41.9922 108.129 41.9922ZM113.832 36.6602V43H112.42V36.6602H113.832ZM117.969 36.6602L115.115 40.4746H113.504L113.316 39.1973H114.494L116.205 36.6602H117.969ZM116.316 43L114.406 40.2344L115.52 39.4316L118.174 43H116.316ZM120.9 40.9375L123.391 36.6602H124.803V43H123.391V38.7168L120.9 43H119.488V36.6602H120.9V40.9375ZM128.256 40.9375L130.746 36.6602H132.158V43H130.746V38.7168L128.256 43H126.844V36.6602H128.256V40.9375ZM130.371 34.2227H131.42C131.42 34.5469 131.342 34.834 131.186 35.084C131.033 35.3301 130.814 35.5234 130.529 35.6641C130.248 35.8047 129.912 35.875 129.521 35.875C128.932 35.875 128.465 35.7227 128.121 35.418C127.781 35.1094 127.611 34.7109 127.611 34.2227H128.66C128.66 34.4414 128.725 34.6348 128.854 34.8027C128.986 34.9668 129.209 35.0488 129.521 35.0488C129.83 35.0488 130.049 34.9668 130.178 34.8027C130.307 34.6348 130.371 34.4414 130.371 34.2227ZM85.9453 50.6602V51.7852H83.1797V57H81.7676V50.6602H85.9453ZM86.8789 53.9004V53.7656C86.8789 53.3086 86.9453 52.8848 87.0781 52.4941C87.2109 52.0996 87.4023 51.7578 87.6523 51.4688C87.9062 51.1758 88.2148 50.9492 88.5781 50.7891C88.9453 50.625 89.3594 50.543 89.8203 50.543C90.2852 50.543 90.6992 50.625 91.0625 50.7891C91.4297 50.9492 91.7402 51.1758 91.9941 51.4688C92.248 51.7578 92.4414 52.0996 92.5742 52.4941C92.707 52.8848 92.7734 53.3086 92.7734 53.7656V53.9004C92.7734 54.3574 92.707 54.7812 92.5742 55.1719C92.4414 55.5625 92.248 55.9043 91.9941 56.1973C91.7402 56.4863 91.4316 56.7129 91.0684 56.877C90.7051 57.0371 90.293 57.1172 89.832 57.1172C89.3672 57.1172 88.9512 57.0371 88.584 56.877C88.2207 56.7129 87.9121 56.4863 87.6582 56.1973C87.4043 55.9043 87.2109 55.5625 87.0781 55.1719C86.9453 54.7812 86.8789 54.3574 86.8789 53.9004ZM88.291 53.7656V53.9004C88.291 54.1855 88.3203 54.4551 88.3789 54.709C88.4375 54.9629 88.5293 55.1855 88.6543 55.377C88.7793 55.5684 88.9395 55.7188 89.1348 55.8281C89.3301 55.9375 89.5625 55.9922 89.832 55.9922C90.0938 55.9922 90.3203 55.9375 90.5117 55.8281C90.707 55.7188 90.8672 55.5684 90.9922 55.377C91.1172 55.1855 91.209 54.9629 91.2676 54.709C91.3301 54.4551 91.3613 54.1855 91.3613 53.9004V53.7656C91.3613 53.4844 91.3301 53.2188 91.2676 52.9688C91.209 52.7148 91.1152 52.4902 90.9863 52.2949C90.8613 52.0996 90.7012 51.9473 90.5059 51.8379C90.3145 51.7246 90.0859 51.668 89.8203 51.668C89.5547 51.668 89.3242 51.7246 89.1289 51.8379C88.9375 51.9473 88.7793 52.0996 88.6543 52.2949C88.5293 52.4902 88.4375 52.7148 88.3789 52.9688C88.3203 53.2188 88.291 53.4844 88.291 53.7656ZM97.0469 55.9922C97.2773 55.9922 97.4844 55.9473 97.668 55.8574C97.8555 55.7637 98.0059 55.6348 98.1191 55.4707C98.2363 55.3066 98.3008 55.1172 98.3125 54.9023H99.6426C99.6348 55.3125 99.5137 55.6855 99.2793 56.0215C99.0449 56.3574 98.7344 56.625 98.3477 56.8242C97.9609 57.0195 97.5332 57.1172 97.0645 57.1172C96.5801 57.1172 96.1582 57.0352 95.7988 56.8711C95.4395 56.7031 95.1406 56.4727 94.9023 56.1797C94.6641 55.8867 94.4844 55.5488 94.3633 55.166C94.2461 54.7832 94.1875 54.373 94.1875 53.9355V53.7305C94.1875 53.293 94.2461 52.8828 94.3633 52.5C94.4844 52.1133 94.6641 51.7734 94.9023 51.4805C95.1406 51.1875 95.4395 50.959 95.7988 50.7949C96.1582 50.627 96.5781 50.543 97.0586 50.543C97.5664 50.543 98.0117 50.6445 98.3945 50.8477C98.7773 51.0469 99.0781 51.3262 99.2969 51.6855C99.5195 52.041 99.6348 52.4551 99.6426 52.9277H98.3125C98.3008 52.6934 98.2422 52.4824 98.1367 52.2949C98.0352 52.1035 97.8906 51.9512 97.7031 51.8379C97.5195 51.7246 97.2988 51.668 97.041 51.668C96.7559 51.668 96.5195 51.7266 96.332 51.8438C96.1445 51.957 95.998 52.1133 95.8926 52.3125C95.7871 52.5078 95.7109 52.7285 95.6641 52.9746C95.6211 53.2168 95.5996 53.4688 95.5996 53.7305V53.9355C95.5996 54.1973 95.6211 54.4512 95.6641 54.6973C95.707 54.9434 95.7812 55.1641 95.8867 55.3594C95.9961 55.5508 96.1445 55.7051 96.332 55.8223C96.5195 55.9355 96.7578 55.9922 97.0469 55.9922ZM103.066 56.3086L104.789 50.6602H106.301L103.758 57.9668C103.699 58.123 103.623 58.293 103.529 58.4766C103.436 58.6602 103.312 58.834 103.16 58.998C103.012 59.166 102.826 59.3008 102.604 59.4023C102.381 59.5078 102.111 59.5605 101.795 59.5605C101.67 59.5605 101.549 59.5488 101.432 59.5254C101.318 59.5059 101.211 59.4844 101.109 59.4609L101.104 58.3828C101.143 58.3867 101.189 58.3906 101.244 58.3945C101.303 58.3984 101.35 58.4004 101.385 58.4004C101.619 58.4004 101.814 58.3711 101.971 58.3125C102.127 58.2578 102.254 58.168 102.352 58.043C102.453 57.918 102.539 57.75 102.609 57.5391L103.066 56.3086ZM102.094 50.6602L103.6 55.4062L103.852 56.8945L102.873 57.1465L100.57 50.6602H102.094ZM108.43 50.6602H109.842L109.771 52.8926C109.752 53.541 109.678 54.0977 109.549 54.5625C109.42 55.0273 109.252 55.4199 109.045 55.7402C108.838 56.0566 108.604 56.3164 108.342 56.5195C108.084 56.7227 107.812 56.8828 107.527 57H107.111V55.8867L107.311 55.875C107.479 55.6953 107.623 55.5156 107.744 55.3359C107.869 55.1523 107.975 54.9512 108.061 54.7324C108.146 54.5098 108.213 54.25 108.26 53.9531C108.311 53.6562 108.344 53.3027 108.359 52.8926L108.43 50.6602ZM108.805 50.6602H112.824V57H111.418V51.8555H108.805V50.6602ZM106.789 55.875H113.691V58.8867H112.279V57H108.219V58.8867H106.783L106.789 55.875ZM118.773 55.7285V52.7051C118.773 52.4785 118.732 52.2832 118.65 52.1191C118.568 51.9551 118.443 51.8281 118.275 51.7383C118.111 51.6484 117.904 51.6035 117.654 51.6035C117.424 51.6035 117.225 51.6426 117.057 51.7207C116.889 51.7988 116.758 51.9043 116.664 52.0371C116.57 52.1699 116.523 52.3203 116.523 52.4883H115.117C115.117 52.2383 115.178 51.9961 115.299 51.7617C115.42 51.5273 115.596 51.3184 115.826 51.1348C116.057 50.9512 116.332 50.8066 116.652 50.7012C116.973 50.5957 117.332 50.543 117.73 50.543C118.207 50.543 118.629 50.623 118.996 50.7832C119.367 50.9434 119.658 51.1855 119.869 51.5098C120.084 51.8301 120.191 52.2324 120.191 52.7168V55.5352C120.191 55.8242 120.211 56.084 120.25 56.3145C120.293 56.541 120.354 56.7383 120.432 56.9062V57H118.984C118.918 56.8477 118.865 56.6543 118.826 56.4199C118.791 56.1816 118.773 55.9512 118.773 55.7285ZM118.979 53.1445L118.99 54.0176H117.977C117.715 54.0176 117.484 54.043 117.285 54.0938C117.086 54.1406 116.92 54.2109 116.787 54.3047C116.654 54.3984 116.555 54.5117 116.488 54.6445C116.422 54.7773 116.389 54.9277 116.389 55.0957C116.389 55.2637 116.428 55.418 116.506 55.5586C116.584 55.6953 116.697 55.8027 116.846 55.8809C116.998 55.959 117.182 55.998 117.396 55.998C117.686 55.998 117.938 55.9395 118.152 55.8223C118.371 55.7012 118.543 55.5547 118.668 55.3828C118.793 55.207 118.859 55.041 118.867 54.8848L119.324 55.5117C119.277 55.6719 119.197 55.8438 119.084 56.0273C118.971 56.2109 118.822 56.3867 118.639 56.5547C118.459 56.7188 118.242 56.8535 117.988 56.959C117.738 57.0645 117.449 57.1172 117.121 57.1172C116.707 57.1172 116.338 57.0352 116.014 56.8711C115.689 56.7031 115.436 56.4785 115.252 56.1973C115.068 55.9121 114.977 55.5898 114.977 55.2305C114.977 54.8945 115.039 54.5977 115.164 54.3398C115.293 54.0781 115.48 53.8594 115.727 53.6836C115.977 53.5078 116.281 53.375 116.641 53.2852C117 53.1914 117.41 53.1445 117.871 53.1445H118.979ZM123.586 51.8789V59.4375H122.174V50.6602H123.475L123.586 51.8789ZM127.717 53.7715V53.8945C127.717 54.3555 127.662 54.7832 127.553 55.1777C127.447 55.5684 127.289 55.9102 127.078 56.2031C126.871 56.4922 126.615 56.7168 126.311 56.877C126.006 57.0371 125.654 57.1172 125.256 57.1172C124.861 57.1172 124.516 57.0449 124.219 56.9004C123.926 56.752 123.678 56.543 123.475 56.2734C123.271 56.0039 123.107 55.6875 122.982 55.3242C122.861 54.957 122.775 54.5547 122.725 54.1172V53.6426C122.775 53.1777 122.861 52.7559 122.982 52.377C123.107 51.998 123.271 51.6719 123.475 51.3984C123.678 51.125 123.926 50.9141 124.219 50.7656C124.512 50.6172 124.854 50.543 125.244 50.543C125.643 50.543 125.996 50.6211 126.305 50.7773C126.613 50.9297 126.873 51.1484 127.084 51.4336C127.295 51.7148 127.453 52.0547 127.559 52.4531C127.664 52.8477 127.717 53.2871 127.717 53.7715ZM126.305 53.8945V53.7715C126.305 53.4785 126.277 53.207 126.223 52.957C126.168 52.7031 126.082 52.4805 125.965 52.2891C125.848 52.0977 125.697 51.9492 125.514 51.8438C125.334 51.7344 125.117 51.6797 124.863 51.6797C124.613 51.6797 124.398 51.7227 124.219 51.8086C124.039 51.8906 123.889 52.0059 123.768 52.1543C123.646 52.3027 123.553 52.4766 123.486 52.6758C123.42 52.8711 123.373 53.084 123.346 53.3145V54.4512C123.393 54.7324 123.473 54.9902 123.586 55.2246C123.699 55.459 123.859 55.6465 124.066 55.7871C124.277 55.9238 124.547 55.9922 124.875 55.9922C125.129 55.9922 125.346 55.9375 125.525 55.8281C125.705 55.7188 125.852 55.5684 125.965 55.377C126.082 55.1816 126.168 54.957 126.223 54.7031C126.277 54.4492 126.305 54.1797 126.305 53.8945ZM132.008 55.9922C132.238 55.9922 132.445 55.9473 132.629 55.8574C132.816 55.7637 132.967 55.6348 133.08 55.4707C133.197 55.3066 133.262 55.1172 133.273 54.9023H134.604C134.596 55.3125 134.475 55.6855 134.24 56.0215C134.006 56.3574 133.695 56.625 133.309 56.8242C132.922 57.0195 132.494 57.1172 132.025 57.1172C131.541 57.1172 131.119 57.0352 130.76 56.8711C130.4 56.7031 130.102 56.4727 129.863 56.1797C129.625 55.8867 129.445 55.5488 129.324 55.166C129.207 54.7832 129.148 54.373 129.148 53.9355V53.7305C129.148 53.293 129.207 52.8828 129.324 52.5C129.445 52.1133 129.625 51.7734 129.863 51.4805C130.102 51.1875 130.4 50.959 130.76 50.7949C131.119 50.627 131.539 50.543 132.02 50.543C132.527 50.543 132.973 50.6445 133.355 50.8477C133.738 51.0469 134.039 51.3262 134.258 51.6855C134.48 52.041 134.596 52.4551 134.604 52.9277H133.273C133.262 52.6934 133.203 52.4824 133.098 52.2949C132.996 52.1035 132.852 51.9512 132.664 51.8379C132.48 51.7246 132.26 51.668 132.002 51.668C131.717 51.668 131.48 51.7266 131.293 51.8438C131.105 51.957 130.959 52.1133 130.854 52.3125C130.748 52.5078 130.672 52.7285 130.625 52.9746C130.582 53.2168 130.561 53.4688 130.561 53.7305V53.9355C130.561 54.1973 130.582 54.4512 130.625 54.6973C130.668 54.9434 130.742 55.1641 130.848 55.3594C130.957 55.5508 131.105 55.7051 131.293 55.8223C131.48 55.9355 131.719 55.9922 132.008 55.9922ZM139.129 50.6602V57H137.711V50.6602H139.129ZM141.209 50.6602V51.7734H135.666V50.6602H141.209ZM145.734 54.2871H143.707L143.695 53.291H145.359C145.633 53.291 145.857 53.2637 146.033 53.209C146.213 53.1543 146.346 53.0723 146.432 52.9629C146.518 52.8496 146.561 52.7129 146.561 52.5527C146.561 52.4199 146.535 52.3047 146.484 52.207C146.434 52.1055 146.355 52.0234 146.25 51.9609C146.148 51.8945 146.02 51.8477 145.863 51.8203C145.711 51.7891 145.533 51.7734 145.33 51.7734H144.176V57H142.764V50.6602H145.33C145.736 50.6602 146.102 50.6953 146.426 50.7656C146.754 50.8359 147.033 50.9434 147.264 51.0879C147.494 51.2324 147.67 51.416 147.791 51.6387C147.916 51.8574 147.979 52.1152 147.979 52.4121C147.979 52.6074 147.936 52.791 147.85 52.9629C147.768 53.1348 147.645 53.2871 147.48 53.4199C147.316 53.5527 147.115 53.6621 146.877 53.748C146.639 53.8301 146.365 53.8809 146.057 53.9004L145.734 54.2871ZM145.734 57H143.297L143.859 55.8867H145.734C145.984 55.8867 146.191 55.8555 146.355 55.793C146.52 55.7305 146.641 55.6406 146.719 55.5234C146.801 55.4023 146.842 55.2598 146.842 55.0957C146.842 54.9277 146.803 54.7832 146.725 54.6621C146.646 54.541 146.525 54.4492 146.361 54.3867C146.201 54.3203 145.992 54.2871 145.734 54.2871H144.123L144.135 53.291H146.051L146.455 53.6777C146.857 53.7051 147.191 53.791 147.457 53.9355C147.723 54.0801 147.922 54.2617 148.055 54.4805C148.188 54.6992 148.254 54.9375 148.254 55.1953C148.254 55.4922 148.197 55.7539 148.084 55.9805C147.975 56.207 147.811 56.3965 147.592 56.5488C147.377 56.6973 147.113 56.8105 146.801 56.8887C146.488 56.9629 146.133 57 145.734 57ZM152.768 57.1172C152.299 57.1172 151.875 57.041 151.496 56.8887C151.121 56.7324 150.801 56.5156 150.535 56.2383C150.273 55.9609 150.072 55.6348 149.932 55.2598C149.791 54.8848 149.721 54.4805 149.721 54.0469V53.8125C149.721 53.3164 149.793 52.8672 149.938 52.4648C150.082 52.0625 150.283 51.7188 150.541 51.4336C150.799 51.1445 151.104 50.9238 151.455 50.7715C151.807 50.6191 152.188 50.543 152.598 50.543C153.051 50.543 153.447 50.6191 153.787 50.7715C154.127 50.9238 154.408 51.1387 154.631 51.416C154.857 51.6895 155.025 52.0156 155.135 52.3945C155.248 52.7734 155.305 53.1914 155.305 53.6484V54.252H150.406V53.2383H153.91V53.127C153.902 52.873 153.852 52.6348 153.758 52.4121C153.668 52.1895 153.529 52.0098 153.342 51.873C153.154 51.7363 152.904 51.668 152.592 51.668C152.357 51.668 152.148 51.7188 151.965 51.8203C151.785 51.918 151.635 52.0605 151.514 52.248C151.393 52.4355 151.299 52.6621 151.232 52.9277C151.17 53.1895 151.139 53.4844 151.139 53.8125V54.0469C151.139 54.3242 151.176 54.582 151.25 54.8203C151.328 55.0547 151.441 55.2598 151.59 55.4355C151.738 55.6113 151.918 55.75 152.129 55.8516C152.34 55.9492 152.58 55.998 152.85 55.998C153.189 55.998 153.492 55.9297 153.758 55.793C154.023 55.6562 154.254 55.4629 154.449 55.2129L155.193 55.9336C155.057 56.1328 154.879 56.3242 154.66 56.5078C154.441 56.6875 154.174 56.834 153.857 56.9473C153.545 57.0605 153.182 57.1172 152.768 57.1172ZM161.236 53.3086V54.4219H157.955V53.3086H161.236ZM158.365 50.6602V57H156.953V50.6602H158.365ZM162.256 50.6602V57H160.844V50.6602H162.256ZM168.592 53.3086V54.4219H165.311V53.3086H168.592ZM165.721 50.6602V57H164.309V50.6602H165.721ZM169.611 50.6602V57H168.199V50.6602H169.611ZM172.666 52.6758H174.535C175.082 52.6758 175.547 52.7676 175.93 52.9512C176.312 53.1348 176.604 53.3906 176.803 53.7188C177.006 54.043 177.107 54.4141 177.107 54.832C177.107 55.1406 177.051 55.4277 176.938 55.6934C176.824 55.9551 176.656 56.1836 176.434 56.3789C176.215 56.5742 175.945 56.7266 175.625 56.8359C175.309 56.9453 174.945 57 174.535 57H171.729V50.6602H173.146V55.8809H174.535C174.816 55.8809 175.041 55.832 175.209 55.7344C175.377 55.6367 175.498 55.5098 175.572 55.3535C175.65 55.1973 175.689 55.0312 175.689 54.8555C175.689 54.6758 175.65 54.5059 175.572 54.3457C175.498 54.1855 175.377 54.0547 175.209 53.9531C175.041 53.8516 174.816 53.8008 174.535 53.8008H172.666V52.6758ZM179.604 50.6602V57H178.191V50.6602H179.604ZM183.232 54.9375L185.723 50.6602H187.135V57H185.723V52.7168L183.232 57H181.82V50.6602H183.232V54.9375ZM185.348 48.2227H186.396C186.396 48.5469 186.318 48.834 186.162 49.084C186.01 49.3301 185.791 49.5234 185.506 49.6641C185.225 49.8047 184.889 49.875 184.498 49.875C183.908 49.875 183.441 49.7227 183.098 49.418C182.758 49.1094 182.588 48.7109 182.588 48.2227H183.637C183.637 48.4414 183.701 48.6348 183.83 48.8027C183.963 48.9668 184.186 49.0488 184.498 49.0488C184.807 49.0488 185.025 48.9668 185.154 48.8027C185.283 48.6348 185.348 48.4414 185.348 48.2227ZM83.5664 70.3086L85.2891 64.6602H86.8008L84.2578 71.9668C84.1992 72.123 84.123 72.293 84.0293 72.4766C83.9355 72.6602 83.8125 72.834 83.6602 72.998C83.5117 73.166 83.3262 73.3008 83.1035 73.4023C82.8809 73.5078 82.6113 73.5605 82.2949 73.5605C82.1699 73.5605 82.0488 73.5488 81.9316 73.5254C81.8184 73.5059 81.7109 73.4844 81.6094 73.4609L81.6035 72.3828C81.6426 72.3867 81.6895 72.3906 81.7441 72.3945C81.8027 72.3984 81.8496 72.4004 81.8848 72.4004C82.1191 72.4004 82.3145 72.3711 82.4707 72.3125C82.627 72.2578 82.7539 72.168 82.8516 72.043C82.9531 71.918 83.0391 71.75 83.1094 71.5391L83.5664 70.3086ZM82.5938 64.6602L84.0996 69.4062L84.3516 70.8945L83.373 71.1465L81.0703 64.6602H82.5938ZM92.4395 67.3086V68.4219H89.1582V67.3086H92.4395ZM89.5684 64.6602V71H88.1562V64.6602H89.5684ZM93.459 64.6602V71H92.0469V64.6602H93.459ZM96.9238 68.9375L99.4141 64.6602H100.826V71H99.4141V66.7168L96.9238 71H95.5117V64.6602H96.9238V68.9375ZM105.902 68.2871H103.875L103.863 67.291H105.527C105.801 67.291 106.025 67.2637 106.201 67.209C106.381 67.1543 106.514 67.0723 106.6 66.9629C106.686 66.8496 106.729 66.7129 106.729 66.5527C106.729 66.4199 106.703 66.3047 106.652 66.207C106.602 66.1055 106.523 66.0234 106.418 65.9609C106.316 65.8945 106.188 65.8477 106.031 65.8203C105.879 65.7891 105.701 65.7734 105.498 65.7734H104.344V71H102.932V64.6602H105.498C105.904 64.6602 106.27 64.6953 106.594 64.7656C106.922 64.8359 107.201 64.9434 107.432 65.0879C107.662 65.2324 107.838 65.416 107.959 65.6387C108.084 65.8574 108.146 66.1152 108.146 66.4121C108.146 66.6074 108.104 66.791 108.018 66.9629C107.936 67.1348 107.812 67.2871 107.648 67.4199C107.484 67.5527 107.283 67.6621 107.045 67.748C106.807 67.8301 106.533 67.8809 106.225 67.9004L105.902 68.2871ZM105.902 71H103.465L104.027 69.8867H105.902C106.152 69.8867 106.359 69.8555 106.523 69.793C106.688 69.7305 106.809 69.6406 106.887 69.5234C106.969 69.4023 107.01 69.2598 107.01 69.0957C107.01 68.9277 106.971 68.7832 106.893 68.6621C106.814 68.541 106.693 68.4492 106.529 68.3867C106.369 68.3203 106.16 68.2871 105.902 68.2871H104.291L104.303 67.291H106.219L106.623 67.6777C107.025 67.7051 107.359 67.791 107.625 67.9355C107.891 68.0801 108.09 68.2617 108.223 68.4805C108.355 68.6992 108.422 68.9375 108.422 69.1953C108.422 69.4922 108.365 69.7539 108.252 69.9805C108.143 70.207 107.979 70.3965 107.76 70.5488C107.545 70.6973 107.281 70.8105 106.969 70.8887C106.656 70.9629 106.301 71 105.902 71ZM112.936 71.1172C112.467 71.1172 112.043 71.041 111.664 70.8887C111.289 70.7324 110.969 70.5156 110.703 70.2383C110.441 69.9609 110.24 69.6348 110.1 69.2598C109.959 68.8848 109.889 68.4805 109.889 68.0469V67.8125C109.889 67.3164 109.961 66.8672 110.105 66.4648C110.25 66.0625 110.451 65.7188 110.709 65.4336C110.967 65.1445 111.271 64.9238 111.623 64.7715C111.975 64.6191 112.355 64.543 112.766 64.543C113.219 64.543 113.615 64.6191 113.955 64.7715C114.295 64.9238 114.576 65.1387 114.799 65.416C115.025 65.6895 115.193 66.0156 115.303 66.3945C115.416 66.7734 115.473 67.1914 115.473 67.6484V68.252H110.574V67.2383H114.078V67.127C114.07 66.873 114.02 66.6348 113.926 66.4121C113.836 66.1895 113.697 66.0098 113.51 65.873C113.322 65.7363 113.072 65.668 112.76 65.668C112.525 65.668 112.316 65.7188 112.133 65.8203C111.953 65.918 111.803 66.0605 111.682 66.248C111.561 66.4355 111.467 66.6621 111.4 66.9277C111.338 67.1895 111.307 67.4844 111.307 67.8125V68.0469C111.307 68.3242 111.344 68.582 111.418 68.8203C111.496 69.0547 111.609 69.2598 111.758 69.4355C111.906 69.6113 112.086 69.75 112.297 69.8516C112.508 69.9492 112.748 69.998 113.018 69.998C113.357 69.998 113.66 69.9297 113.926 69.793C114.191 69.6562 114.422 69.4629 114.617 69.2129L115.361 69.9336C115.225 70.1328 115.047 70.3242 114.828 70.5078C114.609 70.6875 114.342 70.834 114.025 70.9473C113.713 71.0605 113.35 71.1172 112.936 71.1172ZM118.492 65.8789V73.4375H117.08V64.6602H118.381L118.492 65.8789ZM122.623 67.7715V67.8945C122.623 68.3555 122.568 68.7832 122.459 69.1777C122.354 69.5684 122.195 69.9102 121.984 70.2031C121.777 70.4922 121.521 70.7168 121.217 70.877C120.912 71.0371 120.561 71.1172 120.162 71.1172C119.768 71.1172 119.422 71.0449 119.125 70.9004C118.832 70.752 118.584 70.543 118.381 70.2734C118.178 70.0039 118.014 69.6875 117.889 69.3242C117.768 68.957 117.682 68.5547 117.631 68.1172V67.6426C117.682 67.1777 117.768 66.7559 117.889 66.377C118.014 65.998 118.178 65.6719 118.381 65.3984C118.584 65.125 118.832 64.9141 119.125 64.7656C119.418 64.6172 119.76 64.543 120.15 64.543C120.549 64.543 120.902 64.6211 121.211 64.7773C121.52 64.9297 121.779 65.1484 121.99 65.4336C122.201 65.7148 122.359 66.0547 122.465 66.4531C122.57 66.8477 122.623 67.2871 122.623 67.7715ZM121.211 67.8945V67.7715C121.211 67.4785 121.184 67.207 121.129 66.957C121.074 66.7031 120.988 66.4805 120.871 66.2891C120.754 66.0977 120.604 65.9492 120.42 65.8438C120.24 65.7344 120.023 65.6797 119.77 65.6797C119.52 65.6797 119.305 65.7227 119.125 65.8086C118.945 65.8906 118.795 66.0059 118.674 66.1543C118.553 66.3027 118.459 66.4766 118.393 66.6758C118.326 66.8711 118.279 67.084 118.252 67.3145V68.4512C118.299 68.7324 118.379 68.9902 118.492 69.2246C118.605 69.459 118.766 69.6465 118.973 69.7871C119.184 69.9238 119.453 69.9922 119.781 69.9922C120.035 69.9922 120.252 69.9375 120.432 69.8281C120.611 69.7188 120.758 69.5684 120.871 69.377C120.988 69.1816 121.074 68.957 121.129 68.7031C121.184 68.4492 121.211 68.1797 121.211 67.8945ZM126.914 69.9922C127.145 69.9922 127.352 69.9473 127.535 69.8574C127.723 69.7637 127.873 69.6348 127.986 69.4707C128.104 69.3066 128.168 69.1172 128.18 68.9023H129.51C129.502 69.3125 129.381 69.6855 129.146 70.0215C128.912 70.3574 128.602 70.625 128.215 70.8242C127.828 71.0195 127.4 71.1172 126.932 71.1172C126.447 71.1172 126.025 71.0352 125.666 70.8711C125.307 70.7031 125.008 70.4727 124.77 70.1797C124.531 69.8867 124.352 69.5488 124.23 69.166C124.113 68.7832 124.055 68.373 124.055 67.9355V67.7305C124.055 67.293 124.113 66.8828 124.23 66.5C124.352 66.1133 124.531 65.7734 124.77 65.4805C125.008 65.1875 125.307 64.959 125.666 64.7949C126.025 64.627 126.445 64.543 126.926 64.543C127.434 64.543 127.879 64.6445 128.262 64.8477C128.645 65.0469 128.945 65.3262 129.164 65.6855C129.387 66.041 129.502 66.4551 129.51 66.9277H128.18C128.168 66.6934 128.109 66.4824 128.004 66.2949C127.902 66.1035 127.758 65.9512 127.57 65.8379C127.387 65.7246 127.166 65.668 126.908 65.668C126.623 65.668 126.387 65.7266 126.199 65.8438C126.012 65.957 125.865 66.1133 125.76 66.3125C125.654 66.5078 125.578 66.7285 125.531 66.9746C125.488 67.2168 125.467 67.4688 125.467 67.7305V67.9355C125.467 68.1973 125.488 68.4512 125.531 68.6973C125.574 68.9434 125.648 69.1641 125.754 69.3594C125.863 69.5508 126.012 69.7051 126.199 69.8223C126.387 69.9355 126.625 69.9922 126.914 69.9922ZM132.553 68.9375L135.043 64.6602H136.455V71H135.043V66.7168L132.553 71H131.141V64.6602H132.553V68.9375ZM141.391 64.6602V71H139.973V64.6602H141.391ZM143.471 64.6602V65.7734H137.928V64.6602H143.471ZM147.275 71.1172C146.807 71.1172 146.383 71.041 146.004 70.8887C145.629 70.7324 145.309 70.5156 145.043 70.2383C144.781 69.9609 144.58 69.6348 144.439 69.2598C144.299 68.8848 144.229 68.4805 144.229 68.0469V67.8125C144.229 67.3164 144.301 66.8672 144.445 66.4648C144.59 66.0625 144.791 65.7188 145.049 65.4336C145.307 65.1445 145.611 64.9238 145.963 64.7715C146.314 64.6191 146.695 64.543 147.105 64.543C147.559 64.543 147.955 64.6191 148.295 64.7715C148.635 64.9238 148.916 65.1387 149.139 65.416C149.365 65.6895 149.533 66.0156 149.643 66.3945C149.756 66.7734 149.812 67.1914 149.812 67.6484V68.252H144.914V67.2383H148.418V67.127C148.41 66.873 148.359 66.6348 148.266 66.4121C148.176 66.1895 148.037 66.0098 147.85 65.873C147.662 65.7363 147.412 65.668 147.1 65.668C146.865 65.668 146.656 65.7188 146.473 65.8203C146.293 65.918 146.143 66.0605 146.021 66.248C145.9 66.4355 145.807 66.6621 145.74 66.9277C145.678 67.1895 145.646 67.4844 145.646 67.8125V68.0469C145.646 68.3242 145.684 68.582 145.758 68.8203C145.836 69.0547 145.949 69.2598 146.098 69.4355C146.246 69.6113 146.426 69.75 146.637 69.8516C146.848 69.9492 147.088 69.998 147.357 69.998C147.697 69.998 148 69.9297 148.266 69.793C148.531 69.6562 148.762 69.4629 148.957 69.2129L149.701 69.9336C149.564 70.1328 149.387 70.3242 149.168 70.5078C148.949 70.6875 148.682 70.834 148.365 70.9473C148.053 71.0605 147.689 71.1172 147.275 71.1172ZM154.285 64.6602V71H152.867V64.6602H154.285ZM156.365 64.6602V65.7734H150.822V64.6602H156.365Z" fill="white"/>
<g clip-path="url(#clip0_130_1719)">
<path d="M16.1611 44.1896V19.2385H28.5055V44.9886C28.5055 48.8228 31.0323 52.7605 36.0302 52.7605C40.9668 52.7605 43.4965 48.8228 43.4965 44.9886V19.2385H55.8387V44.1285C55.8387 54.0747 49.5777 63.8535 36.0302 63.8535C22.4828 63.8535 16.1611 54.0747 16.1611 44.1896Z" fill="white"/>
<path d="M66.859 46.5113C66.859 63.2594 53.1657 76.8846 36.334 76.8846H35.6653C18.8343 76.8846 5.14095 63.2594 5.14095 46.5113V11.568H66.859V46.5113ZM67.9603 4.14535H61.9015L57.8748 5.24904V6.68328H44.6719V5.16785L40.6279 3.61147H37.3508L36.6655 3.23997C36.6886 3.1717 36.7095 3.10201 36.7095 3.02584C36.7095 2.73698 36.5275 2.49195 36.2726 2.39207V7.62939e-06H35.7635V2.39351C35.5115 2.49483 35.3324 2.73914 35.3324 3.02584C35.3324 3.10057 35.3533 3.16955 35.375 3.23637L34.6824 3.61147H31.2523L27.4003 5.22462V6.68328H14.1114V5.25407L10.0847 4.14535H4.02595L0 5.25407V10.9996V46.5113C0 66.0797 15.9991 82 35.6653 82H36.334C56.0002 82 72 66.0797 72 46.5113V7.42986H71.987V5.25911L67.9603 4.14535Z" fill="white"/>
<path d="M18.8132 60.3728L21.1652 62.7447L20.5485 63.3497L19.6971 62.4903L17.4368 64.71L16.7876 64.0554L19.0479 61.8365L18.1965 60.9778L18.8132 60.3728Z" fill="white"/>
<path d="M21.6833 67.1039C22.3253 67.5236 22.9565 67.29 23.3306 66.7238C23.7371 66.1087 23.5739 65.4239 23.0287 65.0675C22.469 64.7011 21.7873 64.8333 21.3808 65.4477C21.0002 66.0239 21.1425 66.7504 21.6833 67.1039ZM23.5046 64.3468C24.5322 65.0201 24.8586 66.1899 24.1509 67.2606C23.4779 68.2788 22.2351 68.4965 21.2074 67.8239C20.1791 67.1513 19.8527 65.9815 20.5604 64.9109C21.2046 63.9358 22.4279 63.6434 23.5046 64.3468Z" fill="white"/>
<path d="M26.1323 65.9888L27.0126 66.287L27.6438 68.2911L29.3076 67.0652L30.133 67.3454L28.8295 71.1523L27.955 70.8549L28.7855 68.4297L27.2112 69.5528L27.0855 69.5104L26.5281 67.6824L25.7026 70.0918L24.8281 69.7957L26.1323 65.9888Z" fill="white"/>
<path d="M31.2336 68.6127C31.3116 67.9969 31.8734 67.5226 32.675 67.6247C33.1913 67.6901 33.582 67.9128 33.8001 68.2125L33.2195 68.8347C33.0628 68.6472 32.9443 68.5279 32.6461 68.4898C32.3941 68.4582 32.2309 68.553 32.2078 68.7356C32.1225 69.3973 33.8167 69.4484 33.6513 70.7489C33.5625 71.4438 32.8996 71.8469 32.1254 71.7492C31.5867 71.6816 30.9917 71.3748 30.8516 70.9221L31.4524 70.3667C31.6438 70.6864 31.9767 70.8618 32.2576 70.8977C32.4988 70.9279 32.6511 70.8251 32.675 70.6369C32.7522 70.0383 31.0689 69.9011 31.2336 68.6127Z" fill="white"/>
<path d="M35.251 67.9255L36.1746 67.9047L36.215 69.6565L37.4968 67.8745L38.6061 67.8493L37.13 69.7391L38.8191 71.8675L37.6471 71.8941L36.223 70.0129L36.267 71.9257L35.3434 71.9473L35.251 67.9255Z" fill="white"/>
<path d="M39.7861 69.4689L41.2925 69.2311L41.4196 70.0258L39.9125 70.2637L39.7861 69.4689Z" fill="white"/>
<path d="M42.9187 67.0073L43.5181 66.8377L44.6216 70.7057L43.7882 70.9414L43.0213 68.2497L42.7093 68.6305L42.0811 68.0679L42.9187 67.0073Z" fill="white"/>
<path d="M47.0495 68.0086C46.8148 68.1185 46.6487 68.3484 46.7715 68.6086C46.8675 68.8105 47.087 68.924 47.4315 68.7631C47.8287 68.5769 47.8366 68.3513 47.7377 68.1559C47.6099 67.8986 47.3629 67.862 47.1123 67.9791L47.0495 68.0086ZM46.7433 67.1995C46.9888 67.0845 47.0148 66.856 46.939 66.6958C46.8429 66.4931 46.6509 66.4364 46.3844 66.5614C46.1129 66.6886 46.0695 66.8934 46.1504 67.0651C46.2262 67.2261 46.4198 67.3511 46.6754 67.2311L46.7433 67.1995ZM46.0103 69.1554C45.7785 68.6668 45.8969 68.2428 46.1331 67.9741L46.1266 67.9583C45.8247 67.9403 45.4622 67.7679 45.2485 67.3152C44.9784 66.7439 45.3373 66.1001 46.0211 65.7789C46.705 65.4591 47.438 65.5928 47.7081 66.164C47.8756 66.5176 47.8446 66.9509 47.5918 67.2663L47.599 67.2814C47.9572 67.2153 48.3912 67.3798 48.6151 67.8526C48.9393 68.5389 48.5681 69.1827 47.8056 69.5398C47.043 69.8969 46.3021 69.7741 46.0103 69.1554Z" fill="white"/>
<path d="M48.0771 64.7923L50.2313 63.2438L50.5765 63.7188L51.49 67.3029L50.7216 67.8555L49.9006 64.5451L48.5848 65.4914L48.0771 64.7923Z" fill="white"/>
<path d="M53.6333 63.3045C53.4527 63.4906 53.3798 63.7644 53.5878 63.9634C53.7495 64.1193 53.9951 64.1473 54.2601 63.8743C54.5648 63.5596 54.4912 63.3462 54.3302 63.1988C54.1178 63.0034 53.8738 63.0559 53.6809 63.2549L53.6333 63.3045ZM53.0585 62.6563C53.2469 62.4616 53.1899 62.2396 53.0613 62.116C52.8989 61.9601 52.6988 61.9752 52.4945 62.1864C52.2865 62.4013 52.3183 62.6075 52.4555 62.7397C52.584 62.8633 52.8093 62.9121 53.0065 62.7095L53.0585 62.6563ZM53.0707 64.7445C52.68 64.3687 52.6396 63.9311 52.7645 63.5955L52.7515 63.584C52.4641 63.6745 52.0626 63.6408 51.7015 63.293C51.2444 62.8539 51.3499 62.1246 51.8756 61.5835C52.4013 61.0425 53.1343 60.9074 53.5907 61.3464C53.873 61.6173 53.9987 62.0341 53.8752 62.4185L53.8875 62.43C54.1987 62.2417 54.6645 62.2417 55.0422 62.6046C55.5903 63.132 55.4726 63.8649 54.8869 64.4685C54.302 65.0721 53.5647 65.2194 53.0707 64.7445Z" fill="white"/>
</g>
<defs>
<clipPath id="clip0_130_1719">
<rect width="72" height="82" fill="white"/>
</clipPath>
</defs>
</svg>
