<svg width="94" height="108" viewBox="0 0 94 108" fill="none" xmlns="http://www.w3.org/2000/svg">
<path d="M47.0494 1.16138C47.0494 1.69088 47.1393 2.23628 47.03 2.7499C46.8167 3.74714 47.4759 4.45844 47.7932 5.258C47.9096 5.55628 48.5565 5.73102 48.9848 5.79633C49.5981 5.86872 50.2173 5.87582 50.8321 5.81751C52.1094 5.71454 53.3919 5.9393 54.5584 6.47057C55.4556 6.88888 56.3986 7.20658 57.3311 7.5437C57.5127 7.58901 57.6711 7.70018 57.7757 7.8557C57.8802 8.01123 57.9234 8.20004 57.8969 8.38562C57.844 9.9459 57.8775 9.79764 59.344 9.79764H74.2087C75.2028 9.79764 75.2663 9.76587 75.224 8.73862C75.1993 8.12439 75.4003 7.82257 76.0101 7.67961C77.378 7.34602 78.7264 6.93477 80.0855 6.56764C80.3007 6.52107 80.5212 6.50268 80.7412 6.51293C83.0538 6.51293 85.3682 6.49351 87.6808 6.51293C88.1632 6.54017 88.6403 6.62672 89.1015 6.77062C90.249 7.07773 91.393 7.4378 92.5352 7.73079C93.0076 7.85081 93.1786 8.06791 93.168 8.55329C93.1451 9.76586 93.168 10.9784 93.168 12.1928C93.168 28.9593 93.1598 45.727 93.1434 62.4959C93.1434 66.5908 92.4224 70.5939 91.2502 74.5193C89.5097 80.3907 86.5999 85.8484 82.696 90.5633C78.8489 95.2404 74.1165 99.11 68.7708 101.949C64.7834 104.085 60.4972 105.607 56.0567 106.463C51.768 107.289 47.3868 107.527 43.034 107.169C39.565 106.902 36.1362 106.251 32.8105 105.227C22.1512 101.878 13.0669 94.7719 7.24286 85.2259C5.4132 82.2501 3.89377 79.1136 2.89962 75.7601C2.19455 73.3632 1.4983 70.9363 1.12108 68.4723C0.763337 65.9622 0.59306 63.4288 0.61167 60.8933C0.571128 43.5308 0.59228 26.1682 0.576416 8.80569C0.576416 8.15616 0.71743 7.81551 1.41016 7.6549C2.76037 7.34425 4.08238 6.91535 5.42025 6.55176C5.6573 6.50321 5.89953 6.48483 6.14118 6.49704C7.92501 6.49704 9.71413 6.57117 11.4944 6.47586C13.1214 6.39291 14.6302 6.81298 16.1532 7.23659C16.7472 7.40426 17.3307 7.61783 17.9335 7.73962C18.4306 7.84022 18.5557 8.09262 18.5504 8.56741C18.5346 9.80293 18.3371 9.78528 19.7473 9.78351H34.8851C35.9181 9.78351 35.9851 9.76057 35.9163 8.7598C35.8634 8.03438 36.1402 7.70079 36.7976 7.46251C37.709 7.14127 38.5956 6.74238 39.4734 6.33466C40.2884 5.94103 41.1891 5.75894 42.0927 5.80515C42.9741 5.85104 43.8554 5.8228 44.7367 5.80515C45.5775 5.79103 45.8173 5.40096 46.2509 4.72672C46.9154 3.68889 46.6704 2.6087 46.7145 1.53909C46.7164 1.45154 46.7247 1.36423 46.7391 1.27787C46.7391 1.2408 46.7903 1.21256 46.8185 1.17903L47.0494 1.16138ZM46.8572 15.8111C33.8804 15.8111 20.9024 15.8111 7.92325 15.8111C6.96083 15.8111 6.92205 15.8446 6.92381 16.6742C6.92381 31.6098 6.93263 46.5454 6.95025 61.481C6.9843 63.5487 7.14974 65.612 7.44557 67.6586C7.77166 70.172 8.47144 72.6007 9.34397 74.9888C10.6298 78.5369 12.4262 81.878 14.6761 84.9064C17.5003 88.7269 20.9834 92.0114 24.9613 94.6052C29.0813 97.3064 33.6765 99.1992 38.5022 100.183C43.6754 101.239 49.0017 101.303 54.1988 100.372C61.0045 99.1696 67.0663 96.3297 72.4002 91.9506C79.5 86.0867 84.348 77.9378 86.1173 68.8941C86.6761 66.0966 86.8224 63.2461 86.8224 60.4079C86.8306 45.9135 86.8306 31.4186 86.8224 16.923C86.8224 15.834 86.8065 15.8164 85.7172 15.8164L46.8572 15.8111Z" fill="white"/>
<path d="M48.2375 71.494C48.7804 71.2168 49.318 70.9274 49.8679 70.6626C52.1894 69.5471 54.6695 68.9311 57.1742 68.4281C62.3918 67.3779 67.6727 66.8961 72.9837 66.7054C74.6565 66.6454 76.3328 66.6119 78.0038 66.5784C78.7864 66.5625 78.8199 66.6119 78.7282 67.475C78.3757 67.505 78.0108 67.5491 77.6424 67.5668C73.5883 67.768 69.5341 67.8527 65.5064 68.1916C61.1385 68.5587 56.8058 69.2506 52.6248 70.6467C51.5019 71.0209 50.432 71.5575 49.3497 72.0464C49.1735 72.1223 49.0783 72.3412 48.9461 72.493C49.1311 72.5689 49.3162 72.7136 49.5013 72.7136C58.954 72.7136 68.4066 72.7071 77.8592 72.6942C78.7564 72.6942 78.7547 72.6942 78.7512 73.6208C78.7512 74.3268 78.73 75.0328 78.7512 75.7388C78.767 76.1819 78.5749 76.3231 78.1659 76.3107C77.2194 76.2807 76.2728 76.2578 75.3245 76.2578C56.0679 76.2578 36.8095 76.2578 17.5493 76.2578C16.8671 76.2578 16.185 76.2683 15.5028 76.2966C15.1168 76.3142 14.9335 76.1907 14.9476 75.7759C14.974 74.9163 14.9881 74.055 14.9758 73.1954C14.9758 72.8071 15.152 72.6924 15.4922 72.6995C16.021 72.7101 16.5498 72.6995 17.0786 72.6995C26.0471 72.6995 35.0156 72.6995 43.9841 72.6995C44.2961 72.6995 44.6099 72.6589 44.9219 72.6359C44.9483 72.5653 44.973 72.493 44.9977 72.4224C44.7847 72.2382 44.5598 72.0683 44.3243 71.914C42.4647 70.855 40.4341 70.2637 38.3788 69.7642C33.3323 68.5393 28.1994 67.9339 23.0171 67.7186C20.5494 67.6162 18.0816 67.5544 15.6244 67.4503C15.3847 67.4397 15.0057 67.3197 14.9458 67.1555C14.803 66.7708 14.8982 66.4195 15.4746 66.4495C16.356 66.4989 17.2373 66.4866 18.1186 66.5431C22.4442 66.8255 26.7839 66.9967 31.0937 67.4485C35.0773 67.8651 39.0257 68.6152 42.789 70.0819C43.3637 70.3061 43.9119 70.592 44.4742 70.8444C44.6222 70.9097 44.7809 70.9556 44.9342 71.0103L45.0488 70.8815C44.8858 70.6472 44.7092 70.4227 44.52 70.209C42.4806 68.1298 39.9934 66.7178 37.3812 65.5176C32.5638 63.3042 27.4643 62.1729 22.2221 61.6893C20.0752 61.4916 17.9142 61.458 15.7584 61.3504L15.0005 61.3115C14.8383 60.392 14.8665 60.3178 15.6667 60.3672C18.5646 60.5473 21.4624 60.7444 24.3603 60.9585C25.3139 61.0291 25.3967 60.9585 25.5219 60.0266C26.0031 56.4471 27.1083 53.0901 29.1741 50.0877C31.5866 46.5151 35.0303 43.7646 39.0451 42.2034C43.6281 40.3995 48.3168 40.1718 53.0302 41.6068C58.5579 43.2889 62.7584 46.6742 65.6263 51.7186C67.1686 54.4297 67.9794 57.3544 68.2809 60.4326C68.3408 61.0415 68.5611 61.1103 69.1269 61.0662C72.1323 60.835 75.1412 60.6602 78.1501 60.4749C78.4744 60.4537 78.8217 60.4078 78.8111 60.9497C78.8005 61.4916 78.492 61.4616 78.106 61.4616C73.2869 61.4616 68.5259 61.9293 63.8283 63.0695C60.0157 63.9961 56.3528 65.3058 53.0196 67.3903C51.4614 68.3646 50.0548 69.586 48.5935 70.7138C48.3873 70.8727 48.2621 71.1374 48.0982 71.3545L48.2375 71.494ZM46.5999 65.7876C47.9625 65.7876 49.3268 65.777 50.6911 65.7876C51.2323 65.7876 51.4226 65.5511 51.4191 65.0234C51.4038 62.9312 51.4038 60.8385 51.4191 58.7452C51.4191 58.1874 51.1741 57.9174 50.6365 57.9174C47.9537 57.9174 45.2709 57.9239 42.5881 57.9368C42.0699 57.9368 41.8354 58.191 41.8372 58.7152C41.8466 60.8085 41.8466 62.9018 41.8372 64.9951C41.8372 65.5599 42.0963 65.7876 42.6427 65.7841C43.9612 65.7806 45.2797 65.7876 46.5999 65.7876ZM46.6317 56.9749V56.9396C47.9308 56.9396 49.2316 56.9078 50.529 56.9537C51.1247 56.9749 51.2781 56.7031 51.234 56.2106C51.1653 55.404 51.1001 54.5956 50.9784 53.7978C50.7493 52.3064 50.4391 50.8273 50.2452 49.3323C50.1553 48.6422 49.8292 48.4286 49.2087 48.4322C47.446 48.4392 45.6834 48.4392 43.9207 48.4322C43.4148 48.4322 43.0746 48.5839 42.9812 49.1382C42.8366 49.9818 42.6286 50.8149 42.5141 51.6622C42.3096 53.2313 42.1615 54.8057 41.9853 56.3783C41.9359 56.8284 42.1298 57.0013 42.5969 56.9925C43.9471 56.959 45.2903 56.9749 46.6317 56.9749ZM41.7914 49.2229C41.8108 48.8787 41.6151 48.681 40.9893 48.8505C39.5105 49.2494 38.0527 49.733 36.5827 50.1354C35.8177 50.3472 35.4228 50.8414 35.2254 51.5757C34.7072 53.496 34.1678 55.4128 33.6531 57.3314C33.5315 57.7797 33.6848 57.9262 34.1607 57.8609C36.1667 57.6032 38.1744 57.3679 40.1838 57.1549C40.702 57.1002 40.9312 56.876 40.9559 56.3712C40.9823 55.7782 41.0052 55.1816 41.0792 54.5939C41.2872 52.8871 41.527 51.1856 41.7914 49.2229ZM59.5944 57.6562C59.5944 57.3385 59.6631 56.9837 59.5821 56.6642C59.2013 55.1604 58.8364 53.6496 58.3482 52.1811C58.1419 51.558 58.1049 50.7214 57.2906 50.4584C55.5855 49.9077 53.8757 49.3747 52.1612 48.8593C51.6324 48.6987 51.4561 48.9193 51.5601 49.4665C51.8139 50.8608 52.0748 52.257 52.2652 53.6602C52.385 54.5427 52.3551 55.4587 52.4503 56.3536C52.4732 56.5672 52.6918 56.8831 52.8733 56.9307C53.4745 57.0448 54.0819 57.1226 54.6924 57.1637C56.2841 57.3279 57.8916 57.4867 59.5785 57.6562H59.5944ZM52.4538 61.7987H52.4626C52.4626 62.8577 52.4626 63.9167 52.4626 64.9669C52.4626 65.597 52.616 65.6729 53.1677 65.4311C55.2829 64.4886 57.3981 63.5337 59.5415 62.6441C59.9751 62.4676 60.1479 62.2452 60.1355 61.8393C60.1109 61.0256 60.0844 60.2102 60.0016 59.4C59.9763 59.2911 59.9249 59.1899 59.8518 59.1054C59.7787 59.0208 59.6861 58.9553 59.5821 58.9146C58.6619 58.7381 57.733 58.5969 56.8023 58.4857C55.6107 58.3445 54.4139 58.2598 53.2241 58.1151C52.6953 58.0498 52.4362 58.1821 52.4485 58.7628C52.4608 59.7742 52.445 60.7873 52.445 61.7987H52.4538ZM40.7108 65.7629C40.7509 65.5351 40.7791 65.3053 40.7955 65.0746C40.7955 62.9848 40.7955 60.895 40.806 58.8052C40.806 58.2616 40.6033 58.0286 40.0622 58.0992C37.9928 58.3657 35.9217 58.6181 33.8576 58.9146C33.7449 58.9558 33.6438 59.0237 33.5631 59.1126C33.4823 59.2014 33.4243 59.3085 33.394 59.4247C33.2935 60.1184 33.3094 60.8279 33.2177 61.5251C33.1278 62.2576 33.4768 62.57 34.1237 62.81C35.4563 63.3042 36.7677 63.8585 38.0686 64.4356C38.9217 64.8151 39.7414 65.2758 40.702 65.7629H40.7108ZM53.4338 42.9941C53.6166 43.2508 53.8207 43.4917 54.0437 43.7142C55.727 45.1399 57.1007 46.8957 58.0803 48.8734C58.4313 49.5598 58.9972 50.1121 59.6913 50.446C62.0375 51.6816 64.0857 53.2701 65.6104 55.4852C65.7535 55.6598 65.9084 55.8243 66.074 55.9776C66.705 52.384 57.4175 42.8194 53.425 42.9924L53.4338 42.9941ZM39.6603 43.2165C36.1103 43.4354 27.8222 51.6604 28.3792 54.2638C28.5094 54.1804 28.6326 54.0866 28.7476 53.9832C30.3134 52.3638 32.1449 51.0254 34.1625 50.026C34.5779 49.7805 34.9177 49.4251 35.1443 48.9987C36.2354 47.066 37.4957 45.2763 39.1773 43.8078C39.3512 43.6216 39.5125 43.4241 39.6603 43.2165V43.2165ZM33.7712 51.5121C33.6363 51.5323 33.504 51.5666 33.3764 51.6145C31.4762 52.7529 29.7117 54.0855 28.4867 55.9476C27.7975 57.0066 27.3621 58.2157 26.8333 59.3682C26.7928 59.5319 26.8122 59.7048 26.8879 59.8554C26.9091 59.9048 27.1453 59.9295 27.2317 59.8783C28.7053 58.9958 30.341 58.5952 31.975 58.1733C32.067 58.1298 32.148 58.0661 32.2121 57.987C32.2762 57.9078 32.3217 57.8153 32.3452 57.7162C32.7964 55.8929 33.2265 54.0643 33.6513 52.2446C33.6989 52.0381 33.7218 51.8298 33.7747 51.5086L33.7712 51.5121ZM59.9258 51.5792L59.6702 51.7557C59.7336 52.0769 59.7883 52.3982 59.8623 52.7159C60.1972 54.1173 60.5551 55.5134 60.867 56.9202C61.1103 58.0127 61.2196 58.0745 62.0198 58.2545C63.2308 58.5281 64.3959 58.9958 65.5857 59.3682C65.7852 59.4104 65.9883 59.4329 66.1921 59.4353C66.2104 59.2475 66.2027 59.058 66.1692 58.8723C65.5935 57.0802 64.557 55.4713 63.1638 54.2073C62.1432 53.2701 61.0133 52.4493 59.9311 51.5757L59.9258 51.5792ZM48.7839 47.3025C49.2158 47.3467 49.7851 47.3343 49.5542 46.7201C49.0536 45.3928 48.5548 44.0337 47.8144 42.837C47.0741 41.6403 46.0694 41.7621 45.2832 42.9818C45.1699 43.1444 45.0714 43.3169 44.9889 43.4972C44.5746 44.4891 44.1604 45.481 43.7656 46.4818C43.4765 47.2125 43.614 47.3943 44.4001 47.3325C45.1422 47.2743 45.8825 47.1349 46.6229 47.1278C47.3632 47.1207 48.063 47.2408 48.7839 47.3025ZM56.6366 48.8769L56.7794 48.7004C56.6365 48.4154 56.477 48.139 56.3017 47.8726C55.7482 47.1349 55.1912 46.3971 54.6007 45.6911C53.3259 44.193 51.6954 43.0398 49.8591 42.3375C49.7023 42.2758 49.4943 42.3375 49.3109 42.3499C49.3003 42.5174 49.3134 42.6855 49.3497 42.8494C49.8926 44.2614 50.4391 45.6734 51.0172 47.0696C51.0702 47.1776 51.1443 47.2739 51.2351 47.3528C51.3259 47.4316 51.4317 47.4913 51.546 47.5285C52.6424 47.8232 53.7529 48.058 54.8528 48.3439C55.4503 48.4904 56.0408 48.6969 56.6366 48.8787V48.8769ZM36.632 48.5469L36.773 48.7234C36.9413 48.7213 37.1093 48.7065 37.2754 48.6793C38.5903 48.3616 39.9 48.0209 41.2185 47.7191C41.9007 47.5638 42.2426 47.2231 42.4524 46.503C42.8049 45.2922 43.3654 44.1414 43.8308 42.9623C43.9015 42.757 43.9603 42.5478 44.007 42.3358C43.7801 42.3315 43.5537 42.3576 43.3337 42.4134C40.9559 43.3648 39.1033 44.9851 37.6262 47.0431C37.2719 47.5285 36.9616 48.0456 36.632 48.5486V48.5469ZM46.5136 70.4244C47.721 69.3989 48.8579 68.4422 49.979 67.4697C50.1077 67.3567 50.1553 67.1449 50.2363 66.979C50.0678 66.9043 49.8899 66.8527 49.7075 66.8255C47.6205 66.8102 45.5335 66.8031 43.4465 66.8043C43.1927 66.8272 42.9407 66.8667 42.6921 66.9225L46.5136 70.4244ZM65.5276 60.8756C65.5276 60.7926 65.5187 60.7097 65.5135 60.6267C64.2796 59.9595 62.9382 59.6083 61.5809 59.3135C61.4593 59.2871 61.1314 59.5977 61.1244 59.7618C61.1175 60.3568 61.1475 60.9516 61.2143 61.5428C61.2495 61.9487 61.4699 62.044 61.8594 61.9258C62.5486 61.7193 63.2555 61.5622 63.9482 61.3662C64.4788 61.218 65.0023 61.0397 65.5276 60.8756ZM32.1337 59.9331C32.2764 59.4883 32.1072 59.2906 31.6577 59.4388C30.6248 59.7777 29.5901 60.1184 28.5642 60.4837C28.4921 60.5182 28.4296 60.5702 28.3825 60.6349C28.3355 60.6996 28.3052 60.775 28.2946 60.8544C28.3139 60.9744 28.5096 61.1138 28.6471 61.1562C29.5707 61.421 30.5014 61.6522 31.4268 61.9116C31.9169 62.0493 32.1319 61.8852 32.1319 61.3821C32.1319 60.8791 32.1337 60.4149 32.1337 59.9331Z" fill="white"/>
<path d="M46.8608 34.4269C46.332 33.239 46.0605 31.8252 45.2197 30.9639C44.3789 30.1026 42.9899 29.8219 41.8936 29.3118C42.9917 28.9588 44.4776 28.9288 45.2268 27.7374C45.9125 26.6484 46.302 25.3741 46.6986 24.4651C47.06 25.3476 47.4284 26.5602 48.0435 27.6421C48.7098 28.8035 50.06 29.0012 51.3062 29.4495C48.4172 29.9331 46.9947 31.6823 46.8608 34.4269Z" fill="white"/>
<path d="M40.1784 88.8161C40.1696 90.0022 39.5086 90.8388 38.3135 91.1318C37.9134 91.2289 37.552 91.2977 37.4516 91.8043C37.4286 91.9207 37.1096 92.0478 36.9228 92.0443C36.7817 92.0443 36.6407 91.8519 36.505 91.7354C36.2935 91.5589 36.1154 91.2642 35.8757 91.2059C34.5149 90.8388 33.8134 90.0692 33.8081 88.8408C33.8081 87.4976 34.418 86.7069 35.8017 86.3433C36.1542 86.2497 36.4733 86.2038 36.579 85.7626C36.609 85.6443 36.8734 85.512 37.0285 85.512C37.1836 85.512 37.4445 85.6602 37.4639 85.7732C37.5326 86.2003 37.8164 86.2533 38.1549 86.3433C39.5509 86.7069 40.189 87.5064 40.1784 88.8161ZM37.5009 88.7578C37.5009 89.1744 37.4886 89.5909 37.5009 90.0075C37.5133 90.3216 37.6507 90.5052 38.0121 90.3887C38.5814 90.2034 38.9939 89.5309 39.0009 88.7525C39.0009 88.0006 38.6167 87.3688 38.0473 87.1746C37.7177 87.0634 37.5185 87.1746 37.5044 87.51C37.485 87.9247 37.5027 88.3413 37.5009 88.7578ZM36.4979 88.7402H36.5103C36.5103 88.3466 36.5209 87.9512 36.5103 87.5576C36.4979 87.2046 36.3481 87.0193 35.9603 87.157C35.3875 87.3599 34.9909 87.983 34.9732 88.7296C34.9556 89.4762 35.3399 90.1081 35.9057 90.3305C36.2494 90.4646 36.4786 90.3816 36.4979 89.9898C36.5173 89.598 36.4979 89.1567 36.4979 88.7402Z" fill="white"/>
<path d="M42.9211 89.6243L45.4769 85.7041C46.3759 85.5276 46.457 85.5894 46.4587 86.6237C46.4587 88.1469 46.4429 89.6702 46.4728 91.1916C46.4728 91.7211 46.2878 91.8676 45.7801 91.8729C45.2266 91.8729 45.1843 91.5976 45.1949 91.1669C45.2161 90.3515 45.2072 89.5343 45.1949 88.7188C45.1949 88.4894 45.1597 88.2599 45.1403 88.0304L44.964 87.981C44.8159 88.2264 44.6696 88.4735 44.518 88.7153C43.8993 89.7002 43.3053 90.7027 42.6373 91.6523C42.5156 91.8288 42.0873 91.8429 41.8106 91.8288C41.6872 91.8182 41.4933 91.5305 41.4915 91.3664C41.4651 89.6243 41.4739 87.8804 41.4651 86.1383C41.4651 85.6936 41.7401 85.6565 42.082 85.6618C42.424 85.6671 42.6884 85.7306 42.6813 86.1666C42.6655 87.0491 42.6655 87.9316 42.6672 88.8141C42.6672 89.0665 42.6954 89.3189 42.7113 89.5713L42.9211 89.6243Z" fill="white"/>
<path d="M47.9871 88.7471C47.9871 87.8875 47.9977 87.028 47.9871 86.1684C47.9871 85.8013 48.1193 85.6548 48.4877 85.6565C49.6757 85.6654 50.8638 85.6671 52.0518 85.6477C52.5119 85.6477 52.674 85.833 52.6705 86.2796C52.6564 87.9528 52.6529 89.6331 52.6705 91.3028C52.6705 91.7494 52.4766 91.8747 52.0712 91.8676C51.6658 91.8606 51.3855 91.8412 51.3961 91.3152C51.419 89.9932 51.3838 88.6677 51.4172 87.3492C51.4331 86.7155 51.1899 86.4473 50.5659 86.5055C50.4583 86.5161 50.3473 86.5055 50.2363 86.5055C49.3038 86.5055 49.2615 86.5532 49.2597 87.4727C49.2597 88.7506 49.2386 90.0285 49.2597 91.3064C49.2597 91.7635 49.0658 91.8729 48.6657 91.8659C48.2656 91.8588 47.9694 91.8659 47.9871 91.3223C48.017 90.4645 47.9959 89.6031 47.9959 88.7453L47.9871 88.7471Z" fill="white"/>
<path d="M58.9844 88.7806C58.9844 89.6172 58.9562 90.4556 58.995 91.2904C59.0161 91.7405 58.8522 91.8729 58.4344 91.8694C58.0167 91.8658 57.7417 91.8235 57.7699 91.3081C57.7946 90.8263 57.7593 90.3409 57.7699 89.8555C57.7805 89.3701 57.5936 89.1707 57.1018 89.176C55.1629 89.1954 55.4943 89.0683 55.4625 90.7257C55.451 90.902 55.451 91.0788 55.4625 91.2552C55.5154 91.7141 55.3233 91.8817 54.865 91.8764C54.4067 91.8711 54.1828 91.7864 54.1917 91.2552C54.2216 89.5819 54.2181 87.9016 54.1917 86.2354C54.1917 85.7359 54.4067 85.6459 54.8262 85.6512C55.2457 85.6565 55.5101 85.7077 55.4731 86.2213C55.4396 86.7032 55.4731 87.1903 55.4731 87.6739C55.4731 88.0605 55.6494 88.2387 56.0284 88.2493C58.0255 88.3005 57.7734 88.274 57.7769 86.6432C57.7769 85.7024 57.8563 85.6089 58.5472 85.6512C58.8839 85.6706 58.995 85.803 58.9861 86.1454C58.9615 87.0279 58.9773 87.9104 58.9773 88.7824L58.9844 88.7806Z" fill="white"/>
<path d="M62.7036 35.4327C61.0572 34.5802 59.5766 34.8273 58.2845 36.3153C58.9896 34.6544 58.8345 33.1894 57.5671 31.8374C59.3298 32.6034 60.7505 32.1251 61.9738 30.7537C61.8469 31.6362 61.5543 32.4551 61.6706 33.2035C61.787 33.9519 62.3193 34.6402 62.7036 35.4327Z" fill="white"/>
<path d="M35.8159 31.5164C34.6102 32.8878 34.4498 34.321 35.1954 35.9625C33.8276 34.5628 32.317 34.118 30.4944 35.1823C31.9944 33.7703 32.1689 32.2135 31.3264 30.4167C32.6255 31.594 33.9669 32.4306 35.8159 31.5164Z" fill="white"/>
<path d="M68.279 40.2883C68.0234 40.8937 67.6779 41.4144 67.6021 41.9704C67.5299 42.4999 67.7414 43.0647 67.8524 43.7566C66.8971 42.7576 65.8518 42.5634 64.625 43.1388C65.427 42.1733 65.4552 41.1726 65.0815 40.02C66.1004 40.8743 67.1738 40.8866 68.279 40.2883Z" fill="white"/>
<path d="M25.5271 43.3367C26.1582 42.1524 25.9872 41.0986 25.0212 40.0379C25.6893 40.1738 26.2146 40.3909 26.7187 40.352C27.2228 40.3132 27.7446 40.0237 28.3633 39.8066C28.0319 40.848 27.9878 41.8664 28.8092 42.8072C27.556 42.1841 26.5266 42.4718 25.5271 43.3367Z" fill="white"/>
<path d="M22.231 49.5478L23.6305 48.0669L24.778 49.3165C24.4096 49.8054 23.9936 50.3614 23.5741 50.9209C23.419 50.2573 23.033 49.6537 22.231 49.5478Z" fill="white"/>
<path d="M68.8291 49.8424L70.0312 48.7022L69.7475 48.3933C70.2375 48.8699 70.7293 49.3447 71.1153 49.7171L69.7633 51.115L68.8291 49.8424Z" fill="white"/>
</svg>
