<svg width="18" height="18" viewBox="0 0 18 18" fill="none" xmlns="http://www.w3.org/2000/svg">
<path d="M10.6875 1.6875C7.58716 1.6875 5.0625 4.21216 5.0625 7.3125C5.0625 8.65942 5.53491 9.89429 6.32812 10.8633L1.8457 15.3457L2.6543 16.1543L7.13672 11.6719C8.10571 12.4651 9.34058 12.9375 10.6875 12.9375C13.7878 12.9375 16.3125 10.4128 16.3125 7.3125C16.3125 4.21216 13.7878 1.6875 10.6875 1.6875ZM10.6875 2.8125C13.1792 2.8125 15.1875 4.8208 15.1875 7.3125C15.1875 9.8042 13.1792 11.8125 10.6875 11.8125C8.1958 11.8125 6.1875 9.8042 6.1875 7.3125C6.1875 4.8208 8.1958 2.8125 10.6875 2.8125Z" fill="white"/>
</svg>
