<svg width="31" height="18" viewBox="0 0 31 18" fill="none" xmlns="http://www.w3.org/2000/svg">
<g clip-path="url(#clip0_130_1716)">
<path d="M25.7235 10.3695C25.2224 9.73659 25.3657 9.455 25.7235 8.88925C25.73 8.88279 29.8672 3.16588 30.2935 1.22708L30.296 1.22579C30.5079 0.51925 30.296 0 29.2717 0H25.8824C25.0196 0 24.6217 0.445625 24.4086 0.944209C24.4086 0.944209 22.683 5.07496 20.2417 7.75259C19.4538 8.52629 19.0895 8.77429 18.6594 8.77429C18.4476 8.77429 18.1182 8.52629 18.1182 7.81975V1.22579C18.1182 0.378458 17.8767 0 17.1624 0H11.833C11.2917 0 10.9701 0.39525 10.9701 0.763375C10.9701 1.56679 12.1907 1.7515 12.3173 4.01192V8.91638C12.3173 9.99104 12.1223 10.1887 11.6896 10.1887C10.5374 10.1887 7.74096 6.04113 6.08375 1.29425C5.74921 0.373292 5.42242 0.00129157 4.55312 0.00129157H1.1625C0.195042 0.00129157 0 0.446917 0 0.9455C0 1.82642 1.15217 6.20646 5.35783 11.9931C8.16075 15.943 12.1081 18.0833 15.6989 18.0833C17.8573 18.0833 18.1208 17.608 18.1208 16.7904C18.1208 13.0161 17.9257 12.6596 19.0069 12.6596C19.508 12.6596 20.3709 12.9076 22.3859 14.8128C24.6889 17.072 25.0674 18.0833 26.3565 18.0833H29.7458C30.712 18.0833 31.2015 17.608 30.9199 16.6703C30.2754 14.6979 25.9199 10.6408 25.7235 10.3695Z" fill="white"/>
</g>
<defs>
<clipPath id="clip0_130_1716">
<rect width="31" height="18" fill="currentColor"/>
</clipPath>
</defs>
</svg>
